<svg width="78" height="95" viewBox="0 0 78 95" fill="none" xmlns="http://www.w3.org/2000/svg">
<path fill-rule="evenodd" clip-rule="evenodd" d="M8.26227 0.0590498C8.26227 0.174705 7.83822 0.377713 7.31916 0.510479C6.54155 0.709434 5.94936 1.00648 4.92314 1.71225C3.32919 2.8084 2.95534 3.24517 2.00332 5.12363C1.4395 6.23619 1.32303 6.52108 1.17865 7.14066C1.04938 7.69558 0.968195 7.91068 0.826824 8.0724L0.643066 8.28267V38.081L23.6768 38.0644C46.5802 38.048 46.7117 38.0472 46.9283 37.9193C47.0481 37.8485 47.2066 37.6748 47.2804 37.5333L47.4147 37.276L47.4311 22.2916C47.4453 9.40674 47.4346 7.25638 47.3551 6.94479C47.1984 6.3301 46.47 4.88531 45.8758 4.01082C45.2142 3.03701 44.9859 2.77965 44.4695 2.42593C44.2582 2.2812 43.8693 1.98679 43.6051 1.77175C42.9297 1.22171 42.7892 1.14517 41.7804 0.777618C40.7791 0.412834 40.3418 0.208668 40.2941 0.0839434C40.2679 0.0152449 37.3602 0 24.2622 0C14.5854 0 8.26227 0.0233498 8.26227 0.0590498ZM62.917 0.0994456C62.8961 0.154186 62.6841 0.286437 62.446 0.393473C62.2078 0.500444 61.8112 0.679266 61.5647 0.790805C60.8454 1.11641 59.8894 1.67983 59.5494 1.97856C59.2488 2.2428 58.6376 3.08288 58.1222 3.94058C57.9895 4.16134 57.759 4.70372 57.6099 5.14596L57.3389 5.95001V68.2161L57.6099 69.0201C57.8769 69.8121 58.0591 70.1663 58.6756 71.0921C59.0682 71.6817 59.3035 71.9322 59.7079 72.1913C59.884 72.3041 60.2441 72.5517 60.5083 72.7415C61.156 73.2071 61.8259 73.5352 62.5571 73.7449C63.3717 73.9786 64.0436 74.265 64.2201 74.4537C64.4112 74.6581 64.4513 75.0652 64.328 75.549C64.2739 75.7613 64.1997 76.21 64.1632 76.5461C64.1266 76.8822 64.0281 77.3887 63.9444 77.6718C63.8606 77.9548 63.7561 78.389 63.712 78.6366C63.668 78.8843 63.3776 79.8461 63.0666 80.7741C62.2999 83.0622 61.8718 83.9247 60.4881 85.9696C60.3444 86.1819 60.0237 86.6583 59.7753 87.0282C59.2709 87.7796 58.4092 88.7213 57.8415 89.1415C56.7706 89.9342 56.0557 90.3446 55.226 90.6431C54.1258 91.039 52.9886 91.3018 52.3768 91.3018C51.3086 91.3018 49.0954 90.6127 48.1511 89.9859C47.8517 89.7873 47.4341 89.5115 47.2229 89.3731C47.0118 89.2347 46.5314 88.8232 46.1554 88.4585C45.5344 87.8564 45.3604 87.6285 44.259 85.9751C43.5408 84.8967 42.9008 83.8559 42.689 83.4218C42.4891 83.0118 42.0665 81.9099 41.7297 80.9201C40.716 77.941 40.5988 77.5408 40.5326 76.8355C40.4995 76.4818 40.3993 75.9484 40.31 75.6503C40.117 75.0059 40.1022 74.5406 40.2647 74.2294C40.3896 73.9902 40.622 73.8513 41.6203 73.4187C42.8567 72.883 44.4226 71.8554 44.8957 71.2692C45.0134 71.1233 45.3793 70.6807 45.7087 70.2854C46.218 69.6744 46.3787 69.4204 46.7818 68.5886C47.0426 68.0506 47.2991 67.4412 47.3518 67.2344C47.4357 66.9056 47.4456 65.2612 47.4312 54.1256L47.4147 41.3928L47.2804 41.1355C47.2066 40.994 47.0481 40.8203 46.9283 40.7495C46.7115 40.6215 46.5951 40.6209 24.237 40.6209H1.76354L0.643066 40.9388V65.8834L0.826824 66.0937C0.967619 66.2548 1.04925 66.4698 1.1759 67.0136C1.43905 68.1429 2.12612 69.4289 3.38598 71.15C3.71367 71.5977 3.92951 71.779 4.9969 72.5028C5.66163 72.9535 5.9274 73.0909 6.56556 73.3133C7.27203 73.5596 8.42228 73.9213 9.10371 74.1115C9.31583 74.1707 12.4923 74.1982 22.3482 74.226L35.3137 74.2626L35.5698 74.3969C35.7202 74.4758 35.8853 74.6351 35.97 74.7828C36.2109 75.2035 36.4937 76.1883 36.5641 76.8514C36.6007 77.1965 36.7146 77.7682 36.817 78.122C36.9195 78.4758 37.0356 78.9389 37.075 79.1512C37.1533 79.5731 37.284 79.9894 38.192 82.7058C38.9926 85.1013 39.4195 85.9643 40.8088 87.9958C40.9177 88.155 41.229 88.6182 41.5006 89.025C41.9182 89.6505 42.2154 89.9837 43.4241 91.1816C44.7369 92.4827 44.9373 92.6544 45.8781 93.2848C46.8099 93.9094 47.7431 94.4283 47.9343 94.4283C47.9754 94.4283 48.3652 94.5512 48.8004 94.7014L49.5917 94.9745L52.1527 94.9952C53.9101 95.0094 54.8344 94.9925 55.098 94.9413C55.3093 94.9004 55.8567 94.7063 56.3145 94.5102C56.7723 94.314 57.3035 94.0992 57.4951 94.0329C57.8921 93.8953 58.4317 93.6012 58.8226 93.3092C58.9694 93.1994 59.2573 93.0083 59.4622 92.8845C59.6917 92.7459 60.3846 92.1156 61.2645 91.2452L62.694 89.831L63.9085 88.0061C65.5093 85.6005 65.7686 85.0625 66.7505 82.1101C67.1623 80.8719 67.5555 79.5983 67.6244 79.2799C67.6933 78.9615 67.8224 78.4694 67.9112 78.1864C68.0155 77.8543 68.0933 77.4033 68.1307 76.915C68.2124 75.8453 68.549 74.877 68.9599 74.5296C69.2159 74.3132 69.4696 74.2483 70.3754 74.1674C70.7843 74.1309 71.2841 74.0439 71.4862 73.974C71.6884 73.9042 72.0885 73.8025 72.3756 73.7482C73.1587 73.6 73.2735 73.55 74.2082 72.9504C75.1182 72.3667 75.6912 71.8772 76.1173 71.3195C76.567 70.731 77.2615 69.3114 77.4428 68.6105C77.621 67.9212 77.752 67.6177 77.8949 67.5627C78.0353 67.5085 78.0353 6.65758 77.8949 6.60342C77.752 6.54836 77.621 6.24487 77.4428 5.55557C77.2623 4.85765 76.5676 3.43583 76.1221 2.85272C75.7794 2.40419 74.8266 1.48918 74.4057 1.20441C74.2171 1.07679 73.7333 0.835317 73.3307 0.667816C72.9281 0.500315 72.5116 0.281548 72.4052 0.181652L72.2116 0H67.5833C63.4669 0 62.9508 0.0109995 62.917 0.0994456ZM37.6186 4.94964C38.6444 5.01621 38.8707 5.07944 39.8916 5.58452C41.2228 6.24314 41.9903 6.95495 42.6282 8.12289C43.0696 8.93106 43.3335 9.57952 43.4144 10.0546C43.4604 10.3254 43.4762 13.3549 43.4636 19.5225C43.4424 29.8678 43.5219 28.6125 42.7958 30.0743C41.9874 31.7015 41.2967 32.335 39.3794 33.2072C38.3535 33.6738 39.5463 33.6397 24.2561 33.6407C14.3367 33.6414 10.3517 33.6215 10.1126 33.57C9.57009 33.4531 8.31932 32.9499 7.9682 32.7074C7.53128 32.4055 6.08651 30.9177 5.87317 30.5499C5.77944 30.3883 5.56559 29.8673 5.3979 29.392L5.09294 28.5279V10.0668L5.40116 9.16623C5.7786 8.06339 5.90627 7.83851 6.52304 7.18993C7.22843 6.4482 7.69365 6.10194 8.62178 5.62787C9.66152 5.09681 9.92147 5.01647 10.7913 4.95678C11.8089 4.88692 36.5519 4.88036 37.6186 4.94964ZM41.6203 46.1589C42.2583 46.4573 42.8531 47.4107 42.8605 48.1468C42.8631 48.3987 42.8232 48.6177 42.7458 48.7772C42.5669 49.1455 42.1088 49.5822 41.6984 49.7755L41.3322 49.9479H39.5074C37.4168 49.9479 37.3438 49.9325 36.7857 49.3718C36.3733 48.9575 36.179 48.5131 36.1801 47.986C36.181 47.4795 36.3186 47.1442 36.6932 46.736C37.3223 46.0503 37.5602 45.9922 39.6675 46.01C41.2062 46.023 41.354 46.0344 41.6203 46.1589ZM40.9233 51.5248C41.6985 51.6714 42.328 52.142 42.6705 52.831C43.0812 53.657 42.9619 54.1673 42.1702 54.9705C41.363 55.7894 40.8984 55.9623 39.5044 55.9623C38.5311 55.9623 38.1904 55.8928 37.4799 55.5492C36.8477 55.2435 36.4729 54.9216 36.2732 54.5128C36.0879 54.1334 36.0958 53.1375 36.2872 52.7738C36.5603 52.2548 37.3589 51.7149 38.0988 51.5492C38.5317 51.4523 40.4519 51.4356 40.9233 51.5248ZM40.312 56.9309C40.521 56.9683 40.9829 57.1403 41.3385 57.3131C41.8566 57.565 42.0525 57.7016 42.3248 58.001C42.7421 58.4596 42.8368 58.6773 42.8368 59.1778C42.8368 59.9075 42.3575 60.6365 41.6361 61.0037C41.1711 61.2404 40.6973 61.3012 39.317 61.3012C37.9074 61.3012 37.5011 61.2324 37.0435 60.9161C36.4626 60.5145 36.166 59.9709 36.168 59.3117C36.1705 58.5386 36.5409 57.8347 37.1552 57.4359C37.5241 57.1963 38.1376 56.9581 38.515 56.9077C38.9259 56.8529 39.9504 56.8661 40.312 56.9309Z" fill="#000000"/>
</svg>
