<svg width="74" height="95" viewBox="0 0 74 95" fill="none" xmlns="http://www.w3.org/2000/svg">
<path d="M5.92224 2.5191e-05C5.92224 2.5191e-05 4.62358 -0.0145891 3.27041 0.660178C1.91724 1.33472 0.428941 2.70937 0.428941 5.48768V89.5196H4.09358C4.09358 89.5196 4.11168 88.9876 4.35125 88.5099C4.5906 88.0322 4.96187 87.6855 5.91857 87.6855L64.5528 87.6892C66.3851 87.6892 66.3851 85.8624 66.3851 85.8624L66.3815 5.48768C66.3815 2.76646 64.8968 1.33472 63.5434 0.660178C62.1907 -0.0145891 60.8918 2.5191e-05 60.8918 2.5191e-05H5.92224ZM33.4034 12.7946C43.4997 12.7966 51.7266 20.9891 51.7266 31.0553C51.7266 41.1216 43.4997 49.3247 33.4034 49.3268C23.3071 49.3247 15.0802 41.1216 15.0802 31.0553C15.0802 20.9891 23.3071 12.7966 33.4034 12.7946ZM16.9196 54.8035H49.8943C50.9062 54.7811 51.7447 55.5808 51.7671 56.5898C51.7896 57.5989 50.9875 58.4347 49.9753 58.457C49.9483 58.4577 49.9211 58.4577 49.894 58.457H16.9196C15.9077 58.4794 15.0692 57.6797 15.0467 56.6707C15.0243 55.6616 15.8264 54.8258 16.8385 54.8035C16.8655 54.8028 16.8926 54.8028 16.9196 54.8035ZM16.9196 62.1142H49.8943C50.9062 62.0919 51.7447 62.8915 51.7671 63.9006C51.7896 64.9097 50.9875 65.7454 49.9753 65.7678C49.9483 65.7685 49.9211 65.7685 49.894 65.7678H16.9196C15.9077 65.7902 15.0692 64.9905 15.0467 63.9814C15.0243 62.9724 15.8264 62.1366 16.8385 62.1142C16.8655 62.1136 16.8926 62.1136 16.9196 62.1142ZM16.9196 69.4214H49.8943C50.9062 69.399 51.7447 70.1987 51.7674 71.2075C51.7898 72.2164 50.9877 73.0523 49.9758 73.0749C49.9488 73.0756 49.9215 73.0756 49.8945 73.0749H16.9196C15.9077 73.0973 15.0692 72.2976 15.0465 71.2888C15.0241 70.28 15.8262 69.444 16.8381 69.4214C16.8655 69.4207 16.8926 69.4207 16.9196 69.4214Z" fill="#000000"/>
<path d="M35.232 17.647V29.2356H39.7519C39.4484 23.3833 37.735 20.2346 36.1661 18.514C35.8346 18.1502 35.5318 17.897 35.232 17.647Z" fill="#000000"/>
<path d="M31.5674 17.6506C31.2676 17.9 30.9639 18.1516 30.6334 18.514C29.0644 20.2346 27.3597 23.3833 27.0583 29.2356H31.5676V17.6506H31.5674Z" fill="#000000"/>
<path d="M26.2924 18.2786C22.2913 20.4858 19.4571 24.5015 18.8701 29.2356H23.3936C23.6318 24.3076 24.7983 20.7557 26.2924 18.2786Z" fill="#000000"/>
<path d="M40.5252 18.2857C42.0173 20.7623 43.1822 24.3124 43.4204 29.2356H47.9369C47.3503 24.5058 44.5203 20.4942 40.5252 18.2857Z" fill="#000000"/>
<path d="M18.8701 32.8892C19.4617 37.624 22.3023 41.6427 26.3068 43.8499C24.8077 41.3741 23.6378 37.8247 23.3973 32.8892H18.8701Z" fill="#000000"/>
<path d="M27.0583 32.8892C27.362 38.731 29.0658 41.8774 30.6334 43.5966C30.9639 43.959 31.2678 44.2097 31.5674 44.46V32.8892H27.0583Z" fill="#000000"/>
<path d="M35.232 32.8892V44.4637C35.5318 44.2129 35.8344 43.9604 36.1661 43.5966C37.7336 41.8776 39.4461 38.731 39.7519 32.8892H35.232Z" fill="#000000"/>
<path d="M43.4168 32.8892C43.1765 37.8201 42.008 41.3673 40.5107 43.8428C44.5093 41.6342 47.3455 37.6196 47.9367 32.8892H43.4168Z" fill="#000000"/>
<path d="M64.5565 5.48402L64.5528 9.14101H68.2211C68.2211 9.14101 68.7585 9.15905 69.2376 9.3979C69.7165 9.63675 70.0498 10.0213 70.0498 10.9607V89.5123C70.0498 90.4661 69.7165 90.8397 69.2374 91.0786C68.7582 91.3174 68.2209 91.3462 68.2209 91.3462H5.92201C5.92201 91.3462 5.38835 91.3172 4.90919 91.0786C4.43004 90.8397 4.08259 90.459 4.08259 89.5123H0.428711C0.428711 92.2306 1.91701 93.6653 3.27018 94.3398C4.62335 95.0144 5.92201 95 5.92201 95H68.2209C68.2209 95 69.5196 95.0144 70.8727 94.3398C72.2261 93.6653 73.7144 92.2004 73.7144 89.5123V10.9607C73.7144 8.25388 72.2261 6.80775 70.873 6.13322C69.5198 5.45868 68.2211 5.48745 68.2211 5.48745L64.5565 5.48402Z" fill="#000000"/>
</svg>
