<svg width="82" height="95" viewBox="0 0 82 95" fill="none" xmlns="http://www.w3.org/2000/svg">
<path d="M28.3616 48.046C31.3263 45.0679 33.2039 40.8986 33.2039 36.233C33.2039 34.5455 32.7098 32.6594 31.9192 30.674C31.0298 28.5893 29.844 26.5047 28.4605 24.3208C28.4605 24.2215 28.3616 24.2215 28.3616 24.1223C25.4958 19.7544 21.7406 15.4859 18.5784 11.813L16.6019 9.52978L14.6255 11.813C8.49861 18.9603 0 28.7879 0 36.233C0 40.7994 1.8776 44.9687 4.84223 48.046C7.80687 51.024 11.9574 52.9101 16.6019 52.9101C21.1477 52.9101 25.2982 51.024 28.3616 48.046Z" fill="#000000"/>
<path d="M72.7323 0.595611L72.2382 0L71.7441 0.595611C68.0877 4.86416 63.0478 10.721 63.0478 14.8903C63.0478 17.4713 64.0361 19.7544 65.716 21.442C67.396 23.1296 69.6689 24.1223 72.2382 24.1223C74.8076 24.1223 77.0804 23.1296 78.7604 21.442C80.4404 19.7544 81.4286 17.4713 81.4286 14.8903C81.4286 10.721 76.3887 4.86416 72.7323 0.595611Z" fill="#000000"/>
<path d="M41.0107 14.3939C39.5284 16.1808 37.8485 18.0669 36.1685 20.1515L33.5992 23.1296C34.785 25.0157 35.7732 26.9018 36.5638 28.7879C37.6508 31.3689 38.2438 33.8506 38.2438 36.233C38.2438 42.1891 35.8721 47.6489 31.9192 51.6196C27.9664 55.5904 22.63 57.9728 16.6019 57.9728C15.2184 57.9728 13.9338 57.8736 12.6491 57.5758C12.155 57.4765 11.7597 57.3772 11.2656 57.278C11.068 58.0721 10.8703 58.8662 10.6727 59.6604C10.3762 61.1494 10.1786 62.5392 10.1786 64.0282C10.1786 72.5653 13.6373 80.3083 19.1713 85.9666C24.8041 91.6249 32.5121 95 41.0107 95C49.5094 95 57.2174 91.5256 62.8502 85.9666C68.483 80.4075 71.8429 72.5653 71.8429 64.0282C71.8429 50.4284 56.7233 32.9572 45.853 20.2508C44.173 18.0669 42.5919 16.1808 41.0107 14.3939Z" fill="#000000"/>
</svg>
