<svg width="24" height="95" viewBox="0 0 24 95" fill="none" xmlns="http://www.w3.org/2000/svg">
<path d="M11.5357 23.75C17.8804 23.75 23.0714 18.4062 23.0714 11.875C23.0714 5.34375 17.8804 0 11.5357 0C5.19107 0 0 5.34375 0 11.875C0 18.4062 5.19107 23.75 11.5357 23.75ZM11.5357 35.625C5.19107 35.625 0 40.9688 0 47.5C0 54.0312 5.19107 59.375 11.5357 59.375C17.8804 59.375 23.0714 54.0312 23.0714 47.5C23.0714 40.9688 17.8804 35.625 11.5357 35.625ZM11.5357 71.25C5.19107 71.25 0 76.5938 0 83.125C0 89.6562 5.19107 95 11.5357 95C17.8804 95 23.0714 89.6562 23.0714 83.125C23.0714 76.5938 17.8804 71.25 11.5357 71.25Z" fill="#000000"/>
</svg>
