<svg width="73" height="95" viewBox="0 0 73 95" fill="none" xmlns="http://www.w3.org/2000/svg">
<path d="M69.5006 9.67311H48.619V6.20506C48.619 2.77801 45.8052 0 42.3344 0H31.0229C27.5519 0 24.7383 2.77801 24.7383 6.20506V9.67311H3.85664C2.12135 9.67311 0.714355 11.0623 0.714355 12.7756V91.8975C0.714355 93.6108 2.12135 95 3.85664 95H69.5006C71.2359 95 72.6429 93.6108 72.6429 91.8975V12.7756C72.6429 11.0621 71.2359 9.67311 69.5006 9.67311ZM48.619 18.5007H51.3418C53.0771 18.5007 54.4841 19.8899 54.4841 21.6032C54.4841 23.3166 53.0771 24.7058 51.3418 24.7058H48.619V18.5007ZM31.0227 6.20506H42.3342V24.9349H31.0227V6.20506ZM36.6786 33.368C42.9888 33.368 48.1043 38.4188 48.1043 44.6491C48.1043 50.8794 42.9888 55.9301 36.6786 55.9301C30.3685 55.9301 25.253 50.8794 25.253 44.6491C25.253 38.4188 30.3685 33.368 36.6786 33.368ZM22.0153 18.5007H24.7381V24.7058H22.0153C20.28 24.7058 18.873 23.3166 18.873 21.6032C18.873 19.8897 20.2798 18.5007 22.0153 18.5007ZM58.4657 84.822H14.8916C14.024 84.822 13.3206 84.1275 13.3206 83.2708C13.3206 77.1107 15.7502 71.319 20.162 66.9631C24.5737 62.6072 30.4395 60.2083 36.6786 60.2083C42.9177 60.2083 48.7836 62.6072 53.1953 66.9631C57.607 71.319 60.0369 77.1107 60.0369 83.2708C60.0367 84.1273 59.3335 84.822 58.4657 84.822Z" fill="#000000"/>
</svg>
