<svg width="98" height="95" viewBox="0 0 98 95" fill="none" xmlns="http://www.w3.org/2000/svg">
<path d="M22.9015 18.0838L61.9695 7.31483L59.9005 3.09172C58.5469 0.346693 55.2454 -0.786879 52.5271 0.580076L17.5531 18.0838H22.9015Z" fill="#000000"/>
<path d="M74.097 7.62601C73.6129 7.62601 73.1286 7.69269 72.6444 7.82605L35.4363 18.0838H81.1182L79.4015 11.7269C78.7412 9.24857 76.5181 7.62601 74.097 7.62601Z" fill="#000000"/>
<path d="M86.8519 21.9735H5.51353C3.77473 21.9735 2.22302 22.7848 1.21056 24.0628C0.748344 24.6518 0.396182 25.3297 0.198091 26.0743C0.0770354 26.5411 0 27.0301 0 27.5302V89.4433C0 92.5107 2.46513 95 5.50253 95H86.8409C89.8784 95 92.3434 92.5107 92.3434 89.4433V73.94H59.6914C54.53 73.94 50.3371 69.7058 50.3371 64.4936V52.1354C50.3371 49.5793 51.3495 47.2567 52.9893 45.5563C54.442 44.0448 56.3899 43.0224 58.5689 42.7668C58.9321 42.7224 59.3062 42.7001 59.6804 42.7001H92.3434V27.5302C92.3544 24.4629 89.8893 21.9735 86.8519 21.9735Z" fill="#000000"/>
<path d="M96.2062 48.0123C95.6559 47.5011 95.0066 47.1121 94.2803 46.8565C93.7189 46.6677 93.1248 46.5566 92.4975 46.5566H59.6914C56.6539 46.5566 54.1889 49.0459 54.1889 52.1133V64.4825C54.1889 67.5498 56.6539 70.0392 59.6914 70.0392H92.4975C93.1248 70.0392 93.719 69.928 94.2803 69.7391C95.0066 69.4946 95.6559 69.0945 96.2062 68.5833C97.3067 67.572 98 66.105 98 64.4826V52.1133C98 50.4906 97.3067 49.0235 96.2062 48.0123ZM71.1807 59.4036C71.1807 60.9373 69.9481 62.182 68.4294 62.182H66.6026C65.0839 62.182 63.8513 60.9373 63.8513 59.4036V57.5588C63.8513 56.6697 64.2585 55.8805 64.9078 55.3804C65.381 55.0137 65.9644 54.7804 66.6026 54.7804H68.4294C69.9481 54.7804 71.1807 56.025 71.1807 57.5588V59.4036Z" fill="#000000"/>
</svg>
