<svg width="96" height="95" viewBox="0 0 96 95" fill="none" xmlns="http://www.w3.org/2000/svg">
<path d="M71.5233 43.6499C71.2589 43.1005 70.7046 42.7505 70.0951 42.7505H56.3071L66.8763 1.98166C67.0646 1.25969 66.7211 0.504512 66.0561 0.170339C65.3879 -0.166988 64.5789 0.00891213 64.1117 0.589864L24.5273 49.6728C24.1441 50.1478 24.068 50.8002 24.331 51.3511C24.5954 51.9005 25.1496 52.2504 25.7592 52.2504H39.5472L28.9782 93.0193C28.7898 93.7412 29.1333 94.4964 29.7983 94.8306C30.0264 94.9445 30.2685 95 30.5092 95C30.9762 95 31.4338 94.7942 31.7426 94.4111L71.327 45.3282C71.7101 44.8532 71.7862 44.2008 71.5233 43.6499Z" fill="#000000"/>
<path d="M28.7754 24.6579C28.5141 24.1037 27.9567 23.7506 27.344 23.7506H19.9053L25.7085 1.99279C25.9002 1.27231 25.5645 0.517129 24.9026 0.176648C24.2408 -0.165318 23.4301 0.00408792 22.9567 0.577247L0.789248 27.4936C0.399768 27.967 0.319052 28.621 0.580313 29.1751C0.841574 29.7293 1.39898 30.0824 2.01168 30.0824H9.45039L3.64735 51.8404C3.45586 52.5608 3.79152 53.316 4.45321 53.6565C4.68274 53.7753 4.93139 53.8322 5.17688 53.8322C5.63928 53.8322 6.09055 53.6311 6.39931 53.2559L28.5664 26.3393C28.9559 25.8677 29.0366 25.2121 28.7754 24.6579Z" fill="#000000"/>
<path d="M95.2771 65.8242C95.0158 65.27 94.4584 64.9169 93.8457 64.9169H86.407L92.2101 43.1589C92.4017 42.4384 92.0661 41.6832 91.4042 41.3428C90.7423 41.0023 89.9316 41.1702 89.4583 41.7434L67.291 68.6599C66.9015 69.1333 66.8208 69.7873 67.082 70.3414C67.3433 70.8956 67.9007 71.2487 68.5134 71.2487H75.9521L70.1491 93.0066C69.9576 93.7271 70.2933 94.4823 70.9549 94.8228C71.1845 94.9415 71.4331 94.9985 71.6786 94.9985C72.141 94.9985 72.5923 94.7974 72.901 94.4222L95.0683 67.5058C95.4576 67.034 95.5384 66.3784 95.2771 65.8242Z" fill="#000000"/>
</svg>
