<?xml version="1.0" encoding="UTF-8" standalone="no"?>
<svg
   xmlns:dc="http://purl.org/dc/elements/1.1/"
   xmlns:cc="http://creativecommons.org/ns#"
   xmlns:rdf="http://www.w3.org/1999/02/22-rdf-syntax-ns#"
   xmlns:svg="http://www.w3.org/2000/svg"
   xmlns="http://www.w3.org/2000/svg"
   xmlns:sodipodi="http://sodipodi.sourceforge.net/DTD/sodipodi-0.dtd"
   xmlns:inkscape="http://www.inkscape.org/namespaces/inkscape"
   height="460pt"
   viewBox="-67 0 460 460.1814"
   width="460pt"
   version="1.1"
   id="svg6"
   sodipodi:docname="ic_accept_app.svg"
   inkscape:version="1.0.1 (3bc2e813f5, 2020-09-07)">
  <metadata
     id="metadata12">
    <rdf:RDF>
      <cc:Work
         rdf:about="">
        <dc:format>image/svg+xml</dc:format>
        <dc:type
           rdf:resource="http://purl.org/dc/dcmitype/StillImage" />
        <dc:title></dc:title>
      </cc:Work>
    </rdf:RDF>
  </metadata>
  <defs
     id="defs10" />
  <sodipodi:namedview
     pagecolor="#ffffff"
     bordercolor="#666666"
     borderopacity="1"
     objecttolerance="10"
     gridtolerance="10"
     guidetolerance="10"
     inkscape:pageopacity="0"
     inkscape:pageshadow="2"
     inkscape:window-width="825"
     inkscape:window-height="480"
     id="namedview8"
     showgrid="false"
     inkscape:zoom="1.3532609"
     inkscape:cx="306.66667"
     inkscape:cy="306.66667"
     inkscape:window-x="0"
     inkscape:window-y="0"
     inkscape:window-maximized="0"
     inkscape:current-layer="svg6" />
  <path
     d="m301.902344 202.179688h-.667969c-12.808594 0-23.589844 10.886718-23.589844 24.878906v19.394531c0 3.863281-3.136719 7-7 7-3.867187 0-7-3.136719-7-7v-35.8125c0-13.992187-10.160156-25.375-22.964843-25.375-12.875 0-23.035157 11.382813-23.035157 25.375v37.957031c0 3.867188-3.136719 7-7 7-3.867187 0-7-3.132812-7-7v-48.378906c0-13.988281-10.5625-25.039062-23.367187-25.039062h-.710938c-12.484375 0-22.921875 10.480468-22.921875 23.984374v54.476563c0 3.867187-3.136719 7-7 7-3.867187 0-7-3.132813-7-7v-52.898437c0-.171876-.019531-.351563-.019531-.527344 0-.429688.019531-.859375.019531-1.285156v-123.675782c0-13.992187-10.558593-25.371094-23.359375-25.371094-12.804687 0-23.359375 11.375-23.371094 25.355469l-.140624 205.089844c-.003907 2.957031-1.859376 5.59375-4.644532 6.589844-2.78125.996093-5.890625.136719-7.765625-2.148438l-24.488281-29.808593c-6.457031-8.089844-15.988281-13.128907-26.3125-13.914063-10.105469-.667969-20.035156 2.894531-27.410156 9.835937-.085938.078126-.175782.171876-.269532.25l-4.7929682 4.007813 84.9023442 163.160156c13.402343 25.753907 38.746093 41.878907 66.132812 41.878907h98.144531c41.765625 0 75.777344-36.746094 75.820313-81.757813.023437-23.835937.046875-41.714844.066406-56.117187.050781-38.5.066406-52.660157-.03125-95.070313-.03125-13.953125-10.449219-25.054687-23.222656-25.054687zm0 0"
     id="path2" />
  <path
     d="m55.59375 77.703125c3.867188 0 7-3.132813 7-7-.082031-20.21875 10.65625-38.941406 28.152344-49.074219 17.496094-10.132812 39.078125-10.132812 56.574218 0 17.496094 10.132813 28.234376 28.855469 28.148438 49.074219 0 3.867187 3.136719 7 7 7 3.867188 0 7-3.132813 7-7 .097656-25.226563-13.308594-48.582031-35.140625-61.222656s-48.757813-12.640625-70.589844 0-35.238281 35.996093-35.144531 61.222656c0 3.867187 3.136719 7 7 7zm0 0"
     id="path4" />
</svg>
