<?xml version="1.0" encoding="UTF-8" standalone="no"?>
<svg
   xmlns:dc="http://purl.org/dc/elements/1.1/"
   xmlns:cc="http://creativecommons.org/ns#"
   xmlns:rdf="http://www.w3.org/1999/02/22-rdf-syntax-ns#"
   xmlns:svg="http://www.w3.org/2000/svg"
   xmlns="http://www.w3.org/2000/svg"
   xmlns:sodipodi="http://sodipodi.sourceforge.net/DTD/sodipodi-0.dtd"
   xmlns:inkscape="http://www.inkscape.org/namespaces/inkscape"
   version="1.1"
   id="Capa_1"
   x="0px"
   y="0px"
   viewBox="0 0 471.641 471.641"
   style="enable-background:new 0 0 471.641 471.641;"
   xml:space="preserve"
   sodipodi:docname="ic_add_file.svg"
   inkscape:version="1.0.1 (3bc2e813f5, 2020-09-07)"><metadata
   id="metadata43"><rdf:RDF><cc:Work
       rdf:about=""><dc:format>image/svg+xml</dc:format><dc:type
         rdf:resource="http://purl.org/dc/dcmitype/StillImage" /><dc:title></dc:title></cc:Work></rdf:RDF></metadata><defs
   id="defs41" /><sodipodi:namedview
   pagecolor="#ffffff"
   bordercolor="#666666"
   borderopacity="1"
   objecttolerance="10"
   gridtolerance="10"
   guidetolerance="10"
   inkscape:pageopacity="0"
   inkscape:pageshadow="2"
   inkscape:window-width="824"
   inkscape:window-height="480"
   id="namedview39"
   showgrid="false"
   inkscape:zoom="1.7598131"
   inkscape:cx="235.8205"
   inkscape:cy="235.8205"
   inkscape:window-x="0"
   inkscape:window-y="0"
   inkscape:window-maximized="0"
   inkscape:current-layer="Capa_1" />
<g
   id="g6">
	<g
   id="g4">
		<path
       style="fill:#000000;" d="M 431.666,49.412 C 379.974,-1.166 297.336,-1.155 245.657,49.437 L 28.911,266.184 c -39.192,40.116 -38.443,104.407 1.673,143.599 39.456,38.548 102.47,38.548 141.926,0 L 368.777,213.516 c 25.515,-25.515 25.515,-66.884 0,-92.399 -25.515,-25.515 -66.884,-25.515 -92.399,0 L 88.644,308.85 c -6.548,6.78 -6.36,17.584 0.42,24.132 6.614,6.388 17.099,6.388 23.713,0 L 300.51,145.249 c 12.449,-11.926 32.209,-11.501 44.134,0.948 11.565,12.073 11.565,31.114 0,43.187 L 148.378,385.65 c -26.514,26.137 -69.197,25.831 -95.334,-0.683 -25.873,-26.246 -25.873,-68.405 0,-94.651 L 269.79,73.569 c 38.608,-38.622 101.214,-38.633 139.836,-0.026 38.622,38.607 38.633,101.214 0.026,139.836 L 192.905,430.126 c -7.159,6.131 -7.993,16.905 -1.862,24.064 6.131,7.159 16.905,7.993 24.064,1.862 0.668,-0.572 1.29,-1.194 1.862,-1.862 L 433.716,237.443 c 51.357,-52.489 50.44,-136.674 -2.05,-188.031 z"
   id="path2" />
	</g>
</g>
<g
   id="g8">
</g>
<g
   id="g10">
</g>
<g
   id="g12">
</g>
<g
   id="g14">
</g>
<g
   id="g16">
</g>
<g
   id="g18">
</g>
<g
   id="g20">
</g>
<g
   id="g22">
</g>
<g
   id="g24">
</g>
<g
   id="g26">
</g>
<g
   id="g28">
</g>
<g
   id="g30">
</g>
<g
   id="g32">
</g>
<g
   id="g34">
</g>
<g
   id="g36">
</g>
</svg>
