<?xml version="1.0" encoding="UTF-8" standalone="no"?>
<svg
   xmlns:dc="http://purl.org/dc/elements/1.1/"
   xmlns:cc="http://creativecommons.org/ns#"
   xmlns:rdf="http://www.w3.org/1999/02/22-rdf-syntax-ns#"
   xmlns:svg="http://www.w3.org/2000/svg"
   xmlns="http://www.w3.org/2000/svg"
   xmlns:sodipodi="http://sodipodi.sourceforge.net/DTD/sodipodi-0.dtd"
   xmlns:inkscape="http://www.inkscape.org/namespaces/inkscape"
   version="1.1"
   id="Capa_1"
   x="0px"
   y="0px"
   viewBox="0 0 24.303 24.303"
   style="enable-background:new 0 0 24.303 24.303;"
   xml:space="preserve"
   sodipodi:docname="ic_close_app1.svg"
   inkscape:version="1.0.1 (3bc2e813f5, 2020-09-07)"><metadata
   id="metadata41"><rdf:RDF><cc:Work
       rdf:about=""><dc:format>image/svg+xml</dc:format><dc:type
         rdf:resource="http://purl.org/dc/dcmitype/StillImage" /><dc:title></dc:title></cc:Work></rdf:RDF></metadata><defs
   id="defs39" /><sodipodi:namedview
   pagecolor="#ffffff"
   bordercolor="#666666"
   borderopacity="1"
   objecttolerance="10"
   gridtolerance="10"
   guidetolerance="10"
   inkscape:pageopacity="0"
   inkscape:pageshadow="2"
   inkscape:window-width="750"
   inkscape:window-height="480"
   id="namedview37"
   showgrid="false"
   inkscape:zoom="34.152163"
   inkscape:cx="12.1515"
   inkscape:cy="10.980271"
   inkscape:window-x="0"
   inkscape:window-y="0"
   inkscape:window-maximized="0"
   inkscape:current-layer="Capa_1" />
<g
   id="g4">
	<path
   style="fill:#000000"
   d="M 10.269,11.298 V 1.883 C 10.269,0.844 11.113,0 12.152,0 c 1.039,0 1.883,0.844 1.883,1.883 v 9.415 c 0,1.039 -0.844,1.883 -1.883,1.883 -1.039,0 -1.883,-0.844 -1.883,-1.883 z m 9.347,-8.537 c -0.61,-0.483 -1.5,-0.377 -1.983,0.234 -0.483,0.612 -0.378,1.5 0.234,1.984 2.24,1.767 3.524,4.413 3.524,7.261 0,5.094 -4.145,9.239 -9.238,9.239 -5.094,0 -9.239,-4.145 -9.239,-9.239 0,-2.847 1.283,-5.492 3.521,-7.258 C 7.047,4.499 7.152,3.611 6.669,2.998 6.186,2.386 5.299,2.282 4.685,2.764 1.764,5.069 0.089,8.523 0.089,12.24 c 0,6.652 5.412,12.063 12.063,12.063 6.651,0 12.063,-5.412 12.063,-12.063 0,-3.719 -1.677,-7.173 -4.599,-9.479 z"
   id="path2" />
</g>
<g
   id="g6">
</g>
<g
   id="g8">
</g>
<g
   id="g10">
</g>
<g
   id="g12">
</g>
<g
   id="g14">
</g>
<g
   id="g16">
</g>
<g
   id="g18">
</g>
<g
   id="g20">
</g>
<g
   id="g22">
</g>
<g
   id="g24">
</g>
<g
   id="g26">
</g>
<g
   id="g28">
</g>
<g
   id="g30">
</g>
<g
   id="g32">
</g>
<g
   id="g34">
</g>
</svg>
