<svg width="57" height="60" viewBox="0 0 57 60" fill="none" xmlns="http://www.w3.org/2000/svg">
    <path fill-rule="evenodd" clip-rule="evenodd"
          d="M10.5938 0.215295C9.94944 0.658623 9.7092 1.05452 9.64071 1.7859C9.58652 2.36402 9.50723 2.4221 8.72999 2.45343C7.29432 2.51121 6.49021 2.64646 5.55629 2.98718C4.07972 3.52589 2.88844 4.3992 1.79058 5.74774C1.52027 6.07979 1.13262 6.70932 0.889444 7.2112C0.498304 8.01833 0.341423 8.50088 0.0978856 9.64555L0.0164435 10.0283L0.00495189 31.172C-0.00547851 50.368 -0.00211289 52.3354 0.041428 52.53C0.0678072 52.6479 0.122628 52.9172 0.163227 53.1285C0.317227 53.93 0.56783 54.6616 0.933622 55.3777C2.11056 57.6817 4.27769 59.3429 6.74718 59.8339C6.92835 59.8699 7.15842 59.9221 7.25848 59.9499C7.42676 59.9966 9.0214 60.0004 28.4983 60C48.283 59.9996 49.5681 59.9964 49.7533 59.9471C49.8617 59.9182 50.1278 59.859 50.3446 59.8154C51.0347 59.6768 51.9813 59.3272 52.558 58.9981C54.1965 58.0629 55.3357 56.8546 56.1381 55.2004C56.4901 54.4748 56.7069 53.795 56.863 52.928C56.9054 52.6923 56.9536 52.4594 56.9701 52.4106C56.9897 52.3525 57 45.0374 57 31.2435C57 12.8548 56.9944 10.1428 56.9557 9.98957C56.9313 9.89299 56.8707 9.60002 56.8209 9.33854C56.5832 8.08965 56.0707 6.92452 55.2993 5.87919C54.9209 5.36654 54.1114 4.54902 53.6041 4.16734C52.4749 3.31779 51.2205 2.79038 49.8139 2.57389C49.5187 2.52845 48.8639 2.47747 48.2666 2.45343C47.4952 2.42235 47.4147 2.36481 47.3561 1.80255C47.278 1.05403 46.9852 0.574997 46.3862 0.215632C46.2759 0.149429 46.168 0.0738267 46.1465 0.0476153C46.1139 0.00796141 46.0215 0 45.5946 0H45.0818L44.7624 0.216428C44.4031 0.459924 44.2544 0.598514 44.1005 0.833498C43.9452 1.07063 43.8503 1.35592 43.796 1.74897C43.7395 2.1587 43.6837 2.28462 43.5204 2.37112C43.4054 2.43206 43.3554 2.43435 42.1427 2.43435C40.93 2.43435 40.8801 2.43206 40.7651 2.37112C40.5958 2.28143 40.5369 2.14676 40.5025 1.76985C40.4867 1.59641 40.4525 1.3787 40.4266 1.28607C40.321 0.908274 40.0548 0.549306 39.7105 0.320324C39.589 0.239546 39.4313 0.134456 39.3599 0.0867487C39.2307 0.000336826 39.2282 0 38.7325 0C38.4588 0 38.2275 0.0120646 38.2185 0.0267932C38.2095 0.0415524 38.0778 0.127321 37.9258 0.217408C37.4958 0.472295 37.2085 0.824281 37.066 1.27076C37.0391 1.35497 36.9916 1.57841 36.9603 1.76731C36.8955 2.15898 36.8298 2.29313 36.6617 2.37752C36.557 2.43007 36.456 2.43435 35.3205 2.43435C34.1385 2.43435 34.0881 2.43199 33.9732 2.37112C33.8134 2.28648 33.7465 2.1452 33.6945 1.78305C33.5823 1.00112 33.3573 0.640158 32.715 0.211222L32.3986 0H31.9081H31.4176L31.0968 0.215938C30.4495 0.651641 30.2067 1.04907 30.1377 1.7859C30.1039 2.14594 30.0427 2.28278 29.8759 2.37112C29.761 2.43206 29.711 2.43435 28.4983 2.43435C27.2856 2.43435 27.2357 2.43206 27.1207 2.37112C26.9585 2.28526 26.8953 2.14799 26.8585 1.80255C26.8202 1.44233 26.7623 1.23292 26.6307 0.979192C26.4755 0.679843 26.2922 0.490147 25.909 0.232473L25.5634 0H25.0742H24.5849L24.2655 0.216428C23.9061 0.459924 23.7574 0.598514 23.6036 0.833498C23.4483 1.07063 23.3534 1.35592 23.2991 1.74897C23.2425 2.1587 23.1867 2.28462 23.0234 2.37112C22.9084 2.43206 22.8585 2.43435 21.6458 2.43435C20.4331 2.43435 20.3831 2.43206 20.2681 2.37112C20.0986 2.28131 20.0399 2.14679 20.0059 1.76985C19.97 1.3723 19.8911 1.10394 19.7417 0.871406C19.5908 0.636514 19.2921 0.356365 19.0163 0.190921C18.8966 0.119084 18.7903 0.0467273 18.7802 0.0301615C18.7571 -0.00756333 17.7445 -0.0107785 17.7215 0.0267932C17.7125 0.0415524 17.5808 0.127321 17.4288 0.217408C16.9988 0.472295 16.7116 0.824281 16.569 1.27076C16.5422 1.35497 16.4946 1.57841 16.4633 1.76731C16.3985 2.15898 16.3329 2.29313 16.1648 2.37752C16.0601 2.43007 15.959 2.43435 14.8236 2.43435C13.6415 2.43435 13.5911 2.43199 13.4762 2.37112C13.3165 2.28648 13.2495 2.1452 13.1975 1.78305C13.0853 1.00112 12.8604 0.640158 12.218 0.211222L11.9016 0L11.3993 0.00333767L10.897 0.00664471L10.5938 0.215295ZM11.8208 1.05887C12.0084 1.16194 12.1073 1.27321 12.2132 1.50042L12.2918 1.66883V7.62522V13.5816L12.1919 13.7864C11.9814 14.2184 11.5717 14.398 11.1377 14.2486C10.9302 14.1772 10.697 13.9373 10.6212 13.7171C10.5652 13.5548 10.5635 13.3694 10.5635 7.60927C10.5635 2.03938 10.5667 1.66053 10.6162 1.53594C10.8166 1.03018 11.37 0.811053 11.8208 1.05887ZM18.5985 1.0213C18.7569 1.09592 18.9393 1.27566 19.0234 1.43997C19.1605 1.70763 19.1584 1.61252 19.1584 7.62458C19.1584 13.6366 19.1605 13.5415 19.0234 13.8092C18.6892 14.4618 17.8104 14.4618 17.4762 13.8092C17.3392 13.5415 17.3413 13.6366 17.3413 7.62458C17.3413 1.61252 17.3392 1.70763 17.4762 1.43997C17.6931 1.0164 18.1927 0.830038 18.5985 1.0213ZM25.362 1.00056C25.5568 1.06759 25.7989 1.3095 25.8778 1.51597C25.9346 1.6647 25.9364 1.8273 25.9442 7.53094C25.9494 11.3022 25.9416 13.4515 25.9223 13.557C25.8825 13.774 25.81 13.9221 25.6785 14.0549C25.5262 14.2088 25.3629 14.2796 25.1274 14.2941C24.959 14.3045 24.8972 14.2937 24.7589 14.2297C24.5442 14.1305 24.3648 13.9419 24.2774 13.7234L24.2079 13.5497V7.62458C24.2079 2.00165 24.2107 1.69241 24.2622 1.56166C24.4549 1.07262 24.9046 0.843205 25.362 1.00056ZM32.3178 1.05887C32.5054 1.16194 32.6042 1.27321 32.7102 1.50042L32.7887 1.66883V7.62522V13.5816L32.6889 13.7864C32.4783 14.2184 32.0687 14.398 31.6346 14.2486C31.4271 14.1772 31.194 13.9373 31.1181 13.7171C31.0622 13.5548 31.0604 13.3694 31.0604 7.60927C31.0604 2.03938 31.0637 1.66053 31.1131 1.53594C31.3136 1.03018 31.867 0.811053 32.3178 1.05887ZM39.0955 1.0213C39.2538 1.09592 39.4363 1.27566 39.5204 1.43997C39.6574 1.70763 39.6554 1.61252 39.6554 7.62458C39.6554 13.6366 39.6574 13.5415 39.5204 13.8092C39.1862 14.4618 38.3074 14.4618 37.9732 13.8092C37.8361 13.5415 37.8382 13.6366 37.8382 7.62458C37.8382 1.61252 37.8361 1.70763 37.9732 1.43997C38.1901 1.0164 38.6896 0.830038 39.0955 1.0213ZM45.859 1.00056C46.0538 1.06759 46.2958 1.3095 46.3747 1.51597C46.4316 1.6647 46.4334 1.8273 46.4412 7.53094C46.4464 11.3022 46.4385 13.4515 46.4192 13.557C46.3795 13.774 46.307 13.9221 46.1754 14.0549C46.0231 14.2088 45.8599 14.2796 45.6244 14.2941C45.456 14.3045 45.3942 14.2937 45.2558 14.2297C45.0412 14.1305 44.8618 13.9419 44.7744 13.7234L44.7049 13.5497V7.62458C44.7049 2.00165 44.7076 1.69241 44.7592 1.56166C44.9519 1.07262 45.4016 0.843205 45.859 1.00056ZM9.37898 6.87636C9.45305 6.91558 9.52206 6.98528 9.5609 7.06008C9.62224 7.17813 9.62352 7.2198 9.62352 9.10968C9.62352 10.6738 9.61548 11.0668 9.58101 11.1867C9.55475 11.2779 9.44714 11.4595 9.29963 11.6613C8.86707 12.2531 8.70718 12.6835 8.6779 13.3354C8.65804 13.7775 8.70855 14.1156 8.84648 14.4635C9.1848 15.3167 10.0302 16.0325 10.8809 16.1858C11.1734 16.2384 11.6819 16.2384 11.9743 16.1858C12.7811 16.0404 13.5898 15.3851 13.9486 14.5861C14.1097 14.2273 14.1699 13.908 14.1673 13.4272C14.1653 13.0561 14.1542 12.9624 14.0847 12.7294C13.9801 12.3785 13.8326 12.0869 13.5765 11.7244C13.4621 11.5626 13.3377 11.3628 13.3001 11.2804L13.2317 11.1307V9.15562C13.2317 7.21931 13.233 7.17822 13.2943 7.06008C13.3332 6.98528 13.4022 6.91558 13.4762 6.87636C13.5912 6.81542 13.6412 6.81313 14.8539 6.81313C16.0666 6.81313 16.1165 6.81542 16.2315 6.87636C16.3056 6.91558 16.3746 6.98528 16.4134 7.06008C16.4744 7.17745 16.4763 7.22911 16.4845 9.04682C16.4902 10.2824 16.4821 10.9662 16.4607 11.0703C16.4217 11.2603 16.3396 11.4213 16.1881 11.6053C15.9032 11.9512 15.6765 12.3907 15.5637 12.8156C15.4772 13.1415 15.4833 13.8002 15.5759 14.1468C15.8351 15.1159 16.5948 15.8962 17.518 16.1418C17.8422 16.228 18.4597 16.2515 18.7815 16.1898C19.4684 16.058 20.1339 15.6226 20.5242 15.0496C20.6545 14.8584 20.8687 14.3876 20.928 14.1621C21.154 13.3028 20.9838 12.5206 20.3935 11.7054C20.2593 11.5202 20.1522 11.3366 20.1268 11.248C20.0922 11.1279 20.0842 10.7312 20.0842 9.14031C20.0842 7.21949 20.0855 7.17819 20.1469 7.06008C20.1857 6.98528 20.2547 6.91558 20.3288 6.87636C20.4436 6.81548 20.494 6.81313 21.6761 6.81313C22.8582 6.81313 22.9085 6.81548 23.0234 6.87636C23.0975 6.91558 23.1665 6.98528 23.2053 7.06008C23.2667 7.17825 23.2679 7.21916 23.2679 9.17093V11.1613L23.1887 11.3297C23.1451 11.4223 23.0244 11.6083 22.9205 11.7431C22.1729 12.7123 22.1311 13.9829 22.8128 15.0195C23.1599 15.5474 23.7589 15.9856 24.3595 16.1511C24.6103 16.2202 25.2155 16.2462 25.5212 16.2011C27.1159 15.9656 28.1654 14.3658 27.7692 12.7746C27.6886 12.4508 27.4833 12.0494 27.1998 11.6613C27.0526 11.4598 26.9449 11.2778 26.9186 11.1867C26.8842 11.0668 26.8761 10.6738 26.8761 9.10968C26.8761 7.2198 26.8774 7.17813 26.9387 7.06008C26.9776 6.98528 27.0466 6.91558 27.1207 6.87636C27.2357 6.81542 27.2856 6.81313 28.4983 6.81313C29.711 6.81313 29.761 6.81542 29.8759 6.87636C29.95 6.91558 30.019 6.98528 30.0579 7.06008C30.1192 7.17813 30.1205 7.2198 30.1205 9.10968C30.1205 10.6738 30.1124 11.0668 30.078 11.1867C30.0517 11.2779 29.9441 11.4595 29.7966 11.6613C29.364 12.2531 29.2041 12.6835 29.1749 13.3354C29.155 13.7775 29.2055 14.1156 29.3434 14.4635C29.6818 15.3167 30.5272 16.0325 31.3779 16.1858C31.6703 16.2384 32.1788 16.2384 32.4713 16.1858C33.2781 16.0404 34.0868 15.3851 34.4455 14.5861C34.6066 14.2273 34.6669 13.908 34.6643 13.4272C34.6623 13.0561 34.6512 12.9624 34.5817 12.7294C34.4771 12.3786 34.3271 12.0806 34.0911 11.755C33.8511 11.4238 33.7846 11.2985 33.744 11.101C33.7226 10.9968 33.7146 10.3083 33.7202 9.06216C33.7285 7.22893 33.7303 7.17748 33.7913 7.06008C33.8301 6.98528 33.8991 6.91558 33.9732 6.87636C34.0882 6.81542 34.1382 6.81313 35.3508 6.81313C36.5635 6.81313 36.6135 6.81542 36.7285 6.87636C36.8025 6.91558 36.8716 6.98528 36.9104 7.06008C36.9714 7.17745 36.9732 7.22911 36.9815 9.04682C36.9871 10.2824 36.9791 10.9662 36.9577 11.0703C36.9186 11.2603 36.8366 11.4213 36.6851 11.6053C36.075 12.346 35.8484 13.2538 36.0622 14.1006C36.2437 14.8196 36.6482 15.3982 37.2468 15.7951C37.687 16.0869 38.1886 16.229 38.7784 16.229C40.0533 16.229 41.1077 15.3831 41.4314 14.1006C41.6451 13.2538 41.4185 12.346 40.8085 11.6053C40.657 11.4213 40.575 11.2603 40.5359 11.0703C40.5145 10.9662 40.5065 10.2824 40.5121 9.04682C40.5204 7.22911 40.5222 7.17745 40.5832 7.06008C40.622 6.98528 40.691 6.91558 40.7651 6.87636C40.8801 6.81542 40.93 6.81313 42.1427 6.81313C43.3554 6.81313 43.4054 6.81542 43.5204 6.87636C43.5944 6.91558 43.6635 6.98528 43.7023 7.06008C43.7637 7.17825 43.7649 7.21916 43.7649 9.17093C43.7649 11.4638 43.7966 11.2207 43.4336 11.7125C43.0089 12.288 42.828 12.8145 42.8284 13.4731C42.8287 13.8965 42.8719 14.1251 43.0243 14.5096C43.2045 14.964 43.6166 15.4771 44.0349 15.7677C44.2259 15.9004 44.6305 16.0893 44.8565 16.1513C45.1099 16.2208 45.7129 16.2461 46.0232 16.2003C46.8335 16.0807 47.5728 15.5606 47.9889 14.8173C48.475 13.9493 48.4358 12.7546 47.8953 11.962C47.8082 11.8343 47.6667 11.627 47.5809 11.5013C47.351 11.1646 47.3518 11.1747 47.3633 9.01782C47.3728 7.23073 47.3748 7.1773 47.4357 7.06008C47.4745 6.98528 47.5436 6.91558 47.6176 6.87636C47.7278 6.81799 47.7871 6.81325 48.3889 6.81481C48.9426 6.81625 49.0873 6.82666 49.3497 6.88389C50.2234 7.07454 50.9436 7.47288 51.5299 8.08977C52.0783 8.66685 52.4167 9.31533 52.6103 10.16L52.6783 10.457L52.6876 31.0648C52.6944 46.1455 52.6878 51.7543 52.6629 51.9772C52.452 53.8674 50.9421 55.4092 49.0787 55.6372C48.8733 55.6624 43.3119 55.669 28.3164 55.6618C8.6909 55.6524 7.82506 55.6497 7.60717 55.5967C6.7584 55.3903 5.93246 54.9198 5.4093 54.3446C4.82289 53.6999 4.42926 52.8336 4.33369 51.9772C4.3088 51.7543 4.30216 46.1372 4.30895 31.0342L4.31823 10.3958L4.38299 10.1202C4.67974 8.85682 5.46767 7.82138 6.55203 7.26974C7.24708 6.91616 7.79616 6.79788 8.69873 6.80728C9.20005 6.81251 9.27234 6.81983 9.37898 6.87636ZM19.2656 23.5625C19.1144 23.6168 18.9904 23.753 18.9483 23.9108C18.9263 23.9934 18.9186 25.0518 18.924 27.2573C18.932 30.4659 18.9324 30.4836 18.9957 30.6055C19.0306 30.6728 19.1057 30.7555 19.1624 30.7892C19.2641 30.8496 19.3202 30.8504 23.0102 30.8504C26.7002 30.8504 26.7564 30.8496 26.858 30.7892C26.9148 30.7555 26.9898 30.6728 27.0248 30.6055C27.0882 30.4833 27.0884 30.4747 27.0884 27.1913C27.0884 23.9079 27.0882 23.8992 27.0248 23.777C26.9898 23.7097 26.9148 23.627 26.858 23.5933C26.7565 23.5331 26.6941 23.532 23.0709 23.5255C19.9481 23.5198 19.3684 23.5255 19.2656 23.5625ZM30.2653 23.5465C30.1193 23.5815 30.03 23.6519 29.9658 23.7824C29.9103 23.8953 29.9082 24.0191 29.9082 27.1913C29.9082 30.4747 29.9084 30.4833 29.9718 30.6055C30.0068 30.6728 30.0818 30.7555 30.1386 30.7892C30.2402 30.8496 30.2964 30.8504 33.9864 30.8504C37.6764 30.8504 37.7326 30.8496 37.8342 30.7892C37.8909 30.7555 37.966 30.6728 38.001 30.6055C38.0642 30.4836 38.0646 30.4659 38.0726 27.2573C38.0782 24.9784 38.0707 23.9948 38.0471 23.9062C38.0049 23.7479 37.8546 23.5943 37.6993 23.5507C37.5598 23.5116 30.4275 23.5076 30.2653 23.5465ZM41.1808 23.5465C41.0348 23.5815 40.9456 23.6519 40.8814 23.7824C40.8259 23.8953 40.8238 24.0191 40.8238 27.1913C40.8238 30.4747 40.8239 30.4833 40.8874 30.6055C40.9223 30.6728 40.9974 30.7555 41.0542 30.7892C41.1558 30.8496 41.2119 30.8504 44.9019 30.8504C48.592 30.8504 48.6481 30.8496 48.7497 30.7892C48.8065 30.7555 48.8815 30.6728 48.9165 30.6055C48.9798 30.4836 48.9801 30.4659 48.9881 27.2573C48.9938 24.9784 48.9863 23.9948 48.9626 23.9062C48.9204 23.7479 48.7701 23.5943 48.6148 23.5507C48.4754 23.5116 41.3431 23.5076 41.1808 23.5465ZM8.37353 33.4061C8.2273 33.4416 8.13821 33.5119 8.07408 33.6423C8.01878 33.7548 8.0162 33.8867 8.0085 36.9851C8.00286 39.2641 8.01035 40.2476 8.03397 40.3362C8.07678 40.4968 8.22824 40.6495 8.38763 40.6929C8.47666 40.7171 9.56484 40.7245 12.1759 40.7186C15.7771 40.7105 15.8411 40.7093 15.9425 40.6491C15.9992 40.6154 16.0743 40.5327 16.1092 40.4654C16.1727 40.3432 16.1728 40.3346 16.1728 37.0512C16.1728 33.7677 16.1727 33.7591 16.1092 33.6369C16.0743 33.5696 15.9992 33.4869 15.9425 33.4532C15.841 33.393 15.7803 33.3919 12.1553 33.3872C10.1291 33.3845 8.42732 33.393 8.37353 33.4061ZM19.2891 33.4061C19.1428 33.4416 19.0538 33.5119 18.9896 33.6423C18.9343 33.7548 18.9317 33.8867 18.924 36.9851C18.9184 39.2641 18.9259 40.2476 18.9495 40.3362C18.9923 40.4968 19.1438 40.6495 19.3032 40.6929C19.3922 40.7171 20.4804 40.7245 23.0914 40.7186C26.6927 40.7105 26.7566 40.7093 26.858 40.6491C26.9148 40.6154 26.9898 40.5327 27.0248 40.4654C27.0882 40.3432 27.0884 40.3346 27.0884 37.0512C27.0884 33.7677 27.0882 33.7591 27.0248 33.6369C26.9898 33.5696 26.9148 33.4869 26.858 33.4532C26.7565 33.393 26.6958 33.3919 23.0709 33.3872C21.0447 33.3845 19.3429 33.393 19.2891 33.4061ZM30.2653 33.4061C30.119 33.4416 30.0299 33.5119 29.9658 33.6423C29.9103 33.7552 29.9082 33.879 29.9082 37.0512C29.9082 40.3346 29.9084 40.3432 29.9718 40.4654C30.0068 40.5327 30.0818 40.6154 30.1386 40.6491C30.24 40.7093 30.304 40.7105 33.9052 40.7186C36.5162 40.7245 37.6044 40.7171 37.6934 40.6929C37.8528 40.6495 38.0043 40.4968 38.0471 40.3362C38.0707 40.2476 38.0782 39.2641 38.0726 36.9851C38.0646 33.7765 38.0642 33.7588 38.001 33.6369C37.966 33.5696 37.8909 33.4869 37.8342 33.4532C37.7327 33.393 37.672 33.3919 34.047 33.3872C32.0208 33.3845 30.319 33.393 30.2653 33.4061ZM41.1808 33.4061C41.0346 33.4416 40.9455 33.5119 40.8814 33.6423C40.8259 33.7552 40.8238 33.879 40.8238 37.0512C40.8238 40.3346 40.8239 40.3432 40.8874 40.4654C40.9223 40.5327 40.9974 40.6154 41.0542 40.6491C41.1555 40.7093 41.2195 40.7105 44.8207 40.7186C47.4318 40.7245 48.52 40.7171 48.609 40.6929C48.7684 40.6495 48.9198 40.4968 48.9626 40.3362C48.9863 40.2476 48.9938 39.2641 48.9881 36.9851C48.9801 33.7765 48.9798 33.7588 48.9165 33.6369C48.8815 33.5696 48.8065 33.4869 48.7497 33.4532C48.6482 33.393 48.5875 33.3919 44.9626 33.3872C42.9364 33.3845 41.2346 33.393 41.1808 33.4061ZM8.37353 43.2047C8.2273 43.2403 8.13821 43.3106 8.07408 43.441C8.0186 43.5538 8.0165 43.6777 8.0165 46.8498C8.0165 50.1332 8.01666 50.1419 8.08012 50.264C8.11508 50.3314 8.19012 50.4141 8.24688 50.4478C8.34852 50.5081 8.40464 50.509 12.0947 50.509C15.7847 50.509 15.8408 50.5081 15.9425 50.4478C15.9992 50.4141 16.0743 50.3314 16.1092 50.264C16.1727 50.1419 16.1728 50.1332 16.1728 46.8498C16.1728 43.5664 16.1727 43.5578 16.1092 43.4356C16.0743 43.3682 15.9992 43.2855 15.9425 43.2519C15.841 43.1916 15.7803 43.1905 12.1553 43.1858C10.1291 43.1832 8.42732 43.1917 8.37353 43.2047ZM19.2891 43.2047C19.1428 43.2403 19.0538 43.3106 18.9896 43.441C18.9343 43.5535 18.9317 43.6854 18.924 46.7838C18.9184 49.0627 18.9259 50.0463 18.9495 50.1349C18.9923 50.2955 19.1438 50.4482 19.3032 50.4915C19.3922 50.5157 20.4804 50.5231 23.0914 50.5173C26.6927 50.5091 26.7566 50.508 26.858 50.4478C26.9148 50.4141 26.9898 50.3314 27.0248 50.264C27.0882 50.1419 27.0884 50.1332 27.0884 46.8498C27.0884 43.5664 27.0882 43.5578 27.0248 43.4356C26.9898 43.3682 26.9148 43.2855 26.858 43.2519C26.7565 43.1916 26.6958 43.1905 23.0709 43.1858C21.0447 43.1832 19.3429 43.1917 19.2891 43.2047ZM30.2653 43.2047C30.119 43.2403 30.0299 43.3106 29.9658 43.441C29.9103 43.5538 29.9082 43.6777 29.9082 46.8498C29.9082 50.1332 29.9084 50.1419 29.9718 50.264C30.0068 50.3314 30.0818 50.4141 30.1386 50.4478C30.24 50.508 30.304 50.5091 33.9052 50.5173C36.5162 50.5231 37.6044 50.5157 37.6934 50.4915C37.8528 50.4482 38.0043 50.2955 38.0471 50.1349C38.0707 50.0463 38.0782 49.0627 38.0726 46.7838C38.0646 43.5752 38.0642 43.5574 38.001 43.4356C37.966 43.3682 37.8909 43.2855 37.8342 43.2519C37.7327 43.1916 37.672 43.1905 34.047 43.1858C32.0208 43.1832 30.319 43.1917 30.2653 43.2047Z"
          fill="#000000"/>
</svg>
