<?xml version="1.0" encoding="UTF-8" standalone="no"?>
<svg
   xmlns:dc="http://purl.org/dc/elements/1.1/"
   xmlns:cc="http://creativecommons.org/ns#"
   xmlns:rdf="http://www.w3.org/1999/02/22-rdf-syntax-ns#"
   xmlns:svg="http://www.w3.org/2000/svg"
   xmlns="http://www.w3.org/2000/svg"
   xmlns:xlink="http://www.w3.org/1999/xlink"
   xmlns:sodipodi="http://sodipodi.sourceforge.net/DTD/sodipodi-0.dtd"
   xmlns:inkscape="http://www.inkscape.org/namespaces/inkscape"
   width="210mm"
   height="297mm"
   viewBox="0 0 210 297"
   version="1.1"
   id="svg8"
   inkscape:version="1.0.1 (3bc2e813f5, 2020-09-07)"
   sodipodi:docname="ic_counter.svg">
  <defs
     id="defs2" />
  <sodipodi:namedview
     id="base"
     pagecolor="#ffffff"
     bordercolor="#666666"
     borderopacity="1.0"
     inkscape:pageopacity="0.0"
     inkscape:pageshadow="2"
     inkscape:zoom="0.49497475"
     inkscape:cx="1076.674"
     inkscape:cy="444.00415"
     inkscape:document-units="mm"
     inkscape:current-layer="layer1"
     inkscape:document-rotation="0"
     showgrid="false"
     inkscape:window-width="1680"
     inkscape:window-height="997"
     inkscape:window-x="-8"
     inkscape:window-y="-8"
     inkscape:window-maximized="1" />
  <metadata
     id="metadata5">
    <rdf:RDF>
      <cc:Work
         rdf:about="">
        <dc:format>image/svg+xml</dc:format>
        <dc:type
           rdf:resource="http://purl.org/dc/dcmitype/StillImage" />
        <dc:title></dc:title>
      </cc:Work>
    </rdf:RDF>
  </metadata>
  <g
     inkscape:label="Слой 1"
     inkscape:groupmode="layer"
     id="layer1">
    <image
       sodipodi:absref="D:\NIC\XamarinNIC\xamarinJKH.Android\Resources\drawable\ic_counter.png"
       xlink:href="NIC/XamarinNIC/xamarinJKH.Android/Resources/drawable/ic_counter.png"
       y="-41.508686"
       x="233.42525"
       id="image36"
       preserveAspectRatio="none"
       height="296.83301"
       width="210.94502" />
    <path
       style="fill:#000000;stroke-width:0.715799"
       d="m 14.442574,295.31317 c -2.07757,-0.59811 -4.8153003,-1.92988 -6.0838403,-2.95949 -2.34572,-1.90388 -5.31545,-5.69734 -5.11716,-6.53652 0.06,-0.25406 -0.3518,-0.95246 -0.91519,-1.55198 -0.5634,-0.59952 -1.21331,-2.49824 -1.44426005,-4.21938 -0.23094,-1.72113 -0.32758,-62.10828 -0.21475,-134.19366 l 0.20515,-131.064313 1.48992005,-2.953562 c 2.31009,-4.5794434 5.5568,-7.7775854 10.1463803,-9.9945914 2.84662,-1.37506496 5.65823,-1.41802996 92.795366,-1.41802996 88.87376,0 89.89407,0.01648 92.98234,1.50185296 3.36603,1.618962 10.01216,8.4318304 9.34539,9.5798504 -0.22364,0.385062 -0.0849,0.700113 0.30839,0.700113 0.39326,0 1.00629,1.079896 1.36228,2.399769 0.3883,1.439625 0.67536,54.749193 0.71747,133.241181 0.0691,128.80114 0.0487,130.90246 -1.30724,134.75628 -1.5035,4.27315 -5.12135,9.45278 -6.60254,9.45278 -0.51288,0 -1.04752,0.36717 -1.18809,0.81593 -0.14057,0.44876 -1.49367,1.35556 -3.00689,2.01512 -2.48273,1.08212 -11.38777,1.21465 -91.22332,1.35765 -76.070266,0.13626 -89.001506,0.006 -92.249406,-0.929 z m 10.54291,-15.23812 c 3.21902,-3.43721 1.93336,-10.39364 -2.09431,-11.33186 -1.04258,-0.24285 -2.24515,-0.55287 -2.67237,-0.68891 -1.35195,-0.43051 -5.12763,2.50725 -5.86122,4.56046 -2.55641,7.15502 5.57093,12.86005 10.6279,7.46031 z m 168.085696,1.1287 c 6.66845,-3.38387 3.08474,-14.51564 -4.11669,-12.78731 -3.19523,0.76685 -3.85531,1.31335 -4.94823,4.09678 -1.26707,3.22697 -0.16796,6.63897 2.74814,8.53115 2.65407,1.72217 3.20941,1.73619 6.31678,0.15938 z m -23.00615,-23.93147 c 1.06436,-0.51605 1.86954,-1.67053 2.1294,-3.05316 0.70524,-3.7523 0.45783,-41.35989 -0.29096,-44.22856 -0.46993,-1.80029 -1.21225,-2.83171 -2.2513,-3.12808 -3.02681,-0.86331 -127.315466,-0.51659 -129.123876,0.36021 -1.07317,0.52032 -1.85669,1.67333 -2.13255,3.13816 -0.23983,1.27361 -0.40943,11.74902 -0.37687,23.27871 0.0521,18.45612 0.19952,21.16737 1.23252,22.67139 l 1.17332,1.70831 63.964396,0.0414 c 45.93936,0.0298 64.44669,-0.19241 65.67592,-0.7884 z M 56.037424,248.63611 c 0,-1.68315 2.04914,-2.36285 7.12338,-2.36285 5.3008,0 8.14238,0.78213 8.14238,2.24115 0,0.41445 -3.19246,0.71241 -7.63288,0.71241 -4.19808,0 -7.63288,-0.26582 -7.63288,-0.59071 z m 24.98033,0 c 0,-1.69734 2.05214,-2.36285 7.28593,-2.36285 5.2338,0 7.28593,0.66551 7.28593,2.36285 0,0.32489 -3.27867,0.59071 -7.28593,0.59071 -4.00726,0 -7.28593,-0.26582 -7.28593,-0.59071 z m 22.898636,-0.88607 c 0,-0.98452 0.4626,-1.47678 1.3878,-1.47678 0.92519,0 1.38779,0.49226 1.38779,1.47678 0,0.98452 -0.4626,1.47678 -1.38779,1.47678 -0.9252,0 -1.3878,-0.49226 -1.3878,-1.47678 z m 11.10237,0.88607 c 0,-1.70698 2.05415,-2.36285 7.4003,-2.36285 5.02477,0 5.82691,0.18288 6.47766,1.47678 0.72088,1.43334 0.52771,1.47678 -6.56762,1.47678 -4.02069,0 -7.31034,-0.26582 -7.31034,-0.59071 z m 25.14137,-0.88607 c 0.74444,-1.26847 1.61819,-1.47678 6.19421,-1.47678 5.92986,0 7.52271,0.40759 7.52271,1.92498 0,0.81393 -1.5217,1.02858 -7.2918,1.02858 -7.11811,0 -7.27117,-0.0351 -6.42512,-1.47678 z m -27.20763,-6.33785 c -0.0165,-7.1426 0.27841,-8.22277 1.80192,-6.60157 1.51629,1.61351 1.2319,9.2024 -0.42956,11.46264 l -1.35694,1.84598 -0.0154,-6.70705 z m -41.475846,4.46709 c -1.31109,-0.97962 -1.56127,-1.84713 -1.56127,-5.41388 0,-2.5275 0.40255,-4.82773 0.99414,-5.68066 1.7487,-2.52123 2.55366,-0.37363 2.3317,6.22092 l -0.2033,6.04015 z m 8.29818,-5.03275 c 0.25263,-7.99666 1.51647,-8.80743 1.7906,-1.14867 0.15743,4.39849 -0.0358,5.81695 -0.89597,6.57659 -0.98763,0.87221 -1.07661,0.33235 -0.89463,-5.42792 z m 15.9817,4.69836 c -1.10129,-1.87651 -1.1216,-9.77462 -0.0282,-10.9382 1.62926,-1.73373 1.94291,-0.80394 1.94291,5.75944 0,6.76447 -0.38038,7.79326 -1.91477,5.17876 z m 33.968716,0.10108 c -1.40371,-1.12938 -1.57405,-1.81757 -1.38779,-5.60695 0.15189,-3.0902 0.54844,-4.54403 1.39336,-5.10827 0.64957,-0.43379 1.36539,-0.59252 1.59072,-0.35275 0.22533,0.23978 0.31837,3.11783 0.20676,6.39566 l -0.20293,5.9597 z m 7.49825,-4.86706 c 0,-3.90599 0.29833,-6.42895 0.79916,-6.75833 2.55463,-1.68007 3.87267,9.38915 1.40137,11.76904 -0.69793,0.67212 -1.47856,1.22203 -1.73474,1.22203 -0.25618,0 -0.46579,-2.80473 -0.46579,-6.23274 z m -82.573876,-0.78197 c 0,-3.45198 0.24981,-6.27632 0.55512,-6.27632 1.45982,0 2.22048,2.15004 2.22048,6.27632 0,4.12628 -0.76066,6.27632 -2.22048,6.27632 -0.30531,0 -0.55512,-2.82434 -0.55512,-6.27632 z m 99.366206,5.39025 c -0.46563,-0.49549 -0.83267,-2.87152 -0.83267,-5.39025 0,-4.12628 0.76065,-6.27632 2.22047,-6.27632 0.30532,0 0.55512,2.82434 0.55512,6.27632 0,6.21066 -0.3249,7.11201 -1.94292,5.39025 z M 54.707684,224.46037 c -0.12821,-6.19003 -0.10428,-6.28919 1.29346,-5.36031 2.4523,1.62968 1.71186,11.667 -0.86066,11.667 -0.1662,0 -0.36096,-2.83801 -0.4328,-6.30669 z m 16.04905,5.42985 c -0.47664,-0.50721 -0.84135,-2.86215 -0.84135,-5.43272 0,-3.45803 0.30187,-4.82812 1.26896,-5.75944 0.69793,-0.67212 1.49072,-1.22203 1.76176,-1.22203 0.78682,0 0.17227,12.77434 -0.62809,13.05607 -0.39596,0.13938 -1.09854,-0.14947 -1.56128,-0.64188 z m 8.87323,-5.79756 c 0,-6.03554 0.11971,-6.69173 1.06809,-5.85418 1.35727,1.19866 1.18396,11.85872 -0.20072,12.34625 -0.65187,0.22952 -0.86737,-1.38349 -0.86737,-6.49207 z m 16.09843,5.78833 c -0.46563,-0.49549 -0.83268,-2.87152 -0.83268,-5.39025 0,-4.12628 0.76066,-6.27632 2.22048,-6.27632 0.30531,0 0.55512,2.82434 0.55512,6.27632 0,6.21066 -0.3249,7.11201 -1.94292,5.39025 z m 17.208676,-5.89868 v -6.78474 l 1.38779,1.58514 c 2.37528,2.71303 1.73111,11.98435 -0.83267,11.98435 -0.30532,0 -0.55512,-3.05314 -0.55512,-6.78475 z m 16.10711,5.90791 c -0.47665,-0.50721 -0.84135,-2.86215 -0.84135,-5.43272 0,-3.45803 0.30186,-4.82812 1.26895,-5.75944 0.69793,-0.67212 1.49073,-1.22203 1.76176,-1.22203 0.78682,0 0.17228,12.77434 -0.62809,13.05607 -0.39596,0.13938 -1.09853,-0.14947 -1.56127,-0.64188 z m 8.60051,-0.29114 c -0.23166,-0.64239 -0.42119,-3.79681 -0.42119,-7.00982 v -5.84185 l 1.73475,1.60505 c 1.49709,1.38518 1.73474,2.22408 1.73474,6.12376 0,4.06518 -0.75932,6.29084 -2.14623,6.29084 -0.26449,0 -0.67042,-0.52559 -0.90207,-1.16798 z m 16.37114,0.28191 c -0.46563,-0.49549 -0.83267,-2.87152 -0.83267,-5.39025 0,-4.12628 0.76065,-6.27632 2.22047,-6.27632 0.30532,0 0.55512,2.82434 0.55512,6.27632 0,6.21066 -0.3249,7.11201 -1.94292,5.39025 z M 57.579614,217.80336 c -0.8482,-0.63221 -1.54219,-1.4629 -1.54219,-1.84598 0,-0.39423 3.31278,-0.69652 7.63288,-0.69652 4.19808,0 7.63288,0.28078 7.63288,0.62394 0,0.34318 -0.57103,1.17387 -1.26896,1.84598 -1.72303,1.6593 -10.259,1.70904 -12.45461,0.0726 z m 25.25203,-0.005 c -0.22896,-0.63492 -0.73075,-0.94758 -1.11509,-0.69482 -0.38434,0.253 -0.6988,-0.0582 -0.6988,-0.69135 0,-0.96954 1.14957,-1.15116 7.28593,-1.15116 4.00726,0 7.276,0.2492 7.26387,0.55379 -0.0121,0.30458 -0.43688,1.13527 -0.94388,1.84597 -1.27851,1.79223 -11.15381,1.90763 -11.79203,0.1378 z m 33.019796,0.26855 c -2.14796,-2.28568 -0.95155,-2.80588 6.45325,-2.80588 4.00726,0 7.28593,0.28078 7.28593,0.62394 0,0.34318 -0.57103,1.17387 -1.26896,1.84598 -1.55154,1.49415 -11.13908,1.75245 -12.47022,0.33596 z m 24.60215,-0.46426 c -0.63162,-0.74268 -1.1484,-1.57337 -1.1484,-1.84597 0,-0.27261 3.4348,-0.49565 7.63288,-0.49565 4.3201,0 7.63288,0.30229 7.63288,0.69652 0,3.00488 -11.79227,4.37904 -14.11736,1.6451 z m -77.909066,-33.73 c 3.26399,-1.64817 3.95202,-3.93013 4.01905,-13.32992 0.0701,-9.83665 -0.0572,-10.45386 -2.60333,-12.62185 -1.89907,-1.61698 -2.6141,-1.72416 -11.52483,-1.7276 -5.69041,-0.002 -9.67493,0.29727 -9.936,0.74676 -0.23971,0.41274 -0.73202,0.55566 -1.09401,0.31759 -0.36199,-0.23807 -1.27032,1.00254 -2.01851,2.75692 -1.51756,3.55841 -1.934,14.47514 -0.72352,18.96647 1.35152,5.01463 2.79029,5.6849 12.66932,5.90214 7.00599,0.15406 9.31827,-0.0543 11.21183,-1.01051 z m -11.71833,-4.80498 c -0.23972,-0.41273 -0.703,-0.57474 -1.02951,-0.36 -0.32652,0.21474 -1.59751,-0.58522 -2.82443,-1.7777 -1.78858,-1.73835 -2.2962,-2.89287 -2.56091,-5.82437 -0.30769,-3.40745 -0.1576,-3.85091 2.20574,-6.51715 2.28003,-2.57225 2.88186,-2.86091 5.96477,-2.86091 2.91999,0 3.75285,0.34474 5.61175,2.32283 3.567,3.79572 3.22483,9.86721 -0.76354,13.5481 -0.86448,0.79783 -1.82214,1.28594 -2.12816,1.08468 -0.30601,-0.20125 -0.75251,-0.0282 -0.99223,0.38452 -0.23972,0.41274 -1.0235,0.75044 -1.74174,0.75044 -0.71824,0 -1.50202,-0.3377 -1.74174,-0.75044 z m 47.61802,4.30642 c 1.586416,-0.94879 2.696586,-2.16475 2.696586,-2.95356 0,-0.73744 0.23419,-1.34075 0.52042,-1.34067 0.83142,2.3e-4 0.35253,-17.09339 -0.52793,-18.84403 -1.628986,-3.23896 -4.026336,-3.96949 -13.424126,-4.09065 -8.2139,-0.1059 -8.9817,0.005 -11.21912,1.62676 -1.32098,0.95723 -2.40392,2.3023 -2.40653,2.98903 -0.003,0.68673 -0.3063,1.44694 -0.67488,1.68933 -0.38021,0.25005 -0.59118,3.70303 -0.48766,7.98128 0.20809,8.59887 1.43259,12.32315 4.47242,13.60275 1.03929,0.43747 5.59415,0.83076 10.12192,0.87396 7.25979,0.0693 8.55085,-0.11197 10.9289,-1.5342 z m -13.66661,-4.27137 c -2.70904,-1.16619 -5.14764,-5.06909 -5.14764,-8.23862 0,-6.08371 3.91636,-10.03258 9.20181,-9.27819 7.20559,1.02844 9.81898,11.59442 3.9649,16.03017 -1.13539,0.86031 -2.06434,1.30898 -2.06434,0.99704 0,-0.31193 -0.37471,-0.16842 -0.83268,0.31892 -0.94976,1.01066 -3.01123,1.07935 -5.12205,0.17068 z m 49.484906,4.41862 c 2.30738,-1.98821 3.11508,-6.2851 2.85285,-15.17691 -0.34577,-11.72454 -1.48119,-12.64157 -15.2515,-12.31799 -9.28412,0.21816 -9.34283,0.23957 -12.74323,4.64743 -0.42386,0.54944 -0.55888,4.53012 -0.34695,10.22887 0.30635,8.2378 0.52962,9.57598 1.90822,11.43712 0.8587,1.15926 1.56127,1.88029 1.56127,1.60228 0,-0.278 0.54644,-0.15605 1.21432,0.27101 0.71009,0.45404 4.98063,0.73109 10.28447,0.66721 7.38076,-0.0889 9.3403,-0.34204 10.52055,-1.35902 z m -13.3492,-4.44779 c -0.24159,-0.41597 -0.72993,-0.56515 -1.08521,-0.33149 -0.35527,0.23365 -0.64595,0.15172 -0.64595,-0.18206 0,-0.33378 -0.70257,-0.93488 -1.56127,-1.33576 -1.92752,-0.89988 -3.69296,-5.96011 -3.04212,-8.71955 1.31066,-5.55692 7.46879,-8.6622 12.1116,-6.10736 4.63565,2.55089 5.77521,9.65989 2.23602,13.94926 -1.12862,1.36785 -2.4557,2.51765 -2.94907,2.55512 -0.49336,0.0374 -1.73576,0.26163 -2.76088,0.49814 -1.02512,0.23651 -2.06152,0.0897 -2.30312,-0.3263 z m 49.19242,2.94043 c 2.16058,-2.51075 2.24683,-2.85485 2.41689,-9.64275 0.36396,-14.527 -1.0058,-16.10046 -14.13523,-16.2374 -10.47014,-0.10919 -11.57153,0.19561 -13.43147,3.71713 -1.26406,2.3933 -1.48734,4.00715 -1.48734,10.75065 0,8.87519 1.12494,12.11509 4.71009,13.56527 1.03506,0.41868 5.88797,0.69139 10.78423,0.60601 l 8.90229,-0.15524 z m -15.25981,-3.22252 c -3.082,-1.46884 -5.13225,-4.86951 -5.13225,-8.51266 0,-2.42621 0.47648,-3.58829 2.37532,-5.79314 2.13414,-2.47806 2.72642,-2.75812 5.83303,-2.75812 3.07548,0 3.73339,0.30205 5.95146,2.73236 1.98147,2.17108 2.49164,3.30869 2.48351,5.53793 -0.0248,6.81581 -6.03204,11.40486 -11.51107,8.79363 z m 17.13426,-55.1721 c 0.81336,-1.36677 0.78017,-9.50752 -0.0794,-19.48628 -0.82231,-9.545774 -0.89436,-10.051528 -1.60408,-11.26045 -0.29802,-0.507644 -0.34888,-1.255264 -0.11301,-1.661379 0.23587,-0.406115 0.0461,-0.73839 -0.42165,-0.73839 -0.46777,0 -0.67365,-0.188187 -0.45751,-0.418188 0.21615,-0.230009 -0.38052,-2.47287 -1.32592,-4.984136 -0.9454,-2.511274 -1.79173,-4.898225 -1.88073,-5.30434 -0.089,-0.406115 -0.84427,-1.901355 -1.67837,-3.322757 -0.83411,-1.421402 -1.51773,-2.972022 -1.51916,-3.445823 -0.001,-0.4738 -0.23678,-0.972214 -0.52301,-1.107586 -0.28624,-0.135371 -1.43537,-1.548457 -2.55363,-3.140189 -1.11825,-1.591732 -3.40519,-4.537901 -5.08207,-6.547042 -2.66543,-3.193567 -4.63984,-5.122634 -10.96395,-10.712156 -1.80114,-1.591922 -14.23991,-8.275078 -15.40136,-8.274908 -0.47706,7e-5 -0.86737,-0.276769 -0.86737,-0.615197 0,-0.33843 -0.39032,-0.640564 -0.86738,-0.671411 -0.47705,-0.03085 -3.67766,-0.718402 -7.11245,-1.527903 -3.4348,-0.8095 -6.47927,-1.318445 -6.76551,-1.130989 -0.28623,0.187457 -0.86741,0.112628 -1.29151,-0.166285 -0.98746,-0.649418 -12.413526,-0.844508 -12.413216,-0.211945 1.3e-4,0.261625 -0.70233,0.455523 -1.56103,0.430886 -2.1844,-0.06267 -6.90114,0.831261 -10.54738,1.99898 -1.69604,0.543162 -3.25635,0.803859 -3.46736,0.579324 -0.211,-0.224534 -0.38364,-0.02059 -0.38364,0.453212 0,0.473801 -0.47618,0.861456 -1.05817,0.861456 -1.54787,0 -10.57256,4.9489 -14.30056,7.842046 -1.76853,1.372482 -3.40047,2.495422 -3.62654,2.495422 -0.38156,0 -10.81573,11.120324 -12.76057,13.599709 -0.47706,0.608175 -0.86737,1.435562 -0.86737,1.838638 0,0.403075 -0.49636,1.028452 -1.10302,1.389725 -0.60666,0.361274 -1.06872,0.87968 -1.02679,1.152013 0.1232,0.80022 -2.15812,5.230573 -2.99778,5.821706 -0.4238,0.298369 -0.48796,0.547576 -0.14258,0.553793 0.34538,0.0059 0.1694,0.592787 -0.39108,1.303488 -0.56048,0.710701 -2.03591,4.781079 -3.27873,9.045285 -2.41102,8.272341 -3.81211,20.903711 -3.41021,30.744291 l 0.20697,5.06765 4.85729,0.36919 c 2.6715,0.20306 32.60242,0.33272 66.513136,0.28812 51.82502,-0.0682 61.75326,-0.24475 62.26673,-1.10758 z M 49.098444,109.67101 v -2.95356 h 6.19832 c 6.78903,0 6.50398,0.20082 7.33675,-5.16873 0.94002,-6.06107 5.82393,-17.729763 8.35712,-19.966924 1.69833,-1.49987 1.16588,-2.757512 -3.16997,-7.487369 l -4.17642,-4.555943 1.89038,-2.099655 1.89039,-2.099655 4.69712,4.960002 4.69713,4.960003 1.57882,-1.478789 c 4.98586,-4.669965 11.33421,-7.625665 20.1406,-9.377179 l 3.989916,-0.79356 v -6.874136 -6.874136 h 2.77559 2.77559 v 6.929631 6.92963 l 3.98991,0.525437 c 2.19446,0.28899 4.38024,0.866375 4.85729,1.283078 0.47706,0.416703 0.86737,0.574095 0.86737,0.349762 0,-0.51309 8.16835,2.991402 9.2566,3.971389 0.44271,0.398664 2.31209,1.761134 4.15418,3.02771 l 3.34926,2.302864 4.31982,-4.555939 4.31982,-4.555942 1.52508,1.727455 c 0.83878,0.950101 1.52507,2.028681 1.52507,2.396845 0,0.368163 -1.79068,2.59498 -3.97929,4.948476 -3.42588,3.683986 -3.86179,4.457147 -3.13437,5.559343 4.05509,6.144362 6.67621,12.005448 7.93942,17.753342 0.77564,3.52935 1.52187,6.83236 1.65827,7.34 0.17486,0.65078 2.09624,0.92299 6.51487,0.92299 h 6.26685 v 2.95356 2.95357 h -9.36762 -9.36762 l -0.1187,-3.50736 c -0.17065,-5.04268 -0.20514,-5.27339 -1.51816,-10.15287 -1.23658,-4.595394 -2.37568,-7.476409 -3.56738,-9.022606 -0.38164,-0.495173 -1.74749,-2.488827 -3.03523,-4.430344 -2.90266,-4.376367 -7.57661,-8.4957 -12.57748,-11.085022 -2.09904,-1.086835 -3.97256,-2.014476 -4.16339,-2.061427 -0.19082,-0.04695 -1.59596,-0.457031 -3.12254,-0.911288 -9.10759,-2.710111 -19.922616,-1.141269 -27.940726,4.053121 -8.53217,5.527407 -14.0739,12.953763 -17.22913,23.088376 -1.59859,5.1347 -1.48003,4.41508 -1.58152,9.59907 l -0.0867,4.43035 h -9.36763 -9.36762 z m 51.502856,1.80411 c -0.848206,-0.6322 -1.542186,-1.48662 -1.542186,-1.89872 0,-0.41209 -0.46839,-1.24768 -1.04085,-1.85685 -0.57247,-0.60917 -1.04085,-1.82507 -1.04085,-2.702 0,-1.9659 4.201026,-14.743302 5.051996,-15.365632 0.33974,-0.248469 0.5997,-0.746882 0.57768,-1.107586 -0.0682,-1.117096 2.23371,-8.40967 2.65034,-8.396439 0.36025,0.01145 5.46814,14.20157 5.90133,16.394387 0.10271,0.51991 0.70097,2.18066 1.32947,3.69054 1.42138,3.41465 1.45717,6.04455 0.10189,7.48673 -0.57247,0.60917 -1.04085,1.44476 -1.04085,1.85685 0,1.50433 -3.16301,3.04818 -6.24508,3.04818 -1.73838,0 -3.85469,-0.51726 -4.70289,-1.14946 z m 7.34853,-4.94861 c 0.50098,-0.71419 0.81324,-2.37556 0.6939,-3.69195 -0.19597,-2.16144 -0.45815,-2.41494 -2.70503,-2.61536 -2.64417,-0.23586 -3.86972,0.70961 -4.1162,3.17549 -0.26841,2.68527 -0.003,3.36363 1.57347,4.03166 2.13353,0.9037 3.47459,0.63871 4.55386,-0.89984 z M 23.424214,28.156448 c 0,0.189034 0.73947,-0.415643 1.64328,-1.343728 0.9038,-0.928084 1.50988,-1.936633 1.34684,-2.241219 -0.16304,-0.304586 -0.0408,-0.553793 0.27165,-0.553793 0.31245,0 0.56507,-1.079896 0.56138,-2.399769 -0.009,-3.153393 -3.60931,-7.203662 -6.39087,-7.189225 -3.53563,0.01835 -4.74844,0.784159 -6.35939,4.015548 -1.49295,2.994695 -1.52629,3.339146 -0.52303,5.403643 1.5715,3.2338 4.98937,5.326206 7.4657,4.570468 1.09144,-0.333094 1.98444,-0.45096 1.98444,-0.261925 z M 194.09492,26.99266 c 2.65307,-2.010288 3.29564,-5.265275 1.75646,-8.897434 -1.83079,-4.32031 -6.52109,-5.036545 -10.18284,-1.554981 -6.17485,5.870987 1.65489,15.583305 8.42638,10.452415 z"
       id="path40" />
  </g>
</svg>
