<svg width="76" height="75" viewBox="0 0 76 75" fill="none" xmlns="http://www.w3.org/2000/svg">
    <path d="M53.7771 5.29176C49.4283 5.29176 45.3899 6.58313 41.9866 8.77916C42.4641 5.87299 42.3582 3.16603 41.1493 1.48795C37.0686 -4.13689 30.2385 8.08777 27.1009 6.83859C23.9563 5.5894 17.2743 -0.937761 12.8432 1.72467C9.00712 4.02617 15.2493 19.4804 18.2645 21.714C18.2645 21.714 23.1284 22.8671 27.9029 22.8671C29.6857 22.8671 31.2333 22.771 32.4823 22.6514C32.2471 23.7952 32.1295 24.9811 32.0871 26.1857C30.6359 26.3146 29.1613 26.406 27.6536 26.406C23.8952 26.406 20.2802 25.9982 16.891 25.2529C10.9334 30.0458 0.5 47.082 0.5 54.5068C0.5 67.8986 12.3399 75 26.9504 75C41.5538 75 53.3937 67.8986 53.3937 54.5092C53.3937 52.899 52.9257 50.8296 52.1448 48.5046C52.6834 48.5492 53.2244 48.5867 53.7747 48.5867C65.7557 48.5867 75.5 38.8744 75.5 26.938C75.5023 15.0063 65.7534 5.29176 53.7771 5.29176ZM35.2058 58.6809C34.9024 59.3301 34.4838 59.902 33.9569 60.3918C33.423 60.8816 32.7951 61.2801 32.0636 61.5824C31.3321 61.8847 30.5442 62.0675 29.6881 62.1191V63.9097H25.7062V61.5847C25.4945 61.4887 25.2922 61.4019 25.0947 61.3152C24.8924 61.2332 24.6995 61.1418 24.5114 61.0504V61.9246H20.5295V55.9716H24.5114C24.8524 56.3513 25.1864 56.6817 25.5227 56.9513C25.8544 57.2255 26.1931 57.4599 26.5482 57.6286C26.8963 57.8114 27.2867 57.9497 27.7101 58.027C28.1381 58.1137 28.6297 58.1606 29.1754 58.1606C29.8974 58.1606 30.4948 58.013 30.9676 57.72C31.445 57.427 31.6802 57.0427 31.6802 56.5716C31.6802 56.1779 31.5603 55.8357 31.3133 55.5427C31.0664 55.2498 30.7488 54.999 30.3584 54.7927C29.9727 54.5865 29.5446 54.4224 29.0813 54.2982C28.6179 54.174 28.157 54.0732 27.6983 54.0006C26.0849 53.7568 24.796 53.3772 23.8293 52.8662C22.8603 52.3577 22.1194 51.8022 21.5973 51.1952C21.0775 50.5905 20.7341 49.9741 20.5718 49.3366C20.4119 48.7038 20.3319 48.146 20.3319 47.6515C20.3319 46.932 20.466 46.2547 20.727 45.6102C20.9928 44.9727 21.3691 44.3962 21.8536 43.9016C22.3358 43.3977 22.905 42.9829 23.5588 42.6524C24.215 42.3196 24.9324 42.1017 25.7085 41.9915V40.1166H29.6904V42.2751C30.2784 42.4415 30.8076 42.6689 31.2851 42.9501V42.0923H35.2623V48.0476H31.2522C30.9299 47.6937 30.6171 47.3703 30.3161 47.0961C30.015 46.8265 29.6904 46.5969 29.3471 46.4211C29.006 46.2453 28.6344 46.1024 28.2252 46.0063C27.8159 45.9102 27.3385 45.861 26.7881 45.861C25.9931 45.861 25.3816 46.0484 24.9559 46.4281C24.5302 46.8078 24.3185 47.2109 24.3185 47.6492C24.3185 48.8726 25.6427 49.6905 28.3004 50.089C29.9445 50.3327 31.2639 50.7311 32.2376 51.2936C33.2114 51.8467 33.9593 52.4514 34.4697 53.1053C34.9801 53.7521 35.3093 54.3967 35.4528 55.0248C35.5916 55.6599 35.6645 56.1755 35.6645 56.5716C35.6621 57.3239 35.5093 58.0247 35.2058 58.6809ZM55.5881 43.5477L53.7747 41.3962L51.959 43.5477C44.1857 42.7134 37.9929 36.5589 37.1204 28.8177L39.5147 26.8162L37.158 24.8381C38.127 17.193 44.2868 11.1416 52.0037 10.333L53.7724 12.4306L55.5411 10.333C63.2485 11.1439 69.4084 17.186 70.3868 24.8217L67.8466 26.9404L70.3868 29.0684C69.4107 36.6854 63.2815 42.7228 55.5881 43.5477Z"
          fill="#000000"/>
    <path d="M56.1902 26.106C56.1032 25.9279 55.9927 25.7639 55.8633 25.6115L53.7747 13.572L51.5615 25.7521H51.5686C51.244 26.1951 51.0559 26.7365 51.0559 27.3224C51.0559 28.82 52.2765 30.0364 53.7747 30.0364C54.0876 30.0364 54.3863 29.9731 54.6661 29.8723L54.6614 29.8864L62.8887 30.8426L56.1926 26.092L56.1902 26.106Z"
          fill="#000000"/>
</svg>
