<?xml version="1.0" encoding="UTF-8" standalone="no"?>
<svg
   xmlns:dc="http://purl.org/dc/elements/1.1/"
   xmlns:cc="http://creativecommons.org/ns#"
   xmlns:rdf="http://www.w3.org/1999/02/22-rdf-syntax-ns#"
   xmlns:svg="http://www.w3.org/2000/svg"
   xmlns="http://www.w3.org/2000/svg"
   xmlns:sodipodi="http://sodipodi.sourceforge.net/DTD/sodipodi-0.dtd"
   xmlns:inkscape="http://www.inkscape.org/namespaces/inkscape"
   width="30mm"
   height="30mm"
   viewBox="0 0 30 30"
   version="1.1"
   id="svg8"
   inkscape:version="1.0.1 (3bc2e813f5, 2020-09-07)"
   sodipodi:docname="ic_discont.svg">
  <defs
     id="defs2" />
  <sodipodi:namedview
     id="base"
     pagecolor="#ffffff"
     bordercolor="#666666"
     borderopacity="1.0"
     inkscape:pageopacity="0.0"
     inkscape:pageshadow="2"
     inkscape:zoom="2.8"
     inkscape:cx="198.99152"
     inkscape:cy="109.74422"
     inkscape:document-units="mm"
     inkscape:current-layer="layer1"
     inkscape:document-rotation="0"
     showgrid="false"
     inkscape:window-width="1680"
     inkscape:window-height="997"
     inkscape:window-x="-8"
     inkscape:window-y="-8"
     inkscape:window-maximized="1" />
  <metadata
     id="metadata5">
    <rdf:RDF>
      <cc:Work
         rdf:about="">
        <dc:format>image/svg+xml</dc:format>
        <dc:type
           rdf:resource="http://purl.org/dc/dcmitype/StillImage" />
        <dc:title></dc:title>
      </cc:Work>
    </rdf:RDF>
  </metadata>
  <g
     inkscape:label="Слой 1"
     inkscape:groupmode="layer"
     id="layer1">
    <path
       style="fill:#000000;stroke-width:0.264583"
       d="M 10.621131,27.820083 C 10.402849,27.642809 9.7566633,26.916189 9.1851613,26.20537 c -0.666534,-0.829016 -1.472885,-1.475484 -2.248959,-1.803035 -2.738716,-1.155906 -2.929655,-1.416484 -2.929655,-3.998152 0,-1.460788 -0.1099,-1.807079 -0.982686,-3.096405 -1.296496,-1.915253 -1.296496,-2.840184 0,-4.755437 0.872786,-1.289326 0.982686,-1.635617 0.982686,-3.096405 0,-0.9046 0.132214,-1.934906 0.293809,-2.289567 0.303093,-0.665217 0.563717,-0.833696 2.658682,-1.718688 0.836694,-0.35345 1.559174,-0.94615 2.248959,-1.844973 1.4292697,-1.8624089 1.9265727,-2.0960589 3.4763207,-1.633296 1.587778,0.474119 3.287349,0.47226 4.889453,-0.00535 1.551687,-0.4625774 2.017182,-0.2365593 3.563837,1.730401 0.835242,1.062219 1.389796,1.466273 2.737095,1.994276 1.99872,0.783292 2.345617,1.306114 2.357297,3.552776 0.0063,1.214185 0.161481,1.836377 0.659845,2.645834 1.087081,1.765663 1.502277,2.823777 1.348481,3.43655 -0.08051,0.320799 -0.565428,1.27915 -1.077585,2.12967 -0.790334,1.312481 -0.931783,1.788891 -0.935094,3.149465 -0.0055,2.260778 -0.350149,2.783453 -2.352944,3.568342 -1.347299,0.528002 -1.901853,0.932056 -2.737095,1.994275 -1.539163,1.957432 -2.012291,2.189288 -3.563837,1.746449 -2.067843,-0.590198 -2.899115,-0.625254 -4.212739,-0.177658 -1.474316,0.50235 -2.198905,0.524999 -2.739901,0.08564 z m 7.041552,-3.491477 c 4.087108,-1.21374 6.75441,-4.935315 6.744576,-9.410426 -0.0086,-3.892754 -1.870868,-7.031177 -5.174001,-8.719371 -1.655506,-0.84611 -2.008322,-0.926042 -4.087534,-0.926042 -1.915604,0 -2.515089,0.112231 -3.789141,0.709374 -1.8626937,0.873036 -3.6449177,2.663901 -4.6060467,4.628378 -0.931891,1.904717 -1.166434,5.09186 -0.534643,7.265144 1.433137,4.929819 6.6577787,7.875127 11.4467897,6.452943 z M 12.26538,22.848112 C 10.344414,22.087517 8.4467613,20.142955 7.7112913,18.181449 6.1040503,13.89492 7.8715013,9.185538 11.815941,7.244594 c 1.946923,-0.958025 4.732611,-0.921392 6.790739,0.0893 4.939583,2.425699 6.121426,9.194317 2.354497,13.484612 -1.964354,2.237275 -5.869376,3.148711 -8.695797,2.029606 z m 5.646506,-1.402344 c 2.3913,-1.113519 4.086328,-3.823581 4.086328,-6.533348 0,-2.642315 -1.736651,-5.403933 -4.086328,-6.498069 -3.408145,-1.587016 -7.025013,-0.196104 -8.9509147,3.442184 -0.444262,0.83927 -0.576534,1.544416 -0.576534,3.073524 0,1.529108 0.132272,2.234254 0.576534,3.073525 1.9259017,3.638288 5.5427697,5.029199 8.9509147,3.442184 z m -5.174089,-2.664326 c 0,-0.480785 4.144644,-7.820133 4.416151,-7.820133 0.190492,0 0.34635,0.06018 0.34635,0.133721 0,0.529851 -4.090785,7.803779 -4.388767,7.803779 -0.205554,0 -0.373734,-0.05281 -0.373734,-0.117367 z m 3.824432,-0.532064 c -1.386432,-1.386433 -0.501472,-4.113069 1.334944,-4.113069 2.154193,0 2.752887,3.557133 0.752124,4.468741 -0.95443,0.434867 -1.366804,0.364592 -2.087068,-0.355672 z m 1.943391,-1.766997 c 0.06084,-0.937035 -0.02164,-1.259769 -0.354606,-1.387541 -0.599949,-0.230222 -0.846417,-0.02239 -1.04485,0.881069 -0.207296,0.943814 0.267614,1.92728 0.875006,1.812004 0.325906,-0.06185 0.466409,-0.411612 0.52445,-1.305532 z m -7.625895,-1.750759 c -1.1417677,-1.448412 -0.146445,-3.858507 1.593489,-3.858507 1.364159,0 1.962537,0.890048 1.882551,2.800173 -0.07319,1.74775 -2.379137,2.449832 -3.47604,1.058334 z m 2.069739,-0.383646 c 0.804171,-0.804171 0.0866,-2.865518 -0.869755,-2.498529 -0.748549,0.287245 -0.395182,2.816029 0.393505,2.816029 0.08731,0 0.301625,-0.142875 0.47625,-0.3175 z"
       id="path168" />
  </g>
</svg>
