<?xml version="1.0" encoding="UTF-8" standalone="no"?>
<svg
   xmlns:dc="http://purl.org/dc/elements/1.1/"
   xmlns:cc="http://creativecommons.org/ns#"
   xmlns:rdf="http://www.w3.org/1999/02/22-rdf-syntax-ns#"
   xmlns:svg="http://www.w3.org/2000/svg"
   xmlns="http://www.w3.org/2000/svg"
   xmlns:sodipodi="http://sodipodi.sourceforge.net/DTD/sodipodi-0.dtd"
   xmlns:inkscape="http://www.inkscape.org/namespaces/inkscape"
   height="512pt"
   viewBox="0 0 512 512"
   width="512pt"
   version="1.1"
   id="svg10"
   sodipodi:docname="ic_export_pdf.svg"
   inkscape:version="1.0.1 (3bc2e813f5, 2020-09-07)">
  <metadata
     id="metadata16">
    <rdf:RDF>
      <cc:Work
         rdf:about="">
        <dc:format>image/svg+xml</dc:format>
        <dc:type
           rdf:resource="http://purl.org/dc/dcmitype/StillImage" />
        <dc:title></dc:title>
      </cc:Work>
    </rdf:RDF>
  </metadata>
  <defs
     id="defs14" />
  <sodipodi:namedview
     pagecolor="#ffffff"
     bordercolor="#666666"
     borderopacity="1"
     objecttolerance="10"
     gridtolerance="10"
     guidetolerance="10"
     inkscape:pageopacity="0"
     inkscape:pageshadow="2"
     inkscape:window-width="750"
     inkscape:window-height="480"
     id="namedview12"
     showgrid="false"
     inkscape:zoom="1.2158203"
     inkscape:cx="341.33333"
     inkscape:cy="341.33333"
     inkscape:window-x="0"
     inkscape:window-y="0"
     inkscape:window-maximized="0"
     inkscape:current-layer="svg10" />
  <path
     d="m467 0h-350c-24.8125 0-45 20.1875-45 45v76h-35.949219c-19.878906 0-36.050781 16.171875-36.050781 36.050781v197.898438c0 19.878906 16.171875 36.050781 36.050781 36.050781h35.949219v76c0 24.8125 20.1875 45 45 45h350c24.8125 0 45-20.1875 45-45v-422c0-24.8125-20.1875-45-45-45zm-437 354.949219v-197.898438c0-3.335937 2.714844-6.050781 6.050781-6.050781h379.898438c3.335937 0 6.050781 2.714844 6.050781 6.050781v197.898438c0 3.335937-2.714844 6.050781-6.050781 6.050781h-379.898438c-3.335937 0-6.050781-2.714844-6.050781-6.050781zm452 112.050781c0 8.269531-6.730469 15-15 15h-350c-8.269531 0-15-6.730469-15-15v-76h313.949219c19.878906 0 36.050781-16.171875 36.050781-36.050781v-197.898438c0-19.878906-16.171875-36.050781-36.050781-36.050781h-313.949219v-76c0-8.269531 6.730469-15 15-15h350c8.269531 0 15 6.730469 15 15zm0 0"
     id="path2" />
  <path
     d="m90 281h15c27.570312 0 50-22.429688 50-50s-22.429688-50-50-50h-30c-8.285156 0-15 6.714844-15 15v120c0 8.285156 6.714844 15 15 15s15-6.714844 15-15zm0-70h15c11.027344 0 20 8.972656 20 20s-8.972656 20-20 20h-15zm0 0"
     id="path4" />
  <path
     d="m200 331h25c30.328125 0 55-24.671875 55-55v-40c0-30.328125-24.671875-55-55-55h-25c-8.285156 0-15 6.714844-15 15v120c0 8.285156 6.714844 15 15 15zm15-120h10c13.785156 0 25 11.214844 25 25v40c0 13.785156-11.214844 25-25 25h-10zm0 0"
     id="path6" />
  <path
     d="m325 331c8.285156 0 15-6.714844 15-15v-45h30c8.285156 0 15-6.714844 15-15s-6.714844-15-15-15h-30v-30h37c8.285156 0 15-6.714844 15-15s-6.714844-15-15-15h-52c-8.285156 0-15 6.714844-15 15v120c0 8.285156 6.714844 15 15 15zm0 0"
     id="path8" />
</svg>
