<svg width="60" height="60" viewBox="0 0 60 60" fill="none" xmlns="http://www.w3.org/2000/svg">
<path style="fill:#000000" d="M60 42.2443V60H42.2443C40.8879 60 40.2107 58.3607 41.1686 57.4029L47.0121 51.5593L37.3693 41.9164C36.1136 40.6629 36.1136 38.625 37.3693 37.3714C38.625 36.1157 40.6586 36.1157 41.9143 37.3714L51.5571 47.0143L57.4007 41.1707C58.3607 40.2107 60 40.89 60 42.2443Z" fill="#EC313A"/>
<path style="fill:#000000" d="M22.6307 18.0836C23.8864 19.3393 23.8864 21.3729 22.6307 22.6286C21.375 23.8843 19.3414 23.8843 18.0857 22.6286L8.44286 12.9857L2.59929 18.8293C1.63929 19.7893 0 19.11 0 17.7557V0H17.7557C19.1121 0 19.7893 1.63929 18.8314 2.59714L12.9879 8.44071L22.6307 18.0836Z" fill="#EC313A"/>
<path style="fill:#000000" d="M17.7557 60H0V42.2443C0 40.8879 1.63929 40.2107 2.59714 41.1686L8.44071 47.0121L18.0836 37.3693C19.3393 36.1136 21.3729 36.1136 22.6286 37.3693C23.8843 38.6229 23.8843 40.6607 22.6286 41.9143L12.9857 51.5571L18.8293 57.4007C19.7893 58.3607 19.11 60 17.7557 60Z" fill="#EC313A"/>
<path style="fill:#000000" d="M42.2443 0H60V17.7557C60 19.1121 58.3607 19.7893 57.4029 18.8314L51.5593 12.9879L41.9164 22.6307C40.6607 23.8864 38.6271 23.8864 37.3714 22.6307C36.1157 21.375 36.1157 19.3414 37.3714 18.0857L47.0143 8.44286L41.1707 2.59929C40.2107 1.63929 40.89 0 42.2443 0Z" fill="#EC313A"/>
</svg>
