<?xml version="1.0" encoding="UTF-8" standalone="no"?>
<svg
   xmlns:dc="http://purl.org/dc/elements/1.1/"
   xmlns:cc="http://creativecommons.org/ns#"
   xmlns:rdf="http://www.w3.org/1999/02/22-rdf-syntax-ns#"
   xmlns:svg="http://www.w3.org/2000/svg"
   xmlns="http://www.w3.org/2000/svg"
   xmlns:sodipodi="http://sodipodi.sourceforge.net/DTD/sodipodi-0.dtd"
   xmlns:inkscape="http://www.inkscape.org/namespaces/inkscape"
   version="1.1"
   id="Capa_1"
   x="0px"
   y="0px"
   width="770.4px"
   height="770.4px"
   viewBox="0 0 770.4 770.4"
   style="enable-background:new 0 0 770.4 770.4;"
   xml:space="preserve"
   sodipodi:docname="ic_home.svg"
   inkscape:version="1.0.1 (3bc2e813f5, 2020-09-07)"><metadata
   id="metadata41"><rdf:RDF><cc:Work
       rdf:about=""><dc:format>image/svg+xml</dc:format><dc:type
         rdf:resource="http://purl.org/dc/dcmitype/StillImage" /><dc:title></dc:title></cc:Work></rdf:RDF></metadata><defs
   id="defs39" /><sodipodi:namedview
   pagecolor="#ffffff"
   bordercolor="#666666"
   borderopacity="1"
   objecttolerance="10"
   gridtolerance="10"
   guidetolerance="10"
   inkscape:pageopacity="0"
   inkscape:pageshadow="2"
   inkscape:window-width="750"
   inkscape:window-height="480"
   id="namedview37"
   showgrid="false"
   inkscape:zoom="1.0773624"
   inkscape:cx="385.20001"
   inkscape:cy="385.20001"
   inkscape:window-x="0"
   inkscape:window-y="0"
   inkscape:window-maximized="0"
   inkscape:current-layer="Capa_1" />
<g
   id="g4">
	<path style="fill:#000000;"
   d="M770.4,381.95l-42.8,52l-342.4-281.6L42.8,433.95l-42.8-52l385.2-316.8L770.4,381.95z M385.3,217.25l248.4,206v192.601v59   v30.399H136.6v-31.199v-58.2v-193.4L385.3,217.25z M405.601,434.65c-1.727,1.266-20.4,18-20.4,18s-18.699-16.801-20.4-18   c-25.282-17.824-52.5-19-73.3-8.1c-20.5,9.898-32.8,31.698-34.3,56.8c-0.1,0.898-0.1,1.8-0.1,2.7c-0.3,19.1,7.2,36.8,18,52.5   c4.8,7,9.9,13.6,15.2,20c7.8,9.898,94.85,91.767,94.85,91.767s87.149-81.967,94.95-91.767c5.3-6.4,10.398-13.102,15.198-20   c10.802-15.802,18.302-33.4,18-52.5c0-0.9,0-1.802-0.1-2.7c-1.5-25.102-13.8-47-34.3-56.8   C458.101,415.65,430.544,416.354,405.601,434.65z"
   id="path2" />
</g>
<g
   id="g6">
</g>
<g
   id="g8">
</g>
<g
   id="g10">
</g>
<g
   id="g12">
</g>
<g
   id="g14">
</g>
<g
   id="g16">
</g>
<g
   id="g18">
</g>
<g
   id="g20">
</g>
<g
   id="g22">
</g>
<g
   id="g24">
</g>
<g
   id="g26">
</g>
<g
   id="g28">
</g>
<g
   id="g30">
</g>
<g
   id="g32">
</g>
<g
   id="g34">
</g>
</svg>
