<svg width="81" height="75" viewBox="0 0 81 75" fill="none" xmlns="http://www.w3.org/2000/svg">
    <path d="M79.9185 26.6505L42.3693 0.436893C41.5027 -0.145631 40.0585 -0.145631 39.192 0.436893L17.529 15.2913V9.46602C17.529 7.71845 16.3736 6.5534 14.6406 6.5534C12.9075 6.5534 11.7522 7.71845 11.7522 9.46602V19.0777L1.35394 26.3592C-0.0902621 27.233 -0.379103 28.9806 0.487418 30.4369C1.35394 31.8932 3.08698 32.1845 4.53118 31.3107L40.6362 6.26214L76.4524 31.3107C78.1854 32.4757 79.6296 31.6019 80.4962 30.4369C81.3627 29.2718 81.0739 27.5243 79.9185 26.6505Z"
          fill="#000000"/>
    <path d="M68.9426 33.932L42.3693 15C41.5027 14.4175 40.0585 14.4175 38.9032 15L12.3299 33.932C11.4633 34.5146 11.1745 35.3884 11.1745 36.2621V72.0874C11.1745 73.8349 12.3299 75 14.0629 75H31.971C34.5706 75 35.1482 73.8349 35.1482 72.0874V54.6116C35.1482 51.699 37.459 49.3689 40.3474 49.3689C43.2358 49.3689 45.5465 51.699 45.5465 54.6116V72.0874C45.5465 73.5437 46.7019 75 48.4349 75H67.4984C69.2314 75 70.3868 73.8349 70.3868 72.0874V36.2621C70.0979 35.3884 69.8091 34.5146 68.9426 33.932Z"
          fill="#000000"/>
</svg>
