<?xml version="1.0" encoding="UTF-8" standalone="no"?>
<svg
   xmlns:dc="http://purl.org/dc/elements/1.1/"
   xmlns:cc="http://creativecommons.org/ns#"
   xmlns:rdf="http://www.w3.org/1999/02/22-rdf-syntax-ns#"
   xmlns:svg="http://www.w3.org/2000/svg"
   xmlns="http://www.w3.org/2000/svg"
   xmlns:xlink="http://www.w3.org/1999/xlink"
   xmlns:sodipodi="http://sodipodi.sourceforge.net/DTD/sodipodi-0.dtd"
   xmlns:inkscape="http://www.inkscape.org/namespaces/inkscape"
   width="210mm"
   height="210mm"
   viewBox="0 0 210 210"
   version="1.1"
   id="svg8"
   inkscape:version="1.0.1 (3bc2e813f5, 2020-09-07)"
   sodipodi:docname="ic_info_app1.svg">
  <defs
     id="defs2" />
  <sodipodi:namedview
     id="base"
     pagecolor="#ffffff"
     bordercolor="#666666"
     borderopacity="1.0"
     inkscape:pageopacity="0.0"
     inkscape:pageshadow="2"
     inkscape:zoom="0.49497475"
     inkscape:cx="1076.674"
     inkscape:cy="444.00415"
     inkscape:document-units="mm"
     inkscape:current-layer="layer1"
     inkscape:document-rotation="0"
     showgrid="false"
     inkscape:window-width="1680"
     inkscape:window-height="997"
     inkscape:window-x="-8"
     inkscape:window-y="-8"
     inkscape:window-maximized="1" />
  <metadata
     id="metadata5">
    <rdf:RDF>
      <cc:Work
         rdf:about="">
        <dc:format>image/svg+xml</dc:format>
        <dc:type
           rdf:resource="http://purl.org/dc/dcmitype/StillImage" />
        <dc:title></dc:title>
      </cc:Work>
    </rdf:RDF>
  </metadata>
  <g
     inkscape:label="Слой 1"
     inkscape:groupmode="layer"
     id="layer1">
    <image
       width="188.61618"
       height="203.58842"
       preserveAspectRatio="none"
       xlink:href="file:///C:/Users/micha/Downloads/Изображения%20Новые/Изображения%20Новые/ic_info_app1.png"
       id="image68"
       sodipodi:absref="C:\Users\micha\Downloads\Изображения Новые\Изображения Новые\ic_info_app1.png"
       x="365.93005"
       y="44.864578" />
    <path
       style="fill:#000000;stroke-width:2.61652"
       d="m 88.377498,197.51976 c -8.632424,-9.78325 -9.865054,-10.30828 -24.201428,-10.30828 -16.61658,0 -31.411935,-4.92038 -41.052762,-13.65261 C 10.036143,161.70511 9.392493,157.95963 9.392493,93.657558 c 0,-58.46117 0.1849779,-60.574258 6.040491,-69.003236 3.32227,-4.782389 10.074058,-11.332131 15.003974,-14.554983 8.710022,-5.6940338 10.781702,-5.8597298 73.263622,-5.8597298 62.48192,0 64.5536,0.165696 73.26363,5.8597298 17.75103,11.604448 28.10365,37.348269 16.7229,41.584784 -5.45324,2.029983 -11.61783,-2.779183 -11.61783,-9.063375 0,-2.638862 -3.48831,-8.58519 -7.75179,-13.214062 l -7.75178,-8.416131 H 103.70058 40.835453 l -7.751782,8.416131 -7.751783,8.41613 v 56.91256 56.912554 l 9.032325,8.76204 c 8.769666,8.50723 9.651575,8.76203 30.327279,8.76203 h 21.294953 l 8.685483,10.63815 8.685482,10.63815 9.46956,-10.67805 9.46957,-10.67805 20.85404,0.0399 c 20.19735,0.0387 21.13848,-0.23601 29.88637,-8.72214 l 9.03233,-8.76203 v -42.60567 c 0,-40.278517 0.28891,-42.694632 5.28935,-44.234219 2.90915,-0.895697 6.49552,-0.905404 7.9697,-0.02165 4.40656,2.641903 3.47575,87.696069 -1.0521,96.138039 -8.98716,16.75615 -27.4807,26.25341 -51.30598,26.34789 -14.79642,0.0587 -15.64761,0.43728 -23.17573,10.30828 -10.60521,13.90579 -19.10787,13.8893 -31.417022,-0.0608 z m 5.108557,-48.52296 c -6.758237,-7.2443 -6.393544,-57.161956 0.461586,-63.180115 6.373479,-5.595316 14.499849,-5.413081 19.967469,0.447774 6.75824,7.244294 6.39354,57.161951 -0.46159,63.180111 -6.37348,5.59532 -14.499848,5.41308 -19.967465,-0.44777 z m 1.507649,-81.76514 c -11.306807,-7.682602 -4.755569,-26.91309 9.168466,-26.91309 13.09804,0 19.08654,19.546815 8.24529,26.91309 -3.24733,2.206453 -7.16543,4.011733 -8.70688,4.011733 -1.54145,0 -5.459545,-1.80528 -8.706876,-4.011733 z"
       id="path72" />
  </g>
</svg>
