<svg width="72" height="64" viewBox="0 0 72 64" fill="none" xmlns="http://www.w3.org/2000/svg">
    <path fill-rule="evenodd" clip-rule="evenodd"
          d="M4.455 0.0790964C3.25596 0.28877 2.50861 0.67057 1.61515 1.52993C1.01573 2.10648 0.89543 2.26611 0.47257 3.04572L0 3.91709V27.1951V50.4732L0.326742 51.0051C0.953789 52.0259 1.07395 52.1835 1.53387 52.5882C2.08378 53.0722 2.91937 53.4893 3.62109 53.6304C4.04916 53.7164 8.26945 53.7293 36 53.7293C71.4862 53.7293 68.3586 53.7741 69.4664 53.2496C70.208 52.8985 70.9995 52.1689 71.3607 51.5032C71.4917 51.2618 71.6891 50.9336 71.7995 50.7739L72 50.4836V27.2003V3.91709L71.5338 3.06294C70.8552 1.82002 70.1644 1.11483 69.109 0.587444C68.807 0.436587 68.3134 0.245687 68.0124 0.163236L67.4648 0.0134596L36.2109 0.002385C10.8355 -0.00659617 4.8626 0.00785485 4.455 0.0790964ZM37.3203 9.67233C40.9405 10.035 43.6424 11.1413 46.4231 13.3993C48.5881 15.1575 50.5299 18.1926 51.2519 20.947C51.6502 22.4664 51.7092 22.9593 51.7092 24.7623C51.7092 26.5654 51.6502 27.0582 51.2519 28.5776C50.0024 33.3448 46.0681 37.4206 41.1599 39.0324C39.3079 39.6407 38.1407 39.8185 36 39.8185C33.3953 39.8185 31.6389 39.4579 29.383 38.4597C28.7686 38.188 28.4837 38.0993 28.1602 38.0794C27.7558 38.0545 27.6974 38.073 26.7539 38.5253C25.2141 39.2634 24.0781 39.5508 22.7009 39.5508C21.6271 39.5508 21.1986 39.3469 21.2134 38.843C21.2225 38.5356 21.3396 38.3904 22.06 37.793C23.1218 36.9124 23.9124 35.8867 24.0135 35.2587C24.0767 34.8658 23.924 34.5386 23.2422 33.6061C22.5092 32.6034 21.9864 31.7191 21.5667 30.7723C20.1599 27.5983 19.8833 24.2729 20.7495 20.947C21.4645 18.2013 23.4108 15.1583 25.5769 13.3993C28.3179 11.1735 31.0404 10.046 34.5603 9.67881C35.7812 9.55146 36.1063 9.55065 37.3203 9.67233ZM35.7 15.181C35.136 15.3051 34.9212 15.5733 34.7058 16.4227C34.5479 17.0449 34.3475 17.3193 33.8468 17.5986C32.8096 18.1772 32.4261 18.4286 32.1195 18.731C30.9376 19.8965 30.6183 21.6884 31.3417 23.0957C31.5294 23.4607 31.7415 23.7225 32.1996 24.1546C32.8721 24.7888 33.4207 25.1195 34.6809 25.6506C36.1812 26.2828 36.6221 26.5142 36.978 26.856C37.3736 27.2358 37.5081 27.553 37.4574 27.9855C37.4034 28.4455 37.1033 28.8038 36.5412 29.0793C35.7204 29.4817 34.6942 29.4416 33.0765 28.9439C32.7234 28.8353 32.3082 28.7464 32.1535 28.7464C31.5697 28.7464 31.1015 29.3031 31.0277 30.0846C30.9789 30.6017 31.028 30.7803 31.3013 31.0792C31.5918 31.397 32.027 31.6019 32.9167 31.8399C33.3177 31.9472 33.7445 32.0841 33.8653 32.144C34.1675 32.2941 34.4355 32.6176 34.5216 32.9362C34.5613 33.0831 34.6262 33.3235 34.6659 33.4703C34.75 33.7814 35.0186 34.1117 35.3017 34.2524C35.5676 34.3844 36.1666 34.3778 36.4702 34.2394C36.8157 34.0819 37.0321 33.7281 37.1663 33.1015C37.2298 32.8046 37.3241 32.4827 37.3756 32.386C37.5218 32.1122 37.8763 31.8484 38.6381 31.4465C40.2557 30.5929 41.1585 29.2485 41.154 27.6998C41.1505 26.4961 40.7479 25.6032 39.7988 24.6948C39.1372 24.0614 38.6102 23.7433 37.3191 23.1979C35.5237 22.4394 35.0748 22.1582 34.805 21.6228C34.5064 21.0303 34.7408 20.4896 35.4311 20.1787C35.7839 20.0198 35.9071 20.0016 36.6328 20.0016C37.2921 20.0016 37.5912 20.0378 38.2523 20.1976C39.433 20.483 39.7521 20.3887 40.1207 19.6454C40.3753 19.1317 40.3936 18.5563 40.1664 18.2049C39.9802 17.9171 39.4142 17.6122 38.7422 17.4375C37.8058 17.1942 37.497 16.9325 37.2656 16.1863C37.186 15.9294 37.0416 15.6287 36.9448 15.5183C36.6919 15.2296 36.1485 15.0824 35.7 15.181ZM39.3398 47.2931C40.116 47.6942 40.3705 48.5147 39.9551 49.2762C39.8028 49.5555 39.6797 49.6753 39.375 49.841L38.9883 50.0514H36.0703C33.4238 50.0514 33.1217 50.04 32.8229 49.9293C32.4279 49.7829 32.0296 49.3815 31.9269 49.0264C31.6724 48.146 32.1139 47.3926 33.0117 47.1754C33.1277 47.1473 34.5357 47.1296 36.1406 47.136C38.9817 47.1474 39.066 47.1516 39.3398 47.2931ZM27.2666 57.067C26.8768 57.1685 26.5793 57.3574 25.9102 57.9281C24.6977 58.9623 23.506 59.4954 21.3983 59.9464C20.0832 60.2278 19.7269 60.3703 19.2912 60.7887C18.7497 61.3086 18.5963 61.8701 18.8082 62.5556C19.0175 63.2324 19.7089 63.7704 20.5646 63.9223C21.1477 64.0258 50.92 64.0259 51.5085 63.9224C53.2769 63.6115 53.9044 61.7794 52.6158 60.6899C52.2295 60.3635 51.8477 60.2214 50.5138 59.9079C48.4016 59.4116 47.4138 58.935 45.9492 57.7059C45.6785 57.4787 45.3146 57.2285 45.1406 57.1498L44.8242 57.0067L36.2109 56.9938C29.4086 56.9835 27.528 56.9989 27.2666 57.067Z"
          fill="#000000"/>
</svg>
