<?xml version="1.0" encoding="UTF-8" standalone="no"?>
<svg
   xmlns:dc="http://purl.org/dc/elements/1.1/"
   xmlns:cc="http://creativecommons.org/ns#"
   xmlns:rdf="http://www.w3.org/1999/02/22-rdf-syntax-ns#"
   xmlns:svg="http://www.w3.org/2000/svg"
   xmlns="http://www.w3.org/2000/svg"
   xmlns:sodipodi="http://sodipodi.sourceforge.net/DTD/sodipodi-0.dtd"
   xmlns:inkscape="http://www.inkscape.org/namespaces/inkscape"
   version="1.1"
   id="Layer_1"
   x="0px"
   y="0px"
   viewBox="0 0 330 330"
   style="enable-background:new 0 0 330 330;"
   xml:space="preserve"
   sodipodi:docname="ic_info.svg"
   inkscape:version="1.0.1 (3bc2e813f5, 2020-09-07)"><metadata
   id="metadata49"><rdf:RDF><cc:Work
       rdf:about=""><dc:format>image/svg+xml</dc:format><dc:type
         rdf:resource="http://purl.org/dc/dcmitype/StillImage" /><dc:title></dc:title></cc:Work></rdf:RDF></metadata><defs
   id="defs47" /><sodipodi:namedview
   pagecolor="#ffffff"
   bordercolor="#666666"
   borderopacity="1"
   objecttolerance="10"
   gridtolerance="10"
   guidetolerance="10"
   inkscape:pageopacity="0"
   inkscape:pageshadow="2"
   inkscape:window-width="750"
   inkscape:window-height="480"
   id="namedview45"
   showgrid="false"
   inkscape:zoom="2.5151515"
   inkscape:cx="165"
   inkscape:cy="165"
   inkscape:window-x="0"
   inkscape:window-y="0"
   inkscape:window-maximized="0"
   inkscape:current-layer="Layer_1" />
<g
   id="g12">
	<g
   id="g10">
		<g
   id="g8">
			<path
   d="M 165,0.008 C 74.019,0.008 0,74.024 0,164.999 c 0,90.977 74.019,164.992 165,164.992 90.981,0 165,-74.015 165,-164.992 C 330,74.024 255.981,0.008 165,0.008 Z m 0,299.984 C 90.561,299.992 30,239.435 30,165 30,90.565 90.561,30.008 165,30.008 c 74.439,0 135,60.557 135,134.991 0,74.437 -60.561,134.993 -135,134.993 z"
   id="path2" />
			<path
   d="m 165,130.008 c -8.284,0 -15,6.716 -15,15 v 99.983 c 0,8.284 6.716,15 15,15 8.284,0 15,-6.716 15,-15 v -99.983 c 0,-8.283 -6.716,-15 -15,-15 z"
   id="path4" />
			<path
   d="m 165,70.011 c -3.95,0 -7.811,1.6 -10.61,4.39 -2.79,2.79 -4.39,6.66 -4.39,10.61 0,3.95 1.6,7.81 4.39,10.61 2.79,2.79 6.66,4.39 10.61,4.39 3.95,0 7.81,-1.6 10.609,-4.39 2.79,-2.8 4.391,-6.66 4.391,-10.61 0,-3.95 -1.601,-7.82 -4.391,-10.61 C 172.81,71.61 168.95,70.011 165,70.011 Z"
   id="path6" />
		</g>
	</g>
</g>
<g
   id="g14">
</g>
<g
   id="g16">
</g>
<g
   id="g18">
</g>
<g
   id="g20">
</g>
<g
   id="g22">
</g>
<g
   id="g24">
</g>
<g
   id="g26">
</g>
<g
   id="g28">
</g>
<g
   id="g30">
</g>
<g
   id="g32">
</g>
<g
   id="g34">
</g>
<g
   id="g36">
</g>
<g
   id="g38">
</g>
<g
   id="g40">
</g>
<g
   id="g42">
</g>
</svg>
