<?xml version="1.0" encoding="UTF-8" standalone="no"?>
<svg
   xmlns:dc="http://purl.org/dc/elements/1.1/"
   xmlns:cc="http://creativecommons.org/ns#"
   xmlns:rdf="http://www.w3.org/1999/02/22-rdf-syntax-ns#"
   xmlns:svg="http://www.w3.org/2000/svg"
   xmlns="http://www.w3.org/2000/svg"
   xmlns:sodipodi="http://sodipodi.sourceforge.net/DTD/sodipodi-0.dtd"
   xmlns:inkscape="http://www.inkscape.org/namespaces/inkscape"
   viewBox="0 -31 512 512"
   version="1.1"
   id="svg4"
   sodipodi:docname="ic_info_property.svg"
   inkscape:version="1.0.1 (3bc2e813f5, 2020-09-07)">
  <metadata
     id="metadata10">
    <rdf:RDF>
      <cc:Work
         rdf:about="">
        <dc:format>image/svg+xml</dc:format>
        <dc:type
           rdf:resource="http://purl.org/dc/dcmitype/StillImage" />
        <dc:title></dc:title>
      </cc:Work>
    </rdf:RDF>
  </metadata>
  <defs
     id="defs8" />
  <sodipodi:namedview
     pagecolor="#ffffff"
     bordercolor="#666666"
     borderopacity="1"
     objecttolerance="10"
     gridtolerance="10"
     guidetolerance="10"
     inkscape:pageopacity="0"
     inkscape:pageshadow="2"
     inkscape:window-width="752"
     inkscape:window-height="480"
     id="namedview6"
     showgrid="false"
     inkscape:zoom="1.6210938"
     inkscape:cx="256"
     inkscape:cy="256"
     inkscape:window-x="0"
     inkscape:window-y="0"
     inkscape:window-maximized="0"
     inkscape:current-layer="svg4" />
  <path
     d="m 497.09375,60.003906 c -0.0312,0 -0.0625,-0.0039 -0.0937,-0.0039 H 361 V 45 C 361,20.1875 340.8125,0 316,0 H 196 C 171.1875,0 151,20.1875 151,45 V 60 H 15 C 6.6484378,60 0,66.84375 0,75 v 330 c 0,24.8125 20.1875,45 45,45 h 422 c 24.8125,0 45,-20.1875 45,-45 V 75.316406 c 0,-0.01953 0,-0.03906 0,-0.05859 -0.57422,-9.851566 -6.63281,-15.199222 -14.90625,-15.25391 z M 181,45 c 0,-8.269531 6.73047,-15 15,-15 h 120 c 8.26953,0 15,6.730469 15,15 V 60 H 181 Z M 476.1875,90 429.60547,229.74219 C 427.5625,235.87891 421.84375,240 415.37891,240 H 331 v -15 c 0,-8.28516 -6.71484,-15 -15,-15 H 196 c -8.28516,0 -15,6.71484 -15,15 v 15 H 96.621092 c -6.46484,0 -12.183593,-4.12109 -14.22656,-10.25781 L 35.8125,90 Z M 301,240 v 30 h -90 v -30 z m 181,165 c 0,8.26953 -6.73047,15 -15,15 H 45 c -8.269531,0 -15,-6.73047 -15,-15 V 167.43359 l 23.933594,71.79688 C 60.066406,257.63672 77.222656,270 96.621092,270 H 181 v 15 c 0,8.28516 6.71484,15 15,15 h 120 c 8.28516,0 15,-6.71484 15,-15 v -15 h 84.37891 c 19.39843,0 36.55468,-12.36328 42.6875,-30.76953 L 482,167.43359 Z m 0,0"
     id="path2"
     style="stroke-width:1" />
</svg>
