<?xml version="1.0" encoding="UTF-8" standalone="no"?>
<svg
   xmlns:dc="http://purl.org/dc/elements/1.1/"
   xmlns:cc="http://creativecommons.org/ns#"
   xmlns:rdf="http://www.w3.org/1999/02/22-rdf-syntax-ns#"
   xmlns:svg="http://www.w3.org/2000/svg"
   xmlns="http://www.w3.org/2000/svg"
   xmlns:sodipodi="http://sodipodi.sourceforge.net/DTD/sodipodi-0.dtd"
   xmlns:inkscape="http://www.inkscape.org/namespaces/inkscape"
   version="1.1"
   width="512"
   height="512"
   x="0"
   y="0"
   viewBox="0 0 473.6 473.6"
   style="enable-background:new 0 0 512 512"
   xml:space="preserve"
   class=""
   id="svg54"
   sodipodi:docname="ic_monitor.svg"
   inkscape:version="1.0.1 (3bc2e813f5, 2020-09-07)"><metadata
     id="metadata60"><rdf:RDF><cc:Work
         rdf:about=""><dc:format>image/svg+xml</dc:format><dc:type
           rdf:resource="http://purl.org/dc/dcmitype/StillImage" /><dc:title></dc:title></cc:Work></rdf:RDF></metadata><defs
     id="defs58" /><sodipodi:namedview
     pagecolor="#ffffff"
     bordercolor="#666666"
     borderopacity="1"
     objecttolerance="10"
     gridtolerance="10"
     guidetolerance="10"
     inkscape:pageopacity="0"
     inkscape:pageshadow="2"
     inkscape:window-width="750"
     inkscape:window-height="480"
     id="namedview56"
     showgrid="false"
     inkscape:zoom="1.6210938"
     inkscape:cx="256"
     inkscape:cy="256"
     inkscape:window-x="0"
     inkscape:window-y="0"
     inkscape:window-maximized="0"
     inkscape:current-layer="svg54" /><g
     transform="matrix(-1,0,0,1,473.6015625,0)"
     id="g52">
<g
   id="g6">
	<g
   id="g4">
		<path
   d="M266.831,49.723h-9.846v201.846L113.231,395.323l6.892,6.892c38.4,39.385,90.584,61.046,145.723,61.046    c114.215,0,207.754-92.554,207.754-206.769S381.046,49.723,266.831,49.723z M265.846,443.569    c-46.277,0-90.585-16.738-125.046-48.246l134.892-134.892V69.415c98.462,4.923,177.231,87.631,177.231,187.077    C452.923,359.877,369.231,443.569,265.846,443.569z"
   fill="#000000"
   data-original="#000000"
   style=""
   id="path2" />
	</g>
</g>
<g
   id="g12">
	<g
   id="g10">
		<path
   d="M0.984,267.323l0.985,9.846c3.938,47.261,25.6,92.554,59.077,126.031l6.892,6.892l166.4-166.4L0.984,267.323z     M21.662,285.046l158.523-15.754L67.939,381.538C43.323,354.954,27.569,320.492,21.662,285.046z"
   fill="#000000"
   data-original="#000000"
   style=""
   id="path8" />
	</g>
</g>
<g
   id="g18">
	<g
   id="g16">
		<path
   d="M206.769,10.338C92.554,10.338,0,102.892,0,217.108c0,6.892,0,13.785,0.985,20.677l0.985,9.846l214.646-21.662V10.338    H206.769z M196.923,208.246L19.692,225.969c0-2.954,0-5.908,0-8.862c0-100.431,78.769-182.154,177.231-187.077V208.246z"
   fill="#000000"
   data-original="#000000"
   style=""
   id="path14" />
	</g>
</g>
<g
   id="g20">
</g>
<g
   id="g22">
</g>
<g
   id="g24">
</g>
<g
   id="g26">
</g>
<g
   id="g28">
</g>
<g
   id="g30">
</g>
<g
   id="g32">
</g>
<g
   id="g34">
</g>
<g
   id="g36">
</g>
<g
   id="g38">
</g>
<g
   id="g40">
</g>
<g
   id="g42">
</g>
<g
   id="g44">
</g>
<g
   id="g46">
</g>
<g
   id="g48">
</g>
<script
   id="script50" /></g></svg>
