<?xml version="1.0" encoding="UTF-8" standalone="no"?>
<svg
   xmlns:dc="http://purl.org/dc/elements/1.1/"
   xmlns:cc="http://creativecommons.org/ns#"
   xmlns:rdf="http://www.w3.org/1999/02/22-rdf-syntax-ns#"
   xmlns:svg="http://www.w3.org/2000/svg"
   xmlns="http://www.w3.org/2000/svg"
   xmlns:sodipodi="http://sodipodi.sourceforge.net/DTD/sodipodi-0.dtd"
   xmlns:inkscape="http://www.inkscape.org/namespaces/inkscape"
   version="1.1"
   id="Capa_1"
   x="0px"
   y="0px"
   viewBox="0 0 435.2 435.2"
   style="enable-background:new 0 0 435.2 435.2;"
   xml:space="preserve"
   sodipodi:docname="ic_microphone.svg"
   inkscape:version="1.0.1 (3bc2e813f5, 2020-09-07)"><metadata
   id="metadata49"><rdf:RDF><cc:Work
       rdf:about=""><dc:format>image/svg+xml</dc:format><dc:type
         rdf:resource="http://purl.org/dc/dcmitype/StillImage" /><dc:title></dc:title></cc:Work></rdf:RDF></metadata><defs
   id="defs47" /><sodipodi:namedview
   pagecolor="#ffffff"
   bordercolor="#666666"
   borderopacity="1"
   objecttolerance="10"
   gridtolerance="10"
   guidetolerance="10"
   inkscape:pageopacity="0"
   inkscape:pageshadow="2"
   inkscape:window-width="750"
   inkscape:window-height="480"
   id="namedview45"
   showgrid="false"
   inkscape:zoom="1.9071691"
   inkscape:cx="217.60001"
   inkscape:cy="217.60001"
   inkscape:window-x="0"
   inkscape:window-y="0"
   inkscape:window-maximized="0"
   inkscape:current-layer="Capa_1" />
<g
   id="g6">
	<g
   id="g4">
		<path
       style="fill:#000000;"
       d="M356.864,224.768c0-8.704-6.656-15.36-15.36-15.36s-15.36,6.656-15.36,15.36c0,59.904-48.64,108.544-108.544,108.544    c-59.904,0-108.544-48.64-108.544-108.544c0-8.704-6.656-15.36-15.36-15.36c-8.704,0-15.36,6.656-15.36,15.36    c0,71.168,53.248,131.072,123.904,138.752v40.96h-55.808c-8.704,0-15.36,6.656-15.36,15.36s6.656,15.36,15.36,15.36h142.336    c8.704,0,15.36-6.656,15.36-15.36s-6.656-15.36-15.36-15.36H232.96v-40.96C303.616,355.84,356.864,295.936,356.864,224.768z"
   id="path2" />
	</g>
</g>
<g
   id="g12">
	<g
   id="g10">
		<path
       style="fill:#000000;" d="m 217.6,0 c -47.104,0 -85.504,38.4 -85.504,85.504 v 138.752 c 0,47.616 38.4,85.504 85.504,86.016 47.104,0 85.504,-38.4 85.504,-85.504 V 85.504 C 303.104,38.4 264.704,0 217.6,0 Z"
   id="path8" />
	</g>
</g>
<g
   id="g14">
</g>
<g
   id="g16">
</g>
<g
   id="g18">
</g>
<g
   id="g20">
</g>
<g
   id="g22">
</g>
<g
   id="g24">
</g>
<g
   id="g26">
</g>
<g
   id="g28">
</g>
<g
   id="g30">
</g>
<g
   id="g32">
</g>
<g
   id="g34">
</g>
<g
   id="g36">
</g>
<g
   id="g38">
</g>
<g
   id="g40">
</g>
<g
   id="g42">
</g>
</svg>
