<?xml version="1.0" encoding="UTF-8" standalone="no"?>
<svg
   xmlns:dc="http://purl.org/dc/elements/1.1/"
   xmlns:cc="http://creativecommons.org/ns#"
   xmlns:rdf="http://www.w3.org/1999/02/22-rdf-syntax-ns#"
   xmlns:svg="http://www.w3.org/2000/svg"
   xmlns="http://www.w3.org/2000/svg"
   xmlns:sodipodi="http://sodipodi.sourceforge.net/DTD/sodipodi-0.dtd"
   xmlns:inkscape="http://www.inkscape.org/namespaces/inkscape"
   width="30mm"
   height="30mm"
   viewBox="0 0 30 30"
   version="1.1"
   id="svg8"
   inkscape:version="1.0.1 (3bc2e813f5, 2020-09-07)"
   sodipodi:docname="ic_news.svg">
  <defs
     id="defs2" />
  <sodipodi:namedview
     id="base"
     pagecolor="#ffffff"
     bordercolor="#666666"
     borderopacity="1.0"
     inkscape:pageopacity="0.0"
     inkscape:pageshadow="2"
     inkscape:zoom="2.8"
     inkscape:cx="198.99152"
     inkscape:cy="109.74422"
     inkscape:document-units="mm"
     inkscape:current-layer="layer1"
     inkscape:document-rotation="0"
     showgrid="false"
     inkscape:window-width="1680"
     inkscape:window-height="997"
     inkscape:window-x="-8"
     inkscape:window-y="-8"
     inkscape:window-maximized="1" />
  <metadata
     id="metadata5">
    <rdf:RDF>
      <cc:Work
         rdf:about="">
        <dc:format>image/svg+xml</dc:format>
        <dc:type
           rdf:resource="http://purl.org/dc/dcmitype/StillImage" />
        <dc:title></dc:title>
      </cc:Work>
    </rdf:RDF>
  </metadata>
  <g
     inkscape:label="Слой 1"
     inkscape:groupmode="layer"
     id="layer1">
    <path
       style="fill:#000000;stroke-width:0.264583"
       d="M 12.038541,27.549157 C 7.5499579,26.357752 4.1148409,23.135048 2.6165939,18.709822 1.8832859,16.543922 1.9589259,12.490676 2.7721269,10.375447 6.4377929,0.84061954 18.368454,-1.4607824 25.132276,6.0622158 29.755586,11.20445 29.47852,19.04385 24.497419,24.02495 21.133685,27.388685 16.43806,28.716922 12.038541,27.549157 Z m 5.790496,-1.446848 c 4.266166,-0.983526 7.862056,-4.670362 8.79415,-9.01657 C 28.193844,9.7620222 21.883605,2.5521885 14.448588,3.1755136 8.6303169,3.6632966 4.1357659,8.1578476 3.6479829,13.976119 c -0.265832,3.170842 1.004289,6.54495 3.383035,8.987119 1.269143,1.30298 3.7603341,2.729273 5.4716411,3.132702 1.371683,0.323366 3.938055,0.326434 5.326378,0.0064 z m -5.26252,-5.144963 c -0.462015,-0.556695 -0.191327,-1.936205 0.92049,-4.691091 1.354106,-3.355238 1.261425,-3.799345 -0.445123,-2.132945 -0.636777,0.621796 -1.003343,0.834086 -1.003343,0.581069 0,-1.082549 3.168845,-3.075447 4.399173,-2.766654 1.081466,0.27143 1.054925,1.227264 -0.123764,4.457083 -1.218775,3.339666 -1.127981,4.006765 0.35032,2.573938 0.507427,-0.491817 0.991249,-0.825557 1.075161,-0.741645 0.284883,0.284883 -1.48543,2.021668 -2.621054,2.571414 -1.339973,0.64867 -2.100231,0.69301 -2.55186,0.148831 z m 3.327381,-10.336215 c -0.228676,-0.228675 -0.415774,-0.591275 -0.415774,-0.8057758 0,-0.455375 1.163378,-1.6888671 1.592868,-1.6888671 0.732839,0 1.317549,0.5828351 1.317549,1.3133271 0,0.9269608 -0.610597,1.5970898 -1.455209,1.5970898 -0.343013,0 -0.810759,-0.187098 -1.039434,-0.415774 z"
       id="path120" />
  </g>
</svg>
