<?xml version="1.0" encoding="UTF-8" standalone="no"?>
<svg
   xmlns:dc="http://purl.org/dc/elements/1.1/"
   xmlns:cc="http://creativecommons.org/ns#"
   xmlns:rdf="http://www.w3.org/1999/02/22-rdf-syntax-ns#"
   xmlns:svg="http://www.w3.org/2000/svg"
   xmlns="http://www.w3.org/2000/svg"
   xmlns:sodipodi="http://sodipodi.sourceforge.net/DTD/sodipodi-0.dtd"
   xmlns:inkscape="http://www.inkscape.org/namespaces/inkscape"
   width="30mm"
   height="30mm"
   viewBox="0 0 30 30"
   version="1.1"
   id="svg8"
   inkscape:version="1.0.1 (3bc2e813f5, 2020-09-07)"
   sodipodi:docname="ic_notification.svg">
  <defs
     id="defs2" />
  <sodipodi:namedview
     id="base"
     pagecolor="#ffffff"
     bordercolor="#666666"
     borderopacity="1.0"
     inkscape:pageopacity="0.0"
     inkscape:pageshadow="2"
     inkscape:zoom="2.8"
     inkscape:cx="198.99152"
     inkscape:cy="109.74422"
     inkscape:document-units="mm"
     inkscape:current-layer="layer1"
     inkscape:document-rotation="0"
     showgrid="false"
     inkscape:window-width="1680"
     inkscape:window-height="997"
     inkscape:window-x="-8"
     inkscape:window-y="-8"
     inkscape:window-maximized="1" />
  <metadata
     id="metadata5">
    <rdf:RDF>
      <cc:Work
         rdf:about="">
        <dc:format>image/svg+xml</dc:format>
        <dc:type
           rdf:resource="http://purl.org/dc/dcmitype/StillImage" />
        <dc:title></dc:title>
      </cc:Work>
    </rdf:RDF>
  </metadata>
  <g
     inkscape:label="Слой 1"
     inkscape:groupmode="layer"
     id="layer1">
    <path
       style="fill:#000000;stroke-width:0.264583"
       d="m 15.095305,28.067044 c -0.560242,-0.326311 -1.256765,-1.611327 -1.256765,-2.318607 0,-0.702713 0.480947,-0.835197 3.031951,-0.835197 2.417761,0 2.82721,0.217436 2.603526,1.38259 -0.240454,1.25251 -1.300105,2.058142 -2.694994,2.048948 -0.67138,-0.0044 -1.429053,-0.129406 -1.683718,-0.277734 z m 2.654262,-1.525427 c 0.06709,-0.201271 -0.311808,-0.30546 -1.110853,-0.30546 -1.313387,0 -1.563042,0.290035 -0.617361,0.717216 0.648537,0.292955 1.566189,0.07432 1.728214,-0.411756 z M 5.2836797,23.943101 c -0.405604,-0.405603 -0.110826,-0.870318 0.94809,-1.494657 1.948617,-1.148908 2.945499,-2.50993 3.475556,-4.7451 0.1588,-0.66964 0.109702,-0.727604 -0.616319,-0.727604 -1.358557,0 -3.621162,-1.022617 -4.741563,-2.143019 -3.73688899,-3.736889 -2.799524,-9.6444971 1.915836,-12.074284 2.34125,-1.2064272 5.6186103,-0.8893974 7.8718253,0.7614675 0.348714,0.255492 0.5699,0.206305 1.160161,-0.2579945 1.320438,-1.0386565 3.087703,-0.5315754 3.497719,1.0035998 0.132839,0.4973726 0.657807,1.0644424 1.519896,1.6417897 0.964779,0.6461199 1.52445,1.2890511 2.092836,2.4041774 0.703848,1.380893 0.794133,1.8638111 0.972608,5.2022821 0.247156,4.623181 0.713057,6.318778 2.108252,7.672769 0.57523,0.558242 1.403981,1.163319 1.841668,1.344615 0.569252,0.235791 0.795795,0.508792 0.795795,0.958988 V 24.11949 H 16.793054 c -6.233142,0 -11.4123613,-0.07938 -11.5093743,-0.176389 z M 24.240941,21.936677 C 22.726577,20.33674 22.382893,19.066265 22.066617,13.898973 21.791715,9.4076619 21.179551,7.9302109 19.131724,6.8156437 18.288598,6.356757 17.80729,5.9191468 17.80729,5.6114546 c 0,-0.7314952 -0.858274,-1.6604604 -1.357214,-1.4689993 -0.234597,0.090023 -0.60734,0.6239524 -0.828318,1.1865097 -0.29014,0.7386225 -0.700812,1.1753861 -1.477959,1.5718571 -2.004505,1.0226218 -2.940865,3.6726169 -2.952234,8.3551259 -0.0081,3.343791 -0.772222,5.59878 -2.3501963,6.935798 l -0.69137,0.585797 8.4524233,0.0095 8.452423,0.0095 z M 9.9676107,15.057511 c 0.08775,-0.327422 0.1611633,-1.436906 0.1631503,-2.46552 0.0064,-3.3185851 1.188195,-5.8317579 3.241634,-6.8936327 0.744408,-0.3849486 0.758426,-0.4243052 0.322634,-0.90585 C 12.082076,3.0102155 8.6062367,2.7148128 6.2667627,4.1611988 c -2.65845,1.6435932 -3.700048,4.8982921 -2.47726,7.7407372 0.93644,2.176814 3.020944,3.718594 5.057242,3.740531 0.777797,0.0084 0.991786,-0.103297 1.120866,-0.584956 z M 5.0276297,9.7414449 c -0.254173,-0.662366 0.41078,-0.967789 2.107024,-0.967789 h 1.656946 l 0.07607,-2.4473956 c 0.0698,-2.2456488 0.119696,-2.4473958 0.605242,-2.4473958 0.49849,0 0.5291663,0.1763889 0.5291663,3.0427084 v 3.042708 l -2.4154403,0.07565 c -1.889414,0.05918 -2.446707,-0.0058 -2.559012,-0.2984881 z"
       id="path104" />
  </g>
</svg>
