<?xml version="1.0" encoding="UTF-8" standalone="no"?>
<svg
   xmlns:dc="http://purl.org/dc/elements/1.1/"
   xmlns:cc="http://creativecommons.org/ns#"
   xmlns:rdf="http://www.w3.org/1999/02/22-rdf-syntax-ns#"
   xmlns:svg="http://www.w3.org/2000/svg"
   xmlns="http://www.w3.org/2000/svg"
   xmlns:sodipodi="http://sodipodi.sourceforge.net/DTD/sodipodi-0.dtd"
   xmlns:inkscape="http://www.inkscape.org/namespaces/inkscape"
   version="1.1"
   id="Capa_1"
   x="0px"
   y="0px"
   viewBox="0 0 513.64 513.64"
   style="enable-background:new 0 0 513.64 513.64;"
   xml:space="preserve"
   sodipodi:docname="ic_phone.svg"
   inkscape:version="1.0.1 (3bc2e813f5, 2020-09-07)"><metadata
   id="metadata43"><rdf:RDF><cc:Work
       rdf:about=""><dc:format>image/svg+xml</dc:format><dc:type
         rdf:resource="http://purl.org/dc/dcmitype/StillImage" /><dc:title></dc:title></cc:Work></rdf:RDF></metadata><defs
   id="defs41" /><sodipodi:namedview
   pagecolor="#ffffff"
   bordercolor="#000000"
   borderopacity="1"
   objecttolerance="10"
   gridtolerance="10"
   guidetolerance="10"
   inkscape:pageopacity="0"
   inkscape:pageshadow="2"
   inkscape:window-width="750"
   inkscape:window-height="480"
   id="namedview39"
   showgrid="false"
   inkscape:zoom="1.6159177"
   inkscape:cx="256.82001"
   inkscape:cy="256.82001"
   inkscape:window-x="0"
   inkscape:window-y="0"
   inkscape:window-maximized="0"
   inkscape:current-layer="Capa_1" />
<g
   id="g6">
	<g
   id="g4">
		<path 
       style="fill:#000000;"
   d="m 499.66,376.96 -71.68,-71.68 c -25.6,-25.6 -69.12,-15.359 -79.36,17.92 -7.68,23.041 -33.28,35.841 -56.32,30.72 -51.2,-12.8 -120.32,-79.36 -133.12,-133.12 -7.68,-23.041 7.68,-48.641 30.72,-56.32 33.28,-10.24 43.52,-53.76 17.92,-79.36 L 136.14,13.44 c -20.48,-17.92 -51.2,-17.92 -69.12,0 L 18.38,62.08 c -48.64,51.2 5.12,186.88 125.44,307.2 120.32,120.32 256,176.641 307.2,125.44 l 48.64,-48.64 c 17.921,-20.48 17.921,-51.2 0,-69.12 z"
   id="path2" />
	</g>
</g>
<g
   id="g8">
</g>
<g
   id="g10">
</g>
<g
   id="g12">
</g>
<g
   id="g14">
</g>
<g
   id="g16">
</g>
<g
   id="g18">
</g>
<g
   id="g20">
</g>
<g
   id="g22">
</g>
<g
   id="g24">
</g>
<g
   id="g26">
</g>
<g
   id="g28">
</g>
<g
   id="g30">
</g>
<g
   id="g32">
</g>
<g
   id="g34">
</g>
<g
   id="g36">
</g>
</svg>
