<?xml version="1.0" encoding="UTF-8" standalone="no"?>
<svg
   xmlns:dc="http://purl.org/dc/elements/1.1/"
   xmlns:cc="http://creativecommons.org/ns#"
   xmlns:rdf="http://www.w3.org/1999/02/22-rdf-syntax-ns#"
   xmlns:svg="http://www.w3.org/2000/svg"
   xmlns="http://www.w3.org/2000/svg"
   xmlns:sodipodi="http://sodipodi.sourceforge.net/DTD/sodipodi-0.dtd"
   xmlns:inkscape="http://www.inkscape.org/namespaces/inkscape"
   height="512"
   viewBox="0 0 56 56"
   width="512"
   version="1.1"
   id="svg19"
   sodipodi:docname="ic_profile_email.svg"
   inkscape:version="1.0.1 (3bc2e813f5, 2020-09-07)">
  <metadata
     id="metadata25">
    <rdf:RDF>
      <cc:Work
         rdf:about="">
        <dc:format>image/svg+xml</dc:format>
        <dc:type
           rdf:resource="http://purl.org/dc/dcmitype/StillImage" />
        <dc:title></dc:title>
      </cc:Work>
    </rdf:RDF>
  </metadata>
  <defs
     id="defs23" />
  <sodipodi:namedview
     pagecolor="#ffffff"
     bordercolor="#666666"
     borderopacity="1"
     objecttolerance="10"
     gridtolerance="10"
     guidetolerance="10"
     inkscape:pageopacity="0"
     inkscape:pageshadow="2"
     inkscape:window-width="750"
     inkscape:window-height="480"
     id="namedview21"
     showgrid="false"
     inkscape:zoom="1.6210938"
     inkscape:cx="256"
     inkscape:cy="256"
     inkscape:window-x="0"
     inkscape:window-y="0"
     inkscape:window-maximized="0"
     inkscape:current-layer="svg19" />
  <g
     id="Page-1"
     fill="none"
     fill-rule="evenodd">
    <g
       id="015---Email"
       fill="#000000"
       fill-rule="nonzero">
      <path
              fill="#000000"
         id="Shape"
         d="m 29.74,16.769 c -0.848032,-0.867239 -2.169406,-1.064559 -3.2338,-0.4829 -1.113695,0.62807 -2.008709,1.58167 -2.565,2.7329 -0.233774,0.431336 -0.422599,0.885555 -0.5635,1.3555 -0.3886,1.3145 -0.3032,3.03 0.7691,3.8887 1.1723,0.9414 3.15,0.5434 4.2627,-0.4165 0.79066,-0.712325 1.474075,-1.535321 2.029,-2.4434 0.1891,-0.823 0.37,-1.6684 0.5355,-2.47 C 30.94493,18.89263 30.91911,18.84973 30.8968,18.805 30.659577,18.052139 30.265293,17.358187 29.74,16.769 Z" />
      <path
              fill="#000000"
         id="path3"
         d="M 24.1787,1.3794 21.8961,3 h 12.205 l -2.22,-1.5742 C 29.662249,-0.44910356 26.419979,-0.4686353 24.1787,1.3794 Z" />
      <path
              fill="#000000"
         id="path5"
         d="M 49,23.348 55.359,18.063 49,13.555 Z" />
      <path
              fill="#000000"
         id="path7"
         d="M 8.99,5.043 9,25.0105 24.1765,37.6235 c 2.220173,1.83356 5.429398,1.832972 7.6489,-0.0014 L 47,25.01 V 5.0078 C 46.9971,5.0288 46.957,5.0005 46.89,5 H 9.11 C 9.065798,4.99729 9.022418,5.012829 8.99,5.043 Z m 10.772,7.8222 c 0.3374,-0.3286 0.688,-0.643367 1.0518,-0.9443 3.219629,-2.6954608 7.5603,-3.6321929 11.605,-2.5044 3.915754,1.249813 6.621455,4.828357 6.7568,8.9365 0.146615,2.364745 -0.624135,4.694975 -2.1519,6.5059 -1.178302,1.484271 -3.087449,2.185355 -4.9463,1.8164 C 31.317055,26.517605 30.653673,26.057166 30.24,25.4 c -0.06769,-0.119196 -0.125487,-0.243747 -0.1728,-0.3724 -0.1154,0.11 -0.2282,0.2261 -0.3467,0.3294 -1.09349,0.922581 -2.47467,1.434621 -3.9053,1.4478 -1.057028,0.01816 -2.088031,-0.328458 -2.9194,-0.9815 -1.9194,-1.5361 -1.9722,-4.2046 -1.4341,-6.0219 0.181217,-0.605211 0.424544,-1.190056 0.7261,-1.7452 0.750322,-1.513887 1.950071,-2.758969 3.4351,-3.5649 1.849346,-0.959606 4.108844,-0.595708 5.5634,0.896 0.13851,0.146911 0.269095,0.301096 0.3912,0.4619 0.106,-0.57 0.169,-0.9257 0.1713,-0.939 0.06211,-0.351907 0.307243,-0.643946 0.643059,-0.76611 0.335815,-0.122164 0.711295,-0.05589 0.985,0.17385 0.273704,0.229743 0.404052,0.588053 0.341941,0.93996 -0.0371,0.209 -0.9126,5.1572 -1.8086,8.5435 -0.06395,0.187651 -0.0479,0.393346 0.0444,0.5688 0.13828,0.191343 0.346917,0.319907 0.58,0.3574 1.137929,0.189923 2.287361,-0.266592 2.9849,-1.1855 1.186402,-1.419349 1.780845,-3.24096 1.66,-5.0869 -0.09778,-3.270018 -2.242135,-6.124934 -5.3554,-7.13 -3.398273,-0.934758 -7.038914,-0.136323 -9.7341,2.1348 -0.3213,0.2667 -0.6338,0.5459 -0.9336,0.8379 -1.5546,1.5122 -4.0371,4.65 -3.2006,8.68 0.562034,2.815483 2.572876,5.122868 5.2851,6.0645 4.69,1.4961 11.4292,1.6762 14.98,-2.7388 0.348858,-0.420143 0.970258,-0.482723 1.395885,-0.140578 0.425626,0.342145 0.498062,0.962475 0.162715,1.393478 -2.6255,3.2647 -6.6211,4.4326 -10.541,4.4326 -2.241564,-0.0104 -4.468517,-0.361578 -6.6045,-1.0415 -3.412842,-1.141776 -5.94774,-4.031019 -6.6358,-7.5634 -0.7531,-3.6259 0.619,-7.4604 3.7635,-10.519 z" />
      <path
              fill="#000000"
         id="path9"
         d="M 56,54.87 V 20.131 L 35.098,37.503 Z" />
      <path
              fill="#000000"
         id="path11"
         d="M 0,20.131 V 54.869 L 20.902,37.503 Z" />
      <path
              fill="#000000"
         id="path13"
         d="m 33.5334,38.8031 -0.4313,0.3585 c -2.960633,2.446724 -7.241348,2.447353 -10.2027,0.0015 l -0.433,-0.36 L 1.7683,56 h 52.4634 z" />
      <path
              fill="#000000"
         id="path15"
         d="M 0.64,18.063 7,23.349 v -9.794 z" />
    </g>
  </g>
</svg>
