<?xml version="1.0" encoding="UTF-8" standalone="no"?>
<svg
   xmlns:dc="http://purl.org/dc/elements/1.1/"
   xmlns:cc="http://creativecommons.org/ns#"
   xmlns:rdf="http://www.w3.org/1999/02/22-rdf-syntax-ns#"
   xmlns:svg="http://www.w3.org/2000/svg"
   xmlns="http://www.w3.org/2000/svg"
   xmlns:sodipodi="http://sodipodi.sourceforge.net/DTD/sodipodi-0.dtd"
   xmlns:inkscape="http://www.inkscape.org/namespaces/inkscape"
   width="55"
   height="55"
   viewBox="0 0 55 55"
   version="1.1"
   id="svg8"
   inkscape:version="1.0.1 (3bc2e813f5, 2020-09-07)"
   sodipodi:docname="ic_profile_top.svg">
  <defs
     id="defs2" />
  <sodipodi:namedview
     id="base"
     pagecolor="#ffffff"
     bordercolor="#666666"
     borderopacity="1.0"
     inkscape:pageopacity="0.0"
     inkscape:pageshadow="2"
     inkscape:zoom="0.49497475"
     inkscape:cx="1076.674"
     inkscape:cy="444.00415"
     inkscape:document-units="mm"
     inkscape:current-layer="layer1"
     inkscape:document-rotation="0"
     showgrid="false"
     inkscape:window-width="1680"
     inkscape:window-height="997"
     inkscape:window-x="-8"
     inkscape:window-y="-8"
     inkscape:window-maximized="1" />
  <metadata
     id="metadata5">
    <rdf:RDF>
      <cc:Work
         rdf:about="">
        <dc:format>image/svg+xml</dc:format>
        <dc:type
           rdf:resource="http://purl.org/dc/dcmitype/StillImage" />
        <dc:title></dc:title>
      </cc:Work>
    </rdf:RDF>
  </metadata>
  <g
     inkscape:label="Слой 1"
     inkscape:groupmode="layer"
     id="layer1">
    <path
       style="fill:#000000;stroke-width:4.04003"
       d="M25.6695 0.0275599C23.075 0.24856 21.4479 0.554118 19.2274 1.23734C16.7245 2.00747 14.0619 3.31784 11.817 4.88435C8.22007 7.39428 5.40794 10.5521 3.24841 14.5061C2.92031 15.1068 2.77746 15.398 2.42849 16.177C1.14379 19.0451 0.375098 21.9889 0.111241 25.0513C0.0799149 25.4148 0.0419925 25.7825 0.0269471 25.8685C-0.00898236 26.0737 -0.00898236 28.9218 0.0269471 29.1271C0.0419925 29.2131 0.0799149 29.5808 0.111241 29.9443C0.340151 32.6011 0.94806 35.1619 1.95038 37.6915C3.41922 41.3984 5.82958 44.9283 8.71617 47.5996C10.4521 49.206 12.1394 50.4379 14.1608 51.5746C17.2891 53.3337 21.021 54.5121 24.6028 54.8719C25.6994 54.982 26.1 54.9997 27.4992 55C28.8976 55.0003 29.2611 54.9853 30.287 54.8854C34.4204 54.4829 38.4332 53.1137 42.0482 50.8725C45.3741 48.8106 48.2524 46.0025 50.4572 42.6688C51.9599 40.3968 53.0476 38.0836 53.8378 35.4798C54.3885 33.6653 54.72 31.9204 54.9378 29.6912C54.9931 29.1251 54.9997 28.8941 55 27.4978C55.0003 26.2293 54.9915 25.8502 54.9528 25.4731C54.9266 25.2179 54.8919 24.8699 54.8757 24.6998C54.6431 22.2587 53.9786 19.5691 53.0177 17.18C51.5225 13.4623 49.0681 9.91903 46.1184 7.21982C43.6365 4.94875 40.8038 3.1625 37.7395 1.9363C35.0131 0.845306 32.3916 0.25064 29.3186 0.0260695C28.8319 -0.00947489 26.0912 -0.00837818 25.6695 0.0275599ZM29.3414 2.79423C31.5471 2.96849 33.4111 3.34388 35.3981 4.01396C38.0092 4.89447 40.5234 6.24378 42.6674 7.9151C44.837 9.60647 46.6188 11.5309 48.1579 13.8453C50.4131 17.2363 51.817 21.2558 52.1505 25.2765C52.3039 27.1269 52.3062 27.767 52.1655 29.5595C51.9574 32.2107 51.2965 34.8387 50.2019 37.3681C49.9789 37.8832 49.392 39.0664 49.1295 39.5295C48.4447 40.7383 47.6019 41.991 46.8472 42.9217C46.5315 43.3111 46.4467 43.3849 46.29 43.4059C46.134 43.4269 46.0167 43.3108 45.8353 42.956C45.1706 41.6553 44.4187 40.4915 43.5059 39.3506C41.8382 37.2663 39.9524 35.6548 37.5992 34.3031C36.703 33.7883 35.8775 33.3997 34.7659 32.9694C34.1227 32.7203 34.1163 32.7174 34.0132 32.6211C33.8399 32.4592 33.9174 32.3341 34.4728 31.8782C35.3671 31.1445 36.0557 30.3772 36.7007 29.3959C37.1693 28.6829 37.3466 28.3572 37.6369 27.6761C38.0756 26.6466 38.3492 25.5599 38.4714 24.3623C38.5277 23.8104 38.5141 22.7019 38.444 22.1268C38.2995 20.9425 38.027 19.9442 37.5587 18.8843C36.4688 16.4173 34.4031 14.3588 31.9431 13.2883C30.8048 12.793 29.6814 12.5111 28.3839 12.3952C27.8445 12.3471 26.6578 12.3761 26.1186 12.4507C24.4646 12.6795 23.0216 13.1994 21.6338 14.0663C20.7341 14.6284 19.7586 15.4849 19.0723 16.3153C18.4876 17.0227 18.1116 17.5994 17.6853 18.443C17.384 19.039 17.286 19.2733 17.084 19.8801C16.4548 21.7708 16.3414 23.6914 16.7454 25.6169C17.0596 27.1145 17.6994 28.5671 18.5752 29.771C19.2305 30.6717 19.8645 31.332 20.746 32.032C20.9919 32.2272 21.1081 32.369 21.1081 32.4738C21.1081 32.5496 21.0217 32.6628 20.9214 32.7184C20.862 32.7513 20.6808 32.8252 20.5187 32.8825C19.4741 33.252 18.0437 33.9278 17.0815 34.5064C14.6436 35.9723 12.5525 37.8836 10.9198 40.138C10.3162 40.9716 9.70965 41.9608 9.28203 42.8094C8.86896 43.6292 8.74671 43.6352 8.13021 42.8657C5.14153 39.1356 3.25619 34.4275 2.86565 29.7191C2.70821 27.8207 2.70821 27.1749 2.86565 25.2765C3.17013 21.6055 4.36983 17.9179 6.29649 14.7311C8.04351 11.8413 10.2527 9.43519 13.0052 7.42442C14.1243 6.60696 15.1878 5.96606 16.5327 5.29868C17.3735 4.88151 17.8893 4.65252 18.6099 4.37658C20.8734 3.50979 23.1185 3.00336 25.6133 2.79682C26.2814 2.74151 28.6533 2.73985 29.3414 2.79423Z"
       id="path56" />
  </g>
</svg>
