<?xml version="1.0" encoding="UTF-8" standalone="no"?>
<svg
   xmlns:dc="http://purl.org/dc/elements/1.1/"
   xmlns:cc="http://creativecommons.org/ns#"
   xmlns:rdf="http://www.w3.org/1999/02/22-rdf-syntax-ns#"
   xmlns:svg="http://www.w3.org/2000/svg"
   xmlns="http://www.w3.org/2000/svg"
   xmlns:sodipodi="http://sodipodi.sourceforge.net/DTD/sodipodi-0.dtd"
   xmlns:inkscape="http://www.inkscape.org/namespaces/inkscape"
   width="30mm"
   height="30mm"
   viewBox="0 0 30 30"
   version="1.1"
   id="svg8"
   inkscape:version="1.0.1 (3bc2e813f5, 2020-09-07)"
   sodipodi:docname="ic_questions2.svg">
  <defs
     id="defs2" />
  <sodipodi:namedview
     id="base"
     pagecolor="#ffffff"
     bordercolor="#666666"
     borderopacity="1.0"
     inkscape:pageopacity="0.0"
     inkscape:pageshadow="2"
     inkscape:zoom="2.8"
     inkscape:cx="198.99152"
     inkscape:cy="109.74422"
     inkscape:document-units="mm"
     inkscape:current-layer="layer1"
     inkscape:document-rotation="0"
     showgrid="false"
     inkscape:window-width="1680"
     inkscape:window-height="997"
     inkscape:window-x="-8"
     inkscape:window-y="-8"
     inkscape:window-maximized="1" />
  <metadata
     id="metadata5">
    <rdf:RDF>
      <cc:Work
         rdf:about="">
        <dc:format>image/svg+xml</dc:format>
        <dc:type
           rdf:resource="http://purl.org/dc/dcmitype/StillImage" />
        <dc:title></dc:title>
      </cc:Work>
    </rdf:RDF>
  </metadata>
  <g
     inkscape:label="Слой 1"
     inkscape:groupmode="layer"
     id="layer1">
    <path
       style="fill:#000000;stroke-width:0.264583"
       d="m 8.6399327,27.204836 c -0.189669,-0.232758 -0.09164,-0.697033 0.330918,-1.567288 l 0.600421,-1.236559 -1.22321,-0.130887 c -0.672766,-0.07199 -1.976909,-0.144132 -2.898096,-0.160321 -1.078218,-0.01895 -1.915818,-0.187299 -2.351201,-0.472573 -1.311655,-0.859429 -1.397905,-1.504196 -1.397461,-10.446791 4.62e-4,-9.2992148 0.07085,-9.7017969 1.851672,-10.5914201 0.83441,-0.416834 1.954478,-0.4626504 11.3194363,-0.4630208 11.079904,-4.384e-4 11.491334,0.042363 12.625356,1.3134129 0.503266,0.5640766 0.5329,1.0252971 0.605431,9.422798 0.100345,11.617898 0.354232,11.103092 -5.612771,11.381076 -3.564536,0.166061 -3.793831,0.213662 -8.316697,1.726535 -2.558104,0.855672 -4.7890683,1.555767 -4.9576963,1.555767 -0.168629,0 -0.427875,-0.148828 -0.576102,-0.330729 z M 22.514867,22.528047 c 2.484156,-0.01557 3.183678,-0.105111 3.572892,-0.457345 0.449601,-0.406883 0.483968,-1.0363 0.483968,-8.863644 0,-8.1003516 -0.02063,-8.4462923 -0.534394,-8.9600532 C 25.518425,3.7280962 25.196098,3.713089 14.913577,3.7290939 4.7654997,3.7448896 4.3026317,3.7671591 3.8063037,4.2634873 c -0.492474,0.4924744 -0.517911,0.9317272 -0.517911,8.9435707 0,7.689276 0.04047,8.462085 0.463021,8.842438 0.360013,0.324058 1.240164,0.436189 3.956279,0.504028 4.0612243,0.101435 4.3840983,0.248101 3.7007593,1.681076 -0.245928,0.515718 -0.447142,0.984555 -0.447142,1.041861 0,0.05731 1.904542,-0.533288 4.232316,-1.312431 4.120567,-1.379219 4.313876,-1.417134 7.321241,-1.435983 z m -15.5969643,-2.086565 -1.000699,-0.08263 0.07466,-2.960084 0.07466,-2.960083 h 2.910417 2.9104163 l 0.07515,2.849121 c 0.05635,2.136527 -0.0098,2.878388 -0.264584,2.966137 -0.477932,0.164618 -3.5824133,0.286416 -4.7800123,0.187534 z m 3.9883903,-3.02623 0.07728,-2.05052 H 8.9880637 6.9925597 v 2.086887 2.086888 l 1.918229,-0.03637 1.9182293,-0.03637 z m 3.361153,1.122611 c -0.279028,-0.451478 0.695339,-0.65959 3.088167,-0.65959 2.311584,0 2.799722,0.126724 2.480118,0.643856 -0.225283,0.364515 -5.343787,0.378979 -5.568285,0.01573 z m -0.0092,-2.396126 c -0.403445,-0.652789 0.473934,-0.787888 4.660562,-0.717635 3.653976,0.06131 4.345621,0.136088 4.345621,0.469796 0,0.334016 -0.698842,0.408351 -4.412257,0.46933 -3.022442,0.04963 -4.469481,-0.02013 -4.593926,-0.221491 z m -8.2666213,-7.1844041 0.07489,-2.98531 2.366107,-0.07719 2.3661063,-0.077191 -0.488884,0.5402121 C 9.9337877,6.773391 9.4945787,6.898065 8.4067577,6.898065 h -1.414201 v 1.984375 1.984375 h 1.984375 1.9843753 v -0.764439 c 0,-0.420441 0.237976,-1.045519 0.528836,-1.389062 l 0.528837,-0.624624 -0.06582,1.852083 -0.06582,1.852084 -2.9853093,0.07489 -2.98531,0.07489 z m 8.3010803,1.1547331 c -0.365126,-0.5907861 0.659146,-0.8509941 3.058103,-0.7768871 1.988793,0.06144 2.474043,0.154269 2.474043,0.473303 0,0.3218341 -0.508773,0.4110871 -2.690788,0.4720421 -1.479934,0.04134 -2.758545,-0.03446 -2.841358,-0.168458 z M 8.5992627,9.1113419 c -0.301603,-0.383427 -0.54837,-0.800146 -0.54837,-0.926042 0,-0.326845 0.633836,-0.282982 0.984982,0.06816 0.219697,0.219697 0.501208,0.06456 1.0809083,-0.595685 0.807768,-0.919997 2.961193,-2.293468 2.961193,-1.8886722 0,0.1252992 -0.483747,0.6984642 -1.074995,1.2737002 -0.591247,0.575236 -1.315333,1.432837 -1.609079,1.90578 -0.6472953,1.04217 -1.0725543,1.0807371 -1.7946393,0.162756 z m 5.6589893,-1.436272 c -0.403445,-0.652788 0.473934,-0.787888 4.660562,-0.717634 3.653976,0.06132 4.345621,0.136087 4.345621,0.469796 0,0.334015 -0.698842,0.40835 -4.412257,0.469329 -3.022442,0.04963 -4.469481,-0.02013 -4.593926,-0.221491 z"
       id="path152" />
  </g>
</svg>
