<?xml version="1.0" encoding="UTF-8" standalone="no"?>
<svg
   xmlns:dc="http://purl.org/dc/elements/1.1/"
   xmlns:cc="http://creativecommons.org/ns#"
   xmlns:rdf="http://www.w3.org/1999/02/22-rdf-syntax-ns#"
   xmlns:svg="http://www.w3.org/2000/svg"
   xmlns="http://www.w3.org/2000/svg"
   xmlns:sodipodi="http://sodipodi.sourceforge.net/DTD/sodipodi-0.dtd"
   xmlns:inkscape="http://www.inkscape.org/namespaces/inkscape"
   height="512pt"
   viewBox="0 0 512 512"
   width="512pt"
   version="1.1"
   id="svg4"
   sodipodi:docname="ic_questions.svg"
   inkscape:version="1.0.1 (3bc2e813f5, 2020-09-07)">
  <metadata
     id="metadata10">
    <rdf:RDF>
      <cc:Work
         rdf:about="">
        <dc:format>image/svg+xml</dc:format>
        <dc:type
           rdf:resource="http://purl.org/dc/dcmitype/StillImage" />
        <dc:title></dc:title>
      </cc:Work>
    </rdf:RDF>
  </metadata>
  <defs
     id="defs8" />
  <sodipodi:namedview
     pagecolor="#ffffff"
     bordercolor="#666666"
     borderopacity="1"
     objecttolerance="10"
     gridtolerance="10"
     guidetolerance="10"
     inkscape:pageopacity="0"
     inkscape:pageshadow="2"
     inkscape:window-width="791"
     inkscape:window-height="480"
     id="namedview6"
     showgrid="false"
     inkscape:zoom="1.2158203"
     inkscape:cx="341.33333"
     inkscape:cy="341.33333"
     inkscape:window-x="0"
     inkscape:window-y="0"
     inkscape:window-maximized="0"
     inkscape:current-layer="svg4" />
  <path
     d="m256 0c-141.164062 0-256 114.835938-256 256s114.835938 256 256 256 256-114.835938 256-256-114.835938-256-256-256zm0 405.332031c-11.777344 0-21.332031-9.554687-21.332031-21.332031s9.554687-21.332031 21.332031-21.332031 21.332031 9.554687 21.332031 21.332031-9.554687 21.332031-21.332031 21.332031zm33.769531-135.636719c-7.550781 3.476563-12.4375 11.09375-12.4375 19.394532v9.578125c0 11.773437-9.535156 21.332031-21.332031 21.332031s-21.332031-9.558594-21.332031-21.332031v-9.578125c0-24.898438 14.632812-47.722656 37.226562-58.15625 21.738281-10.003906 37.4375-36.566406 37.4375-49.601563 0-29.394531-23.914062-53.332031-53.332031-53.332031s-53.332031 23.9375-53.332031 53.332031c0 11.777344-9.539063 21.335938-21.335938 21.335938s-21.332031-9.558594-21.332031-21.335938c0-52.925781 43.070312-96 96-96s96 43.074219 96 96c0 28.824219-25.003906 71.191407-62.230469 88.363281zm0 0"
     id="path2" />
</svg>
