<svg width="74" height="75" viewBox="0 0 74 75" fill="none" xmlns="http://www.w3.org/2000/svg">
<path d="M64.0278 70.5891L34.3943 54.9703C33.622 54.5625 32.6802 54.6188 31.9503 55.1109L9.29078 70.7297C8.44317 71.3156 8.07587 72.3797 8.38666 73.3594C8.68804 74.3297 9.60157 75 10.6281 75H62.9212C63.9995 75 64.946 74.2688 65.205 73.2188C65.4687 72.1734 64.979 71.0906 64.0278 70.5891Z" fill="#000000"/>
<path d="M73.9448 66.1359L66.9756 34.9031C66.806 34.1391 66.2645 33.5156 65.5346 33.2297C64.8 32.9438 63.976 33.0422 63.3355 33.4828L40.6713 49.1016C39.9932 49.5703 39.6118 50.3531 39.6636 51.1641C39.7107 51.9844 40.1863 52.7156 40.9115 53.0953L70.5403 68.7141C70.8887 68.8969 71.2654 68.9906 71.6422 68.9906C72.146 68.9906 72.6499 68.8312 73.069 68.5078C73.7989 67.9547 74.1426 67.0312 73.9448 66.1359Z" fill="#000000"/>
<path d="M57.5482 29.7703C57.2374 28.7906 56.3286 28.125 55.2973 28.125H33.8056C29.8972 35.1703 24.1146 41.9062 21.7366 44.5406C20.3992 46.0219 18.4827 46.875 16.4814 46.875C14.4801 46.875 12.5635 46.0219 11.2262 44.5406C10.3079 43.5234 8.88581 41.8969 7.25651 39.8813L1.55867 65.4094C1.35147 66.3516 1.74232 67.3219 2.54284 67.8609C2.93839 68.1281 3.39987 68.2594 3.85664 68.2594C4.32754 68.2594 4.79372 68.1234 5.1987 67.8422L56.6347 32.3906C57.487 31.8141 57.8496 30.75 57.5482 29.7703Z" fill="#000000"/>
<path d="M16.4814 0C7.39307 0 0 7.35938 0 16.4062C0 24.825 13.2228 39.7359 14.7296 41.4094C15.177 41.9016 15.8127 42.1875 16.4814 42.1875C17.15 42.1875 17.7857 41.9016 18.2331 41.4094C19.74 39.7359 32.9627 24.825 32.9627 16.4062C32.9627 7.35938 25.5697 0 16.4814 0ZM16.4814 23.4375C12.5823 23.4375 9.41792 20.2875 9.41792 16.4062C9.41792 12.525 12.5823 9.375 16.4814 9.375C20.3804 9.375 23.5448 12.525 23.5448 16.4062C23.5448 20.2875 20.3804 23.4375 16.4814 23.4375Z" fill="#000000"/>
</svg>
