<?xml version="1.0" encoding="UTF-8" standalone="no"?>
<svg
   xmlns:dc="http://purl.org/dc/elements/1.1/"
   xmlns:cc="http://creativecommons.org/ns#"
   xmlns:rdf="http://www.w3.org/1999/02/22-rdf-syntax-ns#"
   xmlns:svg="http://www.w3.org/2000/svg"
   xmlns="http://www.w3.org/2000/svg"
   xmlns:sodipodi="http://sodipodi.sourceforge.net/DTD/sodipodi-0.dtd"
   xmlns:inkscape="http://www.inkscape.org/namespaces/inkscape"
   version="1.1"
   width="512"
   height="512"
   x="0"
   y="0"
   viewBox="0 0 16 16"
   style="enable-background:new 0 0 512 512"
   xml:space="preserve"
   class=""
   id="svg10"
   sodipodi:docname="ic_shop_minus.svg"
   inkscape:version="1.0.1 (3bc2e813f5, 2020-09-07)"><metadata
     id="metadata16"><rdf:RDF><cc:Work
         rdf:about=""><dc:format>image/svg+xml</dc:format><dc:type
           rdf:resource="http://purl.org/dc/dcmitype/StillImage" /><dc:title></dc:title></cc:Work></rdf:RDF></metadata><defs
     id="defs14" /><sodipodi:namedview
     pagecolor="#ffffff"
     bordercolor="#666666"
     borderopacity="1"
     objecttolerance="10"
     gridtolerance="10"
     guidetolerance="10"
     inkscape:pageopacity="0"
     inkscape:pageshadow="2"
     inkscape:window-width="750"
     inkscape:window-height="480"
     id="namedview12"
     showgrid="false"
     inkscape:zoom="1.6210938"
     inkscape:cx="256"
     inkscape:cy="256"
     inkscape:window-x="0"
     inkscape:window-y="0"
     inkscape:window-maximized="0"
     inkscape:current-layer="svg10" /><g
     id="g8">
<path
   fill="#060606"
   d="m 8,1 c 3.9,0 7,3.1 7,7 0,3.9 -3.1,7 -7,7 C 4.1,15 1,11.9 1,8 1,4.1 4.1,1 8,1 Z M 8,0 C 3.6,0 0,3.6 0,8 c 0,4.4 3.6,8 8,8 4.4,0 8,-3.6 8,-8 C 16,3.6 12.4,0 8,0 Z"
   data-original="#444444"
   class=""
   id="path2" />
<path
   fill="#060606"
   d="M 3,7 H 13 V 9 H 3 Z"
   data-original="#444444"
   class=""
   id="path4" />
<script
   id="script6" /></g></svg>
