<?xml version="1.0" encoding="UTF-8" standalone="no"?>
<svg
   xmlns:dc="http://purl.org/dc/elements/1.1/"
   xmlns:cc="http://creativecommons.org/ns#"
   xmlns:rdf="http://www.w3.org/1999/02/22-rdf-syntax-ns#"
   xmlns:svg="http://www.w3.org/2000/svg"
   xmlns="http://www.w3.org/2000/svg"
   xmlns:sodipodi="http://sodipodi.sourceforge.net/DTD/sodipodi-0.dtd"
   xmlns:inkscape="http://www.inkscape.org/namespaces/inkscape"
   version="1.1"
   id="Capa_1"
   x="0px"
   y="0px"
   viewBox="0 0 41.301 41.301"
   style="enable-background:new 0 0 41.301 41.301;"
   xml:space="preserve"
   sodipodi:docname="ic_status_wait.svg"
   inkscape:version="1.0.1 (3bc2e813f5, 2020-09-07)"><metadata
   id="metadata39"><rdf:RDF><cc:Work
       rdf:about=""><dc:format>image/svg+xml</dc:format><dc:type
         rdf:resource="http://purl.org/dc/dcmitype/StillImage" /><dc:title></dc:title></cc:Work></rdf:RDF></metadata><defs
   id="defs37" /><sodipodi:namedview
   pagecolor="#ffffff"
   bordercolor="#666666"
   borderopacity="1"
   objecttolerance="10"
   gridtolerance="10"
   guidetolerance="10"
   inkscape:pageopacity="0"
   inkscape:pageshadow="2"
   inkscape:window-width="750"
   inkscape:window-height="480"
   id="namedview35"
   showgrid="false"
   inkscape:zoom="20.096366"
   inkscape:cx="20.650499"
   inkscape:cy="20.650499"
   inkscape:window-x="0"
   inkscape:window-y="0"
   inkscape:window-maximized="0"
   inkscape:current-layer="Capa_1" />
<path
   style="fill:#1E201D;"
   d="M20.642,0c5.698,0,10.857,2.317,14.602,6.047c3.73,3.746,6.047,8.905,6.047,14.603  c0,5.698-2.317,10.857-6.047,14.603c-3.746,3.73-8.904,6.047-14.602,6.047S9.786,38.983,6.056,35.253  C2.31,31.507,0.008,26.349,0.008,20.65c0-5.698,2.301-10.857,6.047-14.603C9.786,2.317,14.944,0,20.642,0L20.642,0z M31.166,19.523  c0.619,0,1.111,0.508,1.111,1.127c0,0.619-0.492,1.127-1.111,1.127H20.674h-0.032c-0.413,0-0.778-0.238-0.968-0.571l-0.016-0.016  l0,0l-0.016-0.032l0,0v-0.016l0,0l-0.016-0.032l0,0l-0.016-0.032l0,0v-0.016l0,0l-0.016-0.032l0,0l-0.016-0.016l0,0v-0.032l0,0  l-0.016-0.032l0,0v-0.016l0,0l-0.016-0.032l0,0v-0.032l0,0v-0.016v-0.016l-0.016-0.016l0,0v-0.032l0,0v-0.032l0,0V20.73l0,0v-0.016  l0,0v-0.032l0,0V20.65l0,0V7.206c0-0.619,0.492-1.111,1.111-1.111c0.619,0,1.127,0.492,1.127,1.111v12.317H31.166z M33.657,7.635  c-3.333-3.333-7.936-5.381-13.015-5.381S10.96,4.301,7.627,7.635C4.31,10.968,2.246,15.571,2.246,20.65  c0,5.079,2.063,9.682,5.381,13.016c3.333,3.333,7.936,5.381,13.015,5.381s9.682-2.048,13.015-5.381  c3.333-3.333,5.397-7.936,5.397-13.016C39.054,15.571,36.991,10.968,33.657,7.635L33.657,7.635z"
   id="path2" />
<g
   id="g4">
</g>
<g
   id="g6">
</g>
<g
   id="g8">
</g>
<g
   id="g10">
</g>
<g
   id="g12">
</g>
<g
   id="g14">
</g>
<g
   id="g16">
</g>
<g
   id="g18">
</g>
<g
   id="g20">
</g>
<g
   id="g22">
</g>
<g
   id="g24">
</g>
<g
   id="g26">
</g>
<g
   id="g28">
</g>
<g
   id="g30">
</g>
<g
   id="g32">
</g>
</svg>
