<?xml version="1.0" encoding="UTF-8" standalone="no"?>
<svg
   xmlns:dc="http://purl.org/dc/elements/1.1/"
   xmlns:cc="http://creativecommons.org/ns#"
   xmlns:rdf="http://www.w3.org/1999/02/22-rdf-syntax-ns#"
   xmlns:svg="http://www.w3.org/2000/svg"
   xmlns="http://www.w3.org/2000/svg"
   xmlns:sodipodi="http://sodipodi.sourceforge.net/DTD/sodipodi-0.dtd"
   xmlns:inkscape="http://www.inkscape.org/namespaces/inkscape"
   width="210mm"
   height="210mm"
   viewBox="0 0 210 210"
   version="1.1"
   id="svg8"
   inkscape:version="1.0.1 (3bc2e813f5, 2020-09-07)"
   sodipodi:docname="ic_send_mess.svg">
  <defs
     id="defs2" />
  <sodipodi:namedview
     id="base"
     pagecolor="#ffffff"
     bordercolor="#666666"
     borderopacity="1.0"
     inkscape:pageopacity="0.0"
     inkscape:pageshadow="2"
     inkscape:zoom="0.49497475"
     inkscape:cx="1076.674"
     inkscape:cy="444.00415"
     inkscape:document-units="mm"
     inkscape:current-layer="layer1"
     inkscape:document-rotation="0"
     showgrid="false"
     inkscape:window-width="1680"
     inkscape:window-height="997"
     inkscape:window-x="-8"
     inkscape:window-y="-8"
     inkscape:window-maximized="1" />
  <metadata
     id="metadata5">
    <rdf:RDF>
      <cc:Work
         rdf:about="">
        <dc:format>image/svg+xml</dc:format>
        <dc:type
           rdf:resource="http://purl.org/dc/dcmitype/StillImage" />
        <dc:title></dc:title>
      </cc:Work>
    </rdf:RDF>
  </metadata>
  <g
     inkscape:label="Слой 1"
     inkscape:groupmode="layer"
     id="layer1">
    <path
       style="fill:#000000;stroke-width:2.75478"
       d="m 5.084843,193.41243 c -1.06174,-0.96094 -1.93044,-4.15413 -1.93044,-7.09598 0,-5.34428 22.241924,-61.53699 25.777221,-65.1244 1.028139,-1.04329 24.641627,-5.31729 52.474419,-9.49778 31.867337,-4.78648 47.924607,-8.16963 43.365927,-9.13688 C 120.79045,101.7126 99.941721,98.449303 78.441473,95.305623 56.941224,92.161943 36.663069,88.690373 33.378909,87.591023 29.032056,86.135943 24.045903,77.381643 15.049513,55.409703 8.252513,38.809337 3.121273,22.480011 3.646773,19.122316 5.690283,6.0653386 16.214833,9.4047776 113.16706,53.873093 c 85.9024,39.40017 92.67984,43.00788 92.63602,49.311207 -0.0436,6.2773 -7.14926,10.07966 -92.29347,49.3881 C 29.220334,191.48614 10.674753,198.47165 5.084843,193.41243 Z"
       id="path88" />
  </g>
</svg>
