<svg width="69" height="60" viewBox="0 0 69 60" fill="none" xmlns="http://www.w3.org/2000/svg">
    <path
            style="fill:#000000" d="M61.1953 0H7.80469C3.77688 0 0.5 3.28786 0.5 7.32916V42.5092C0.5 46.5504 3.77688 49.8383 7.80469 49.8383H25.0058C25.2157 49.8383 25.4154 49.9395 25.5401 50.1091L31.8159 58.646C32.4447 59.5016 33.4131 59.9951 34.4726 60H34.4886C35.542 60 36.5085 59.516 37.142 58.6705L43.5602 50.1042C43.6849 49.9376 43.8835 49.8382 44.0911 49.8382H61.1953C65.2231 49.8382 68.5 46.5503 68.5 42.509V7.32903C68.5 3.28773 65.2231 0 61.1953 0ZM64.5156 42.5092C64.5156 42.8239 64.471 43.1281 64.3893 43.4169L43.9222 25.4154L64.5156 8.2681V42.5092ZM61.1953 3.99773C61.8027 3.99773 62.372 4.16296 62.8622 4.44987L36.6261 26.2956C35.3973 27.3187 33.614 27.3187 32.3852 26.2956L6.1444 4.446C6.63315 4.1615 7.20013 3.99773 7.80469 3.99773H61.1953ZM4.61068 43.4169C4.529 43.1281 4.48438 42.8238 4.48438 42.5092V8.25877L25.0833 25.4105L4.61068 43.4169ZM40.3755 47.7019L34.4931 55.5531L28.7466 47.7362C27.8742 46.5491 26.4756 45.8405 25.0056 45.8405H7.89938L28.1881 27.9958L29.8407 29.3718C31.1923 30.4973 32.8486 31.0598 34.5056 31.0598C36.162 31.0598 37.819 30.4969 39.1704 29.3718L40.8171 28.0006L61.1004 45.8405H44.0911C42.638 45.8406 41.2489 46.5363 40.3755 47.7019Z"
          fill="#EC313A"/>
</svg>
