<?xml version="1.0" encoding="UTF-8" standalone="no"?>
<svg
   xmlns:dc="http://purl.org/dc/elements/1.1/"
   xmlns:cc="http://creativecommons.org/ns#"
   xmlns:rdf="http://www.w3.org/1999/02/22-rdf-syntax-ns#"
   xmlns:svg="http://www.w3.org/2000/svg"
   xmlns="http://www.w3.org/2000/svg"
   xmlns:sodipodi="http://sodipodi.sourceforge.net/DTD/sodipodi-0.dtd"
   xmlns:inkscape="http://www.inkscape.org/namespaces/inkscape"
   width="210mm"
   height="297mm"
   viewBox="0 0 210 297"
   version="1.1"
   id="svg8"
   inkscape:version="1.0.1 (3bc2e813f5, 2020-09-07)"
   sodipodi:docname="ic_tech.svg">
  <defs
     id="defs2" />
  <sodipodi:namedview
     id="base"
     pagecolor="#ffffff"
     bordercolor="#666666"
     borderopacity="1.0"
     inkscape:pageopacity="0.0"
     inkscape:pageshadow="2"
     inkscape:zoom="0.49497475"
     inkscape:cx="1076.674"
     inkscape:cy="444.00415"
     inkscape:document-units="mm"
     inkscape:current-layer="layer1"
     inkscape:document-rotation="0"
     showgrid="false"
     inkscape:window-width="1680"
     inkscape:window-height="997"
     inkscape:window-x="-8"
     inkscape:window-y="-8"
     inkscape:window-maximized="1" />
  <metadata
     id="metadata5">
    <rdf:RDF>
      <cc:Work
         rdf:about="">
        <dc:format>image/svg+xml</dc:format>
        <dc:type
           rdf:resource="http://purl.org/dc/dcmitype/StillImage" />
        <dc:title></dc:title>
      </cc:Work>
    </rdf:RDF>
  </metadata>
  <g
     inkscape:label="Слой 1"
     inkscape:groupmode="layer"
     id="layer1">
    <path
       style="fill:#000000;stroke-width:4.04003"
       d="m 36.525377,261.47639 c -9.98746,-3.05144 -20.86734,-7.99964 -24.1775,-10.99601 -13.20619024,-11.95429 -2.5022302,-50.68461 17.97435,-65.0369 13.0813,-9.16886 34.65665,-9.84371 45.67182,-1.42858 12.76714,9.75357 49.089653,9.7312 61.877403,-0.038 5.21109,-3.98106 14.73752,-6.74117 21.16984,-6.13356 29.94259,2.82842 46.00782,20.56918 46.31684,51.14745 0.18441,18.24897 -0.5608,19.59303 -15.27972,27.5582 -13.09912,7.08847 -24.67471,8.5347 -75.4338,9.42444 -40.512793,0.71013 -65.849873,-0.74844 -78.119233,-4.49707 z m 50.80584,-89.8528 c -18.50273,-12.53202 -25.81031,-30.27551 -27.97651,-67.92952 -1.77326,-30.823766 -1.04559,-36.32616 6.39694,-48.371853 16.96643,-27.460094 53.139933,-31.056761 77.109933,-7.666906 12.05312,11.761393 12.37151,12.96379 11.34253,42.834133 -1.17103,33.994266 -4.25038,38.808416 -22.59949,35.331346 -16.47777,-3.12246 -24.69681,1.14415 -24.69681,12.82043 0,12.54316 12.242,17.08414 27.48801,10.19622 17.39063,-7.8568 18.14026,-1.37759 1.73667,15.01034 -16.50799,16.49223 -32.23279,18.99776 -48.801273,7.77581 z m 24.914993,-28.72814 c -3.85857,-10.96732 2.45571,-15.70045 17.30189,-12.96936 20.72819,3.81315 26.29663,-3.1543 29.21733,-36.557863 2.37933,-27.212072 2.04025,-28.760462 -9.41446,-42.989981 -20.54639,-25.523608 -52.357483,-30.007853 -75.009413,-10.57369 -16.63723,14.273867 -21.25984,28.433382 -18.82885,57.674526 2.83031,34.044268 -5.64898,47.792178 -19.89398,32.255108 -6.50914,-7.09953 -8.31301,-35.461063 -2.67783,-42.102344 1.8706,-2.204573 5.50176,-11.176579 8.06924,-19.93779 5.64761,-19.271796 20.37433,-39.138377 35.21916,-47.511225 14.03804,-7.917803 47.257453,-7.952512 61.243573,-0.06399 16.22515,9.151381 34.48384,33.967034 37.37967,50.803249 1.40995,8.19736 4.10698,15.944708 5.9934,17.21633 4.39976,2.96584 4.35745,31.6574 -0.0579,39.26024 -1.85311,3.1909 -7.48398,6.3252 -12.51306,6.96512 -5.02906,0.63992 -16.97727,4.17225 -26.55156,7.84961 -21.64911,8.31516 -26.75016,8.43319 -29.4772,0.68206 z"
       id="path56" />
  </g>
</svg>
