<svg width="114" height="103" viewBox="0 0 114 103" fill="none" xmlns="http://www.w3.org/2000/svg">
<path style="fill:#000000" d="M112.772 43.7912C112.318 42.0885 111.234 40.6674 109.72 39.7902L45.3091 2.46343C43.6569 1.50611 41.775 1 39.867 1C35.9532 1 32.314 3.1004 30.3691 6.48133L19.4316 25.4965C18.5575 27.0161 18.3265 28.7907 18.7811 30.4935C19.2356 32.1964 20.3198 33.6175 21.8337 34.4947L23.7279 35.5925L22.6341 37.494C20.8249 40.6395 21.9024 44.6759 25.036 46.4917L46.75 59.0753L42.2354 66.924C41.8286 66.8913 41.4186 66.8698 41.0034 66.8698C35.398 66.8698 30.489 69.9108 27.8207 74.4337C27.7942 74.4734 27.7669 74.5125 27.7428 74.5545C27.7172 74.5988 27.696 74.6445 27.6737 74.6897C27.4963 75.0044 27.3274 75.3245 27.1717 75.6523H14.1248V60.2825C14.1248 56.6503 11.1808 53.6956 7.5625 53.6956H3.1875C1.97934 53.6956 1 54.6786 1 55.8913V99.8043C1 101.017 1.97934 102 3.1875 102H7.5625C11.1811 102 14.1248 99.045 14.1248 95.4131V88.8263H27.1721C29.6341 94.0143 34.9078 97.6088 41.0039 97.6088C46.6216 97.6088 51.5395 94.5544 54.2039 90.0152C54.2238 89.9843 54.2463 89.9564 54.2647 89.9241C54.2905 89.8793 54.312 89.8332 54.3343 89.7875C55.5934 87.5563 56.3161 84.9816 56.3161 82.2394C56.3161 79.001 55.3106 75.9955 53.6002 73.515L58.1169 65.6626L78.0802 77.2315C79.0725 77.8065 80.2028 78.1104 81.3488 78.1106C83.6944 78.1106 85.8773 76.8498 87.0444 74.8206L88.1383 72.9185L90.0332 74.0163C91.0256 74.5916 92.1561 74.8955 93.3019 74.8955C95.6482 74.8955 97.8309 73.6347 98.9982 71.605L103.372 64.0013C104.246 62.4817 104.477 60.7069 104.022 59.0039C103.642 57.58 102.821 56.3546 101.677 55.4778L108.607 53.6141C109.167 53.4635 109.645 53.0955 109.935 52.5909L112.122 48.7882C112.996 47.2686 113.227 45.494 112.772 43.7912ZM9.74978 95.4127C9.74978 96.6234 8.76846 97.6084 7.56228 97.6084H5.375V58.0868H7.5625C8.76868 58.0868 9.74999 59.0717 9.74999 60.2825L9.74978 95.4127ZM25.8504 84.4347H14.125V80.0435H25.8504C25.7476 80.761 25.6916 81.4935 25.6916 82.239C25.6916 82.9846 25.7476 83.7169 25.8504 84.4347ZM41.0037 93.2172C34.9729 93.2172 30.0666 88.2923 30.0666 82.239C30.0666 81.0243 30.2672 79.8564 30.6316 78.7634L49.184 89.5146C47.1788 91.7836 44.2558 93.2172 41.0037 93.2172ZM51.3759 85.7145L32.8235 74.9631C34.8286 72.6945 37.7517 71.2609 41.0037 71.2609C47.0344 71.2609 51.9409 76.1859 51.9409 82.239C51.9409 83.4536 51.7403 84.6215 51.3759 85.7145ZM50.4705 70.1725C49.3282 69.2675 48.0555 68.5229 46.6848 67.9709L50.539 61.2705L54.3279 63.4664L50.4705 70.1725ZM83.2552 72.6245C82.8671 73.2996 82.1367 73.7188 81.3488 73.7188C80.9697 73.7188 80.5954 73.6182 80.2673 73.4281L27.2237 42.6886C26.1792 42.0832 25.82 40.7377 26.4231 39.6892L27.5169 37.7878L71.0888 63.0385C71.1645 63.0824 71.2425 63.1197 71.3219 63.1538C71.3454 63.1639 71.369 63.1724 71.3926 63.1816C71.4521 63.2049 71.5127 63.2256 71.574 63.2433C71.5978 63.2504 71.6219 63.2576 71.6459 63.264C71.729 63.2851 71.8128 63.3028 71.8975 63.314L71.9012 63.3143C71.9848 63.325 72.069 63.3296 72.1532 63.3307C72.1628 63.3307 72.1725 63.3327 72.1823 63.3327C72.198 63.3327 72.214 63.3299 72.2298 63.3296C72.2928 63.3283 72.3555 63.3242 72.4185 63.3171C72.4437 63.3145 72.4689 63.3123 72.4945 63.3086C72.5795 63.296 72.6644 63.2805 72.7484 63.2578L91.5515 58.2009L83.2552 72.6245ZM99.5829 61.8052L95.2092 69.4089C94.8209 70.0843 94.0899 70.5036 93.3015 70.5036C92.9169 70.5036 92.5532 70.4057 92.2202 70.2127L90.3254 69.1146L96.887 57.7067L98.7818 58.8048C99.2839 59.0957 99.6439 59.5697 99.7962 60.1397C99.9487 60.7102 99.8727 61.3013 99.5829 61.8052ZM108.333 46.5925L106.599 49.6079L72.4914 58.7808L24.0215 30.6915C23.5196 30.4008 23.1594 29.9267 23.0073 29.357C22.8553 28.7872 22.931 28.1959 23.2208 27.692L34.1583 8.67703C35.3243 6.65018 37.512 5.39095 39.8675 5.39095C41.0089 5.39095 42.1344 5.69352 43.1223 6.26616L107.533 43.5932C108.035 43.8839 108.395 44.358 108.547 44.9275C108.699 45.4975 108.623 46.0886 108.333 46.5925Z" />
<path style="fill:#000000" d="M89.9288 37.1949L89.8778 37.1653C88.8313 36.5588 87.4939 36.9187 86.8897 37.9689C86.2855 39.0191 86.6441 40.362 87.6904 40.9685L87.7413 40.9981C88.0858 41.1977 88.4619 41.2925 88.8329 41.2925C89.5889 41.2925 90.3241 40.8986 90.7294 40.1945C91.3336 39.1441 90.9751 37.8012 89.9288 37.1949Z" />
<path style="fill:#000000" d="M112.772 43.7912C112.318 42.0885 111.234 40.6674 109.72 39.7902L45.3091 2.46343C43.6569 1.50611 41.775 1 39.867 1C35.9532 1 32.314 3.1004 30.3691 6.48133L19.4316 25.4965C18.5575 27.0161 18.3265 28.7907 18.7811 30.4935C19.2356 32.1964 20.3198 33.6175 21.8337 34.4947L23.7279 35.5925L22.6341 37.494C20.8249 40.6395 21.9024 44.6759 25.036 46.4917L46.75 59.0753L42.2354 66.924C41.8286 66.8913 41.4186 66.8698 41.0034 66.8698C35.398 66.8698 30.489 69.9108 27.8207 74.4337C27.7942 74.4734 27.7669 74.5125 27.7428 74.5545C27.7172 74.5988 27.696 74.6445 27.6737 74.6897C27.4963 75.0044 27.3274 75.3245 27.1717 75.6523H14.1248V60.2825C14.1248 56.6503 11.1808 53.6956 7.5625 53.6956H3.1875C1.97934 53.6956 1 54.6786 1 55.8913V99.8043C1 101.017 1.97934 102 3.1875 102H7.5625C11.1811 102 14.1248 99.045 14.1248 95.4131V88.8263H27.1721C29.6341 94.0143 34.9078 97.6088 41.0039 97.6088C46.6216 97.6088 51.5395 94.5544 54.2039 90.0152C54.2238 89.9843 54.2463 89.9564 54.2647 89.9241C54.2905 89.8793 54.312 89.8332 54.3343 89.7875C55.5934 87.5563 56.3161 84.9816 56.3161 82.2394C56.3161 79.001 55.3106 75.9955 53.6002 73.515L58.1169 65.6626L78.0802 77.2315C79.0725 77.8065 80.2028 78.1104 81.3488 78.1106C83.6944 78.1106 85.8773 76.8498 87.0444 74.8206L88.1383 72.9185L90.0332 74.0163C91.0256 74.5916 92.1561 74.8955 93.3019 74.8955C95.6482 74.8955 97.8309 73.6347 98.9982 71.605L103.372 64.0013C104.246 62.4817 104.477 60.7069 104.022 59.0039C103.642 57.58 102.821 56.3546 101.677 55.4778L108.607 53.6141C109.167 53.4635 109.645 53.0955 109.935 52.5909L112.122 48.7882C112.996 47.2686 113.227 45.494 112.772 43.7912ZM9.74978 95.4127C9.74978 96.6234 8.76846 97.6084 7.56228 97.6084H5.375V58.0868H7.5625C8.76868 58.0868 9.74999 59.0717 9.74999 60.2825L9.74978 95.4127ZM25.8504 84.4347H14.125V80.0435H25.8504C25.7476 80.761 25.6916 81.4935 25.6916 82.239C25.6916 82.9846 25.7476 83.7169 25.8504 84.4347ZM41.0037 93.2172C34.9729 93.2172 30.0666 88.2923 30.0666 82.239C30.0666 81.0243 30.2672 79.8564 30.6316 78.7634L49.184 89.5146C47.1788 91.7836 44.2558 93.2172 41.0037 93.2172ZM51.3759 85.7145L32.8235 74.9631C34.8286 72.6945 37.7517 71.2609 41.0037 71.2609C47.0344 71.2609 51.9409 76.1859 51.9409 82.239C51.9409 83.4536 51.7403 84.6215 51.3759 85.7145ZM50.4705 70.1725C49.3282 69.2675 48.0555 68.5229 46.6848 67.9709L50.539 61.2705L54.3279 63.4664L50.4705 70.1725ZM83.2552 72.6245C82.8671 73.2996 82.1367 73.7188 81.3488 73.7188C80.9697 73.7188 80.5954 73.6182 80.2673 73.4281L27.2237 42.6886C26.1792 42.0832 25.82 40.7377 26.4231 39.6892L27.5169 37.7878L71.0888 63.0385C71.1645 63.0824 71.2425 63.1197 71.3219 63.1538C71.3454 63.1639 71.369 63.1724 71.3926 63.1816C71.4521 63.2049 71.5127 63.2256 71.574 63.2433C71.5978 63.2504 71.6219 63.2576 71.6459 63.264C71.729 63.2851 71.8128 63.3028 71.8975 63.314L71.9012 63.3143C71.9848 63.325 72.069 63.3296 72.1532 63.3307C72.1628 63.3307 72.1725 63.3327 72.1823 63.3327C72.198 63.3327 72.214 63.3299 72.2298 63.3296C72.2928 63.3283 72.3555 63.3242 72.4185 63.3171C72.4437 63.3145 72.4689 63.3123 72.4945 63.3086C72.5795 63.296 72.6644 63.2805 72.7484 63.2578L91.5515 58.2009L83.2552 72.6245ZM99.5829 61.8052L95.2092 69.4089C94.8209 70.0843 94.0899 70.5036 93.3015 70.5036C92.9169 70.5036 92.5532 70.4057 92.2202 70.2127L90.3254 69.1146L96.887 57.7067L98.7818 58.8048C99.2839 59.0957 99.6439 59.5697 99.7962 60.1397C99.9487 60.7102 99.8727 61.3013 99.5829 61.8052ZM108.333 46.5925L106.599 49.6079L72.4914 58.7808L24.0215 30.6915C23.5196 30.4008 23.1594 29.9267 23.0073 29.357C22.8553 28.7872 22.931 28.1959 23.2208 27.692L34.1583 8.67703C35.3243 6.65018 37.512 5.39095 39.8675 5.39095C41.0089 5.39095 42.1344 5.69352 43.1223 6.26616L107.533 43.5932C108.035 43.8839 108.395 44.358 108.547 44.9275C108.699 45.4975 108.623 46.0886 108.333 46.5925Z"  />
<path style="fill:#000000" d="M89.9288 37.1949L89.8778 37.1653C88.8313 36.5588 87.4939 36.9187 86.8897 37.9689C86.2855 39.0191 86.6441 40.362 87.6904 40.9685L87.7413 40.9981C88.0858 41.1977 88.4619 41.2925 88.8329 41.2925C89.5889 41.2925 90.3241 40.8986 90.7294 40.1945C91.3336 39.1441 90.9751 37.8012 89.9288 37.1949Z" />
</svg>
