<svg width="61" height="60" viewBox="0 0 61 60" fill="none" xmlns="http://www.w3.org/2000/svg">
<path  style="fill:#000000" d="M51.6338 8.71307C45.9919 3.09769 38.4865 0.00320435 30.4986 0C22.5286 0 15.0113 3.09174 9.33234 8.70575C3.64328 14.3294 0.507331 21.8028 0.5 29.7221V29.7368C0.500916 34.53 1.76144 39.3654 4.15418 43.7791L0.582019 60L17.0054 56.2679C21.165 58.3621 25.8062 59.4662 30.4872 59.4681H30.4991C38.4677 59.4681 45.985 56.3759 51.6649 50.7614C57.359 45.1332 60.4963 37.6694 60.5 29.745C60.5023 21.8765 57.354 14.4072 51.6338 8.71307ZM30.4986 54.7852H30.4881C26.285 54.7833 22.1204 53.7291 18.4451 51.7355L17.6685 51.3144L6.74761 53.7959L9.11974 43.0257L8.66245 42.2379C6.38884 38.3208 5.18743 33.9967 5.18743 29.7318C5.19613 15.927 16.5495 4.68292 30.4977 4.68292C37.2361 4.68567 43.5675 7.29538 48.3255 12.0305C53.1554 16.8388 55.8144 23.1294 55.8121 29.7437C55.8066 43.5516 44.4509 54.7852 30.4986 54.7852Z" fill="#EC313A"/>
<path  style="fill:#000000" d="M22.3357 16.6246H21.0207C20.5629 16.6246 19.8197 16.7958 19.1911 17.4792C18.562 18.1631 16.7892 19.8161 16.7892 23.1779C16.7892 26.5398 19.2483 29.7881 19.5911 30.2444C19.9343 30.7004 24.3381 37.8195 31.3129 40.5583C37.1096 42.8343 38.2895 42.3816 39.5472 42.2676C40.8055 42.1541 43.6074 40.6151 44.1792 39.0198C44.7511 37.4245 44.7511 36.0567 44.5797 35.771C44.4079 35.4863 43.9501 35.3156 43.2642 34.9741C42.5778 34.6321 39.2146 32.9512 38.5855 32.7228C37.9564 32.4953 37.4991 32.3813 37.0413 33.0656C36.5836 33.7486 35.236 35.3288 34.8355 35.7848C34.4355 36.2411 34.035 36.2984 33.3487 35.9564C32.6623 35.6136 30.4748 34.8793 27.8534 32.552C25.813 30.7407 24.3972 28.4308 23.9967 27.7469C23.5967 27.0634 23.9541 26.6936 24.2982 26.3525C24.6066 26.0468 25.0231 25.6284 25.3663 25.2296C25.709 24.8305 25.8066 24.5457 26.0357 24.0898C26.2644 23.6339 26.1498 23.2347 25.9784 22.8932C25.8066 22.5513 24.4897 19.1725 23.8794 17.8212H23.8799C23.3658 16.6832 22.8246 16.6447 22.3357 16.6246Z" fill="#EC313A"/>
</svg>
