<?xml version="1.0" encoding="UTF-8" standalone="no"?>
<svg
   xmlns:dc="http://purl.org/dc/elements/1.1/"
   xmlns:cc="http://creativecommons.org/ns#"
   xmlns:rdf="http://www.w3.org/1999/02/22-rdf-syntax-ns#"
   xmlns:svg="http://www.w3.org/2000/svg"
   xmlns="http://www.w3.org/2000/svg"
   xmlns:sodipodi="http://sodipodi.sourceforge.net/DTD/sodipodi-0.dtd"
   xmlns:inkscape="http://www.inkscape.org/namespaces/inkscape"
   width="30mm"
   height="30mm"
   viewBox="0 0 30 30"
   version="1.1"
   id="svg8"
   inkscape:version="1.0.1 (3bc2e813f5, 2020-09-07)"
   sodipodi:docname="icon_add_app.svg">
  <defs
     id="defs2" />
  <sodipodi:namedview
     id="base"
     pagecolor="#ffffff"
     bordercolor="#666666"
     borderopacity="1.0"
     inkscape:pageopacity="0.0"
     inkscape:pageshadow="2"
     inkscape:zoom="3.959798"
     inkscape:cx="89.718126"
     inkscape:cy="83.935723"
     inkscape:document-units="mm"
     inkscape:current-layer="layer1"
     inkscape:document-rotation="0"
     showgrid="false"
     inkscape:window-width="1680"
     inkscape:window-height="997"
     inkscape:window-x="-8"
     inkscape:window-y="-8"
     inkscape:window-maximized="1" />
  <metadata
     id="metadata5">
    <rdf:RDF>
      <cc:Work
         rdf:about="">
        <dc:format>image/svg+xml</dc:format>
        <dc:type
           rdf:resource="http://purl.org/dc/dcmitype/StillImage" />
        <dc:title></dc:title>
      </cc:Work>
    </rdf:RDF>
  </metadata>
  <g
     inkscape:label="Слой 1"
     inkscape:groupmode="layer"
     id="layer1">
    <path
       style="fill:#000000;stroke-width:0.379188"
       d="m 18.811517,29.172964 c -2.790298,-1.702101 -4.089313,-4.867492 -3.434074,-8.368017 0.308109,-1.646031 2.556818,-4.273498 4.274129,-4.994036 1.812794,-0.7606 4.540935,-0.633015 6.469233,0.302542 4.194093,2.03486 5.239969,8.17117 2.019468,11.848524 -1.983097,2.264414 -6.615954,2.865816 -9.328756,1.210987 z m 4.806448,-4.193365 c -0.151627,-1.301689 -0.127037,-1.328637 1.212351,-1.328637 1.205747,0 1.367116,-0.11202 1.367116,-0.949027 0,-0.837008 -0.161369,-0.949027 -1.367116,-0.949027 -1.339388,0 -1.363978,-0.02695 -1.212351,-1.328637 0.144318,-1.238952 0.0832,-1.328638 -0.905473,-1.328638 -0.959191,0 -1.060239,0.126628 -1.060239,1.328638 0,1.265369 -0.06313,1.328637 -1.325677,1.328637 -1.161546,0 -1.325677,0.117499 -1.325677,0.949027 0,0.831528 0.164131,0.949027 1.325677,0.949027 1.26255,0 1.325677,0.06327 1.325677,1.328637 0,1.20201 0.101048,1.328638 1.060239,1.328638 0.98867,0 1.049791,-0.08969 0.905473,-1.328638 z m -21.8508701,1.2699 C 0.08115686,25.325303 0.06265286,25.183689 0.06265286,13.205284 V 1.7658828 l 0.876633,-0.82539305 c 0.86127004,-0.810927 1.08310104,-0.825393 12.65764714,-0.825393 6.479557,0 12.056924,0.106114 12.394147,0.235807 1.39576,0.5368 1.721412,2.14802205 1.721412,8.51700205 0,5.4367502 -0.06804,6.1070712 -0.599125,5.9028182 -0.32952,-0.126731 -0.75563,-0.230419 -0.946913,-0.230419 -0.196128,0 -0.347787,-2.545542 -0.347787,-5.8374852 0,-4.480894 -0.120646,-5.937836 -0.519147,-6.269301 -0.36856,-0.306561 -3.801916,-0.402628 -11.836404,-0.33119 L 2.1458599,2.2029558 V 13.211667 24.220378 l 5.789318,0.104861 5.7893171,0.104861 0.365613,0.963781 c 0.201086,0.530079 0.365612,1.038072 0.365612,1.128874 0,0.376413 -11.9738831,0.11855 -12.6886251,-0.273256 z m 3.286095,-5.586141 c -0.301637,-0.19167 -0.452611,-0.832422 -0.378765,-1.607533 0.113987,-1.196434 0.217827,-1.288829 1.448467,-1.288829 1.23064,0 1.33448,0.09239 1.448466,1.288829 0.124292,1.304602 -0.343157,1.926236 -1.448466,1.926236 -0.312481,0 -0.793847,-0.143416 -1.069702,-0.318703 z m 5.6906341,-0.125204 c -0.584245,-0.58555 -0.584245,-1.919881 0,-2.505431 0.488784,-0.489876 5.391343,-0.652687 5.143855,-0.170825 -0.08042,0.15659 -0.437805,0.925301 -0.794176,1.708249 -0.601999,1.322588 -0.763089,1.42354 -2.271555,1.42354 -0.892983,0 -1.828139,-0.20499 -2.078124,-0.455533 z M 4.8782929,14.684833 c -0.148753,-0.149086 -0.270461,-0.82897 -0.270461,-1.510853 0,-1.36046 0.877589,-1.9245 2.293536,-1.474093 0.630713,0.200628 0.756527,0.511713 0.662838,1.638927 -0.103164,1.241222 -0.239673,1.403474 -1.265545,1.50419 -0.632449,0.06209 -1.271615,-0.0091 -1.420368,-0.158171 z m 5.5585551,-0.306726 c -0.114097,-0.297995 -0.151358,-0.938588 -0.0828,-1.42354 0.123863,-0.876204 0.163175,-0.882386 6.270015,-0.985992 l 6.14537,-0.10426 0.24443,0.976063 c 0.134437,0.536834 0.152242,1.068457 0.03957,1.181383 -0.536794,0.537993 -3.528352,0.880865 -7.757372,0.889098 -3.686239,0.0072 -4.694816,-0.103401 -4.859206,-0.532752 z m 0.515297,-5.5623702 c -0.760882,-0.444162 -0.878111,-1.879661 -0.208321,-2.550946 0.634409,-0.635826 11.334562,-0.635826 11.968971,0 0.695837,0.69739 0.540823,2.128738 -0.278111,2.567996 -0.943863,0.506269 -10.610648,0.491915 -11.482539,-0.01705 z M 4.7553739,8.3043348 c -0.114097,-0.297995 -0.151358,-0.938588 -0.0828,-1.42354 0.103312,-0.730825 0.351532,-0.881732 1.450322,-0.881732 1.258485,0 1.331635,0.07215 1.443232,1.423541 0.115829,1.402624 0.09757,1.42354 -1.242873,1.42354 -0.829054,0 -1.441457,-0.211627 -1.567877,-0.541809 z"
       id="path26" />
    <path
       style="fill:#000000;stroke-width:0.379188"
       id="path24"
       d="" />
  </g>
</svg>
