<?xml version="1.0" encoding="UTF-8" standalone="no"?>
<svg
        xmlns:dc="http://purl.org/dc/elements/1.1/"
        xmlns:cc="http://creativecommons.org/ns#"
        xmlns:rdf="http://www.w3.org/1999/02/22-rdf-syntax-ns#"
        xmlns:svg="http://www.w3.org/2000/svg"
        xmlns="http://www.w3.org/2000/svg"
        xmlns:sodipodi="http://sodipodi.sourceforge.net/DTD/sodipodi-0.dtd"
        xmlns:inkscape="http://www.inkscape.org/namespaces/inkscape"
        width="96"
        height="97"
        viewBox="0 0 96 97"
        fill="none"
        version="1.1"
        id="svg14"
        sodipodi:docname="oss_events.svg"
        inkscape:version="1.0.1 (3bc2e813f5, 2020-09-07)">
    <metadata
            id="metadata20">
        <rdf:RDF>
            <cc:Work
                    rdf:about="">
                <dc:format>image/svg+xml</dc:format>
                <dc:type
                        rdf:resource="http://purl.org/dc/dcmitype/StillImage" />
                <dc:title></dc:title>
            </cc:Work>
        </rdf:RDF>
    </metadata>
    <defs
            id="defs18" />
    <sodipodi:namedview
            pagecolor="#ffffff"
            bordercolor="#666666"
            borderopacity="1"
            objecttolerance="10"
            gridtolerance="10"
            guidetolerance="10"
            inkscape:pageopacity="0"
            inkscape:pageshadow="2"
            inkscape:window-width="750"
            inkscape:window-height="480"
            id="namedview16"
            showgrid="false"
            inkscape:zoom="8.556701"
            inkscape:cx="48"
            inkscape:cy="48.5"
            inkscape:window-x="0"
            inkscape:window-y="0"
            inkscape:window-maximized="0"
            inkscape:current-layer="svg14" />
    <path
            d="M47.9991 24.5004C54.6264 24.5004 59.9989 19.1279 59.9989 12.5006C59.9989 5.87334 54.6264 0.500854 47.9991 0.500854C41.3718 0.500854 35.9993 5.87334 35.9993 12.5006C35.9993 19.1279 41.3718 24.5004 47.9991 24.5004Z"
            style="fill:#000000"
            id="path2" />
    <path
            d="M65.9747 57.1159L63.2508 35.9002C62.9448 32.8223 60.3769 30.5003 57.2869 30.5003H53.999C53.201 30.5003 52.439 30.8183 51.875 31.3763L47.9991 35.2522L44.1231 31.3763C43.5591 30.8183 42.7972 30.5003 41.9992 30.5003H38.7172C35.6213 30.5003 33.0533 32.8223 32.7533 35.8222L30.0234 57.1219C29.9154 57.9739 30.1794 58.8378 30.7494 59.4798C31.3194 60.1278 32.1353 60.4998 32.9993 60.4998H36.2393L38.7472 91.0993C39.0472 94.1712 41.6212 96.4992 44.7171 96.4992H51.287C54.383 96.4992 56.9509 94.1712 57.2629 91.0453L59.7649 60.4998H62.9988C63.8628 60.4998 64.6788 60.1278 65.2488 59.4798C65.8248 58.8378 66.0887 57.9739 65.9747 57.1159Z"
            style="fill:#000000"
            id="path4" />
    <path
            d="M77.9985 24.5004C84.6258 24.5004 89.9983 19.1279 89.9983 12.5006C89.9983 5.87334 84.6258 0.500854 77.9985 0.500854C71.3712 0.500854 65.9988 5.87334 65.9988 12.5006C65.9988 19.1279 71.3712 24.5004 77.9985 24.5004Z"
            style="fill:#000000"
            id="path6" />
    <path
            d="M17.9996 0.500854C11.3817 0.500854 5.99981 5.88276 5.99981 12.5006C5.99981 19.1185 11.3817 24.5004 17.9996 24.5004C24.6115 24.5004 29.9994 19.1185 29.9994 12.5006C29.9994 5.88276 24.6115 0.500854 17.9996 0.500854Z"
            style="fill:#000000"
            id="path8" />
    <path
            d="M95.9742 57.1159L93.2503 35.9062C92.9443 32.8223 90.3823 30.5003 87.2864 30.5003H83.9984C83.2004 30.5003 82.4385 30.8183 81.8745 31.3763L77.9985 35.2522L74.1226 31.3763C73.5586 30.8183 72.7966 30.5003 72.0046 30.5003H68.7167C68.3447 30.5003 68.0087 30.6323 67.6547 30.6983C68.4287 32.0663 69.0347 33.5483 69.2147 35.2103L71.9326 56.3539C72.2686 58.9278 71.4647 61.5198 69.7367 63.4698C68.9207 64.4057 67.8767 65.0657 66.7607 65.5817L68.7527 85.0994C69.0587 88.1773 71.6267 90.4993 74.7226 90.4993H81.2925C84.3884 90.4993 86.9564 88.1713 87.2684 85.0454L89.7643 60.4998H92.9983C93.8623 60.4998 94.6782 60.1278 95.2482 59.4798C95.8242 58.8378 96.0882 57.9739 95.9742 57.1159Z"
            style="fill:#000000"
            id="path10" />
    <path
            d="M26.2434 63.4398C24.5395 61.5138 23.7475 58.9278 24.0715 56.3659L26.8014 35.0603C26.9574 33.4643 27.5454 32.0243 28.2954 30.6923C27.9594 30.6323 27.6414 30.5003 27.2874 30.5003H23.9995C23.2015 30.5003 22.4395 30.8183 21.8755 31.3763L17.9996 35.2522L14.1237 31.3763C13.5597 30.8183 12.7977 30.5003 12.0057 30.5003H8.71757C5.62162 30.5003 3.05367 32.8223 2.75367 35.8222L0.0237216 57.1219C-0.0842765 57.9739 0.179719 58.8378 0.749709 59.4798C1.3197 60.1278 2.14168 60.4998 2.99967 60.4998H6.23961L8.74757 85.0994C9.04756 88.1713 11.6215 90.4993 14.7175 90.4993H21.2873C24.3833 90.4993 26.9513 88.1713 27.2632 85.0454L29.2552 65.5757C28.1334 65.0537 27.0834 64.3877 26.2434 63.4398Z"
            style="fill:#000000"
            id="path12" />
</svg>
