<?xml version="1.0" encoding="UTF-8" standalone="no"?>
<svg
   xmlns:dc="http://purl.org/dc/elements/1.1/"
   xmlns:cc="http://creativecommons.org/ns#"
   xmlns:rdf="http://www.w3.org/1999/02/22-rdf-syntax-ns#"
   xmlns:svg="http://www.w3.org/2000/svg"
   xmlns="http://www.w3.org/2000/svg"
   xmlns:sodipodi="http://sodipodi.sourceforge.net/DTD/sodipodi-0.dtd"
   xmlns:inkscape="http://www.inkscape.org/namespaces/inkscape"
   version="1.1"
   id="Capa_1"
   x="0px"
   y="0px"
   viewBox="0 0 480.48 480.48"
   style="enable-background:new 0 0 480.48 480.48;"
   xml:space="preserve"
   sodipodi:docname="pay.svg"
   inkscape:version="1.0.1 (3bc2e813f5, 2020-09-07)"><metadata
   id="metadata51"><rdf:RDF><cc:Work
       rdf:about=""><dc:format>image/svg+xml</dc:format><dc:type
         rdf:resource="http://purl.org/dc/dcmitype/StillImage" /><dc:title></dc:title></cc:Work></rdf:RDF></metadata><defs
   id="defs49" /><sodipodi:namedview
   pagecolor="#ffffff"
   bordercolor="#666666"
   borderopacity="1"
   objecttolerance="10"
   gridtolerance="10"
   guidetolerance="10"
   inkscape:pageopacity="0"
   inkscape:pageshadow="2"
   inkscape:window-width="750"
   inkscape:window-height="480"
   id="namedview47"
   showgrid="false"
   inkscape:zoom="1.7274392"
   inkscape:cx="240.24001"
   inkscape:cy="240.24001"
   inkscape:window-x="0"
   inkscape:window-y="0"
   inkscape:window-maximized="0"
   inkscape:current-layer="Capa_1" />
<g
   id="g14">
	<g
   id="g12">
		<g
   id="g10">
			<path
   d="M 477.128,172.606 423.448,33.038 C 413.276,6.654 383.641,-6.488 357.257,3.684 c -0.383,0.148 -0.765,0.3 -1.145,0.457 l -268.256,111.2 c -25.543,10.478 -38.097,39.391 -28.312,65.208 l 7.376,19.688 H 50 c -27.601,0.031 -49.969,22.399 -50,50 v 180 c 0.031,27.601 22.399,49.969 50,50 h 340 c 27.601,-0.031 49.969,-22.399 50,-50 v -180 c -0.016,-2.714 -0.257,-5.422 -0.72,-8.096 l 9.288,-3.76 c 25.771,-10.563 38.437,-39.733 28.56,-65.775 z M 50,216.238 h 340 c 17.956,0.051 32.768,14.074 33.8,32 H 16.2 c 1.032,-17.927 15.844,-31.95 33.8,-32 z m 80.408,-48.192 53.472,-26.744 10.992,27.496 -53.472,26.736 z M 424,430.238 c -0.022,18.769 -15.231,33.978 -34,34 H 50 c -18.769,-0.022 -33.978,-15.231 -34,-34 v -102 h 408 z m 0,-118 H 16 v -48 h 408 z m 18.568,-88.64 -8.36,3.384 C 425.573,210.558 408.556,200.264 390,200.238 H 167.776 l 40.84,-20.424 c 3.724,-1.859 5.401,-6.263 3.856,-10.128 l -16.968,-42.4 c -1.641,-4.102 -6.296,-6.098 -10.398,-4.458 -0.207,0.083 -0.41,0.174 -0.609,0.274 l -67.832,33.936 c -3.721,1.862 -5.394,6.265 -3.848,10.128 l 13.232,33.072 H 84 l -9.472,-25.264 c -6.715,-17.738 1.91,-37.598 19.456,-44.8 l 268.248,-111.2 c 17.933,-7.436 38.499,1.073 45.936,19.006 0.116,0.279 0.228,0.56 0.336,0.842 l 53.68,139.568 c 6.791,17.895 -1.908,37.943 -19.616,45.208 z"
   id="path2" />
			<path
   d="m 287.775,441.742 c 14.908,8.661 33.317,8.661 48.225,0 22.922,13.317 52.3,5.53 65.617,-17.392 13.317,-22.922 5.53,-52.3 -17.392,-65.617 -7.357,-4.274 -15.717,-6.516 -24.225,-6.496 -8.434,0.004 -16.716,2.245 -24,6.496 -22.922,-13.317 -52.3,-5.531 -65.617,17.391 -13.317,22.923 -5.53,52.3 17.392,65.618 z m 61.601,-71.552 c 3.403,-1.254 6.997,-1.914 10.624,-1.952 17.673,0 32,14.327 32,32 0,17.673 -14.327,32 -32,32 -3.627,-0.038 -7.221,-0.698 -10.624,-1.952 14.164,-17.529 14.164,-42.568 0,-60.096 z M 336,379.294 c 10.667,11.926 10.667,29.962 0,41.888 -10.667,-11.926 -10.667,-29.963 0,-41.888 z m -24,-11.056 c 3.627,0.037 7.221,0.698 10.624,1.952 -14.164,17.528 -14.164,42.568 0,60.096 -3.403,1.254 -6.997,1.914 -10.624,1.952 -17.673,0 -32,-14.327 -32,-32 0,-17.674 14.327,-32 32,-32 z"
   id="path4" />
			
				<rect
   x="370.883"
   y="113.937"
   transform="matrix(-0.4062,-0.9138,0.9138,-0.4062,390.4948,565.1589)"
   width="16"
   height="83.519997"
   id="rect6" />
			
				<rect
   x="284.25601"
   y="122.262"
   transform="matrix(0.908,-0.4191,0.4191,0.908,-22.8353,156.5479)"
   width="121.408"
   height="15.992"
   id="rect8" />
		</g>
	</g>
</g>
<g
   id="g16">
</g>
<g
   id="g18">
</g>
<g
   id="g20">
</g>
<g
   id="g22">
</g>
<g
   id="g24">
</g>
<g
   id="g26">
</g>
<g
   id="g28">
</g>
<g
   id="g30">
</g>
<g
   id="g32">
</g>
<g
   id="g34">
</g>
<g
   id="g36">
</g>
<g
   id="g38">
</g>
<g
   id="g40">
</g>
<g
   id="g42">
</g>
<g
   id="g44">
</g>
</svg>
