<?xml version="1.0" encoding="UTF-8" standalone="no"?>
<svg
   xmlns:dc="http://purl.org/dc/elements/1.1/"
   xmlns:cc="http://creativecommons.org/ns#"
   xmlns:rdf="http://www.w3.org/1999/02/22-rdf-syntax-ns#"
   xmlns:svg="http://www.w3.org/2000/svg"
   xmlns="http://www.w3.org/2000/svg"
   xmlns:sodipodi="http://sodipodi.sourceforge.net/DTD/sodipodi-0.dtd"
   xmlns:inkscape="http://www.inkscape.org/namespaces/inkscape"
   version="1.1"
   id="Layer_1"
   x="0px"
   y="0px"
   viewBox="0 0 512 512"
   style="enable-background:new 0 0 512 512;"
   xml:space="preserve"
   sodipodi:docname="viber.svg"
   inkscape:version="1.0.1 (3bc2e813f5, 2020-09-07)"><metadata
   id="metadata59"><rdf:RDF><cc:Work
       rdf:about=""><dc:format>image/svg+xml</dc:format><dc:type
         rdf:resource="http://purl.org/dc/dcmitype/StillImage" /><dc:title></dc:title></cc:Work></rdf:RDF></metadata><defs
   id="defs57" /><sodipodi:namedview
   pagecolor="#ffffff"
   bordercolor="#666666"
   borderopacity="1"
   objecttolerance="10"
   gridtolerance="10"
   guidetolerance="10"
   inkscape:pageopacity="0"
   inkscape:pageshadow="2"
   inkscape:window-width="750"
   inkscape:window-height="480"
   id="namedview55"
   showgrid="false"
   inkscape:zoom="1.6210938"
   inkscape:cx="256"
   inkscape:cy="256"
   inkscape:window-x="0"
   inkscape:window-y="0"
   inkscape:window-maximized="0"
   inkscape:current-layer="Layer_1" />
<path
   style="fill:#665CAC;"
   d="M307.207,0H204.794C105.969,0,25.571,80.398,25.571,179.223v76.81  c0,69.381,40.014,132.344,102.413,161.961v85.537c0,7.427,9.291,11.31,14.569,6.035l74.309-74.31h90.344  c98.824,0,179.223-80.398,179.223-179.223v-76.81C486.429,80.398,406.03,0,307.207,0z"
   id="path2" />
<path
   style="fill:#523494;"
   d="M153.587,417.993c-62.399-29.618-102.413-92.58-102.413-161.961v-76.81  C51.174,80.398,131.573,0,230.397,0h-25.603C105.969,0,25.571,80.398,25.571,179.223v76.81c0,69.381,40.014,132.344,102.413,161.961  v85.537c0,7.427,9.291,11.31,14.569,6.035l11.034-11.034V417.993z"
   id="path4" />
<path
   style="fill:#ffffff;stroke-width:0.999999"
   d="m 384.85,318.101 -7.673,-41.566 c -0.635,-3.434 -3.295,-6.135 -6.719,-6.82 l -60.347,-12.069 c -2.803,-0.558 -5.691,0.317 -7.71,2.334 l -24.517,24.518 C 236.576,265.989 213.65,243.013 193.478,199.932 l 24.438,-24.437 c 2.017,-2.018 2.893,-4.912 2.334,-7.71 l -12.069,-60.348 c -0.685,-3.423 -3.386,-6.085 -6.82,-6.719 l -41.566,-7.672 c -1.138,-0.209 -2.31,-0.187 -3.44,0.07 -10.975,2.493 -20.989,8.023 -28.96,15.996 -13.802,13.802 -19.077,33.942 -15.253,58.243 6.419,40.806 26.411,97.594 63.296,134.627 l 0.504,0.5 c 37.004,36.859 93.793,56.853 134.601,63.273 5.141,0.81 10.092,1.211 14.84,1.211 17.695,0 32.52,-5.582 43.405,-16.465 7.971,-7.972 13.503,-17.986 15.995,-28.959 0.253,-1.131 0.277,-2.301 0.067,-3.441 z"
   id="path6" />
<g
   id="g14">
	<polygon
   style="fill:#E5E5E5;"
   points="209.571,183.839 217.915,175.494 217.924,175.485 209.57,183.838  "
   id="polygon8" />
	
		<rect
   x="292.235"
   y="264.183"
   transform="matrix(0.7071 -0.7071 0.7071 0.7071 -99.4675 288.2322)"
   style="fill:#E5E5E5;"
   width="11.916"
   height="0.002"
   id="rect10" />
	<path
   style="fill:#E5E5E5;"
   d="M341.473,350.871c-4.748,0-9.699-0.401-14.84-1.211c-40.807-6.42-97.596-26.414-134.601-63.273   l-0.504-0.5c-36.885-37.033-56.877-93.821-63.296-134.627c-3.089-19.633-0.233-36.548,8.256-49.601   c-3.251,2.169-6.302,4.657-9.097,7.452c-13.802,13.802-19.077,33.942-15.253,58.243c6.419,40.806,26.411,97.594,63.296,134.627   l0.504,0.5c37.004,36.859,93.793,56.853,134.601,63.273c5.141,0.81,10.092,1.211,14.84,1.211c17.695,0,32.52-5.581,43.405-16.465   c2.794-2.795,5.282-5.845,7.451-9.096C366.598,347.672,354.858,350.871,341.473,350.871z"
   id="path12" />
</g>
<g
   id="g22">
	<path
   style="fill:#FFFFFF;"
   d="M273.069,145.085c-4.713,0-8.534,3.821-8.534,8.534s3.821,8.534,8.534,8.534   c18.824,0,34.138,15.314,34.138,34.138c0,4.65,3.884,8.534,8.534,8.534s8.534-3.884,8.534-8.534   C324.276,168.055,301.305,145.085,273.069,145.085z"
   id="path16" />
	<path
   style="fill:#FFFFFF;"
   d="M273.069,110.947c-3.157,0-6.343,0.175-9.471,0.52c-4.685,0.517-8.064,4.734-7.547,9.42   s4.743,8.056,9.42,7.547c2.508-0.277,5.064-0.418,7.598-0.418c37.647,0,68.275,30.628,68.275,68.275   c0,2.535-0.141,5.091-0.418,7.599c-0.51,4.621,2.924,8.911,7.547,9.42c4.622,0.509,8.909-2.924,9.42-7.547   c0.345-3.128,0.52-6.314,0.52-9.472C358.413,149.233,320.128,110.947,273.069,110.947z"
   id="path18" />
	<path
   style="fill:#FFFFFF;"
   d="M273.069,76.81c-3.05,0-6.139,0.116-9.179,0.347c-4.7,0.356-8.222,4.456-7.866,9.155   c0.355,4.7,4.469,8.222,9.155,7.866c2.613-0.199,5.268-0.299,7.89-0.299c56.471,0,102.413,45.942,102.413,102.413   c0,7.99-0.922,15.944-2.74,23.64c-1.043,4.41,1.673,8.994,6.046,10.192c4.601,1.26,9.469-1.625,10.565-6.266   c2.122-8.981,3.198-18.255,3.198-27.566C392.551,130.409,338.952,76.81,273.069,76.81z"
   id="path20" />
</g>
<g
   id="g24">
</g>
<g
   id="g26">
</g>
<g
   id="g28">
</g>
<g
   id="g30">
</g>
<g
   id="g32">
</g>
<g
   id="g34">
</g>
<g
   id="g36">
</g>
<g
   id="g38">
</g>
<g
   id="g40">
</g>
<g
   id="g42">
</g>
<g
   id="g44">
</g>
<g
   id="g46">
</g>
<g
   id="g48">
</g>
<g
   id="g50">
</g>
<g
   id="g52">
</g>
</svg>
