<?xml version="1.0" encoding="UTF-8" standalone="no"?>
<svg
   xmlns:dc="http://purl.org/dc/elements/1.1/"
   xmlns:cc="http://creativecommons.org/ns#"
   xmlns:rdf="http://www.w3.org/1999/02/22-rdf-syntax-ns#"
   xmlns:svg="http://www.w3.org/2000/svg"
   xmlns="http://www.w3.org/2000/svg"
   xmlns:sodipodi="http://sodipodi.sourceforge.net/DTD/sodipodi-0.dtd"
   xmlns:inkscape="http://www.inkscape.org/namespaces/inkscape"
   version="1.1"
   id="Capa_1"
   x="0px"
   y="0px"
   viewBox="0 0 512 512"
   style="enable-background:new 0 0 512 512;"
   xml:space="preserve"
   sodipodi:docname="whatsapp.svg"
   inkscape:version="1.0.1 (3bc2e813f5, 2020-09-07)"><metadata
   id="metadata41"><rdf:RDF><cc:Work
       rdf:about=""><dc:format>image/svg+xml</dc:format><dc:type
         rdf:resource="http://purl.org/dc/dcmitype/StillImage" /><dc:title></dc:title></cc:Work></rdf:RDF></metadata><defs
   id="defs39" /><sodipodi:namedview
   pagecolor="#ffffff"
   bordercolor="#666666"
   borderopacity="1"
   objecttolerance="10"
   gridtolerance="10"
   guidetolerance="10"
   inkscape:pageopacity="0"
   inkscape:pageshadow="2"
   inkscape:window-width="750"
   inkscape:window-height="480"
   id="namedview37"
   showgrid="false"
   inkscape:zoom="1.6210938"
   inkscape:cx="256"
   inkscape:cy="256"
   inkscape:window-x="0"
   inkscape:window-y="0"
   inkscape:window-maximized="0"
   inkscape:current-layer="Capa_1" />
<path
   style="fill:#4CAF50;"
   d="M256.064,0h-0.128l0,0C114.784,0,0,114.816,0,256c0,56,18.048,107.904,48.736,150.048l-31.904,95.104  l98.4-31.456C155.712,496.512,204,512,256.064,512C397.216,512,512,397.152,512,256S397.216,0,256.064,0z"
   id="path2" />
<path
   style="fill:#fafafa;stroke-width:0.999999"
   d="m 405.024,361.504 c -6.176,17.44 -30.688,31.904 -50.24,36.128 -13.376,2.848 -30.848,5.12 -89.664,-19.264 C 189.888,347.2 141.44,270.752 137.664,265.792 c -3.616,-4.96 -30.4,-40.48 -30.4,-77.216 0,-36.736 18.656,-54.624 26.176,-62.304 6.176,-6.304 16.384,-9.184 26.176,-9.184 3.168,0 6.016,0.16 8.576,0.288 7.52,0.32 11.296,0.768 16.256,12.64 6.176,14.88 21.216,51.616 23.008,55.392 1.824,3.776 3.648,8.896 1.088,13.856 -2.4,5.12 -4.512,7.392 -8.288,11.744 -3.776,4.352 -7.36,7.68 -11.136,12.352 -3.456,4.064 -7.36,8.416 -3.008,15.936 4.352,7.36 19.392,31.904 41.536,51.616 28.576,25.44 51.744,33.568 60.032,37.024 6.176,2.56 13.536,1.952 18.048,-2.848 5.728,-6.176 12.8,-16.416 20,-26.496 5.12,-7.232 11.584,-8.128 18.368,-5.568 6.912,2.4 43.488,20.48 51.008,24.224 7.52,3.776 12.48,5.568 14.304,8.736 1.792,3.168 1.792,18.048 -4.384,35.52 z"
   id="path4" />
<g
   id="g6">
</g>
<g
   id="g8">
</g>
<g
   id="g10">
</g>
<g
   id="g12">
</g>
<g
   id="g14">
</g>
<g
   id="g16">
</g>
<g
   id="g18">
</g>
<g
   id="g20">
</g>
<g
   id="g22">
</g>
<g
   id="g24">
</g>
<g
   id="g26">
</g>
<g
   id="g28">
</g>
<g
   id="g30">
</g>
<g
   id="g32">
</g>
<g
   id="g34">
</g>
</svg>
